solid 
   facet normal -0.000000e+00 0.000000e+00 1.000000e+00
      outer loop
         vertex 2.707084e+01 4.140729e+01 3.000000e+00
         vertex -2.592916e+01 4.140729e+01 3.000000e+00
         vertex 2.045280e+01 3.583430e+01 3.000000e+00
      endloop
   endfacet
   facet normal 0.000000e+00 0.000000e+00 1.000000e+00
      outer loop
         vertex -2.592916e+01 1.407292e+00 3.000000e+00
         vertex 2.707084e+01 1.407292e+00 3.000000e+00
         vertex 2.045280e+01 6.980279e+00 3.000000e+00
      endloop
   endfacet
   facet normal -0.000000e+00 0.000000e+00 1.000000e+00
      outer loop
         vertex 1.707084e+01 1.088239e+01 3.000000e+00
         vertex -1.592916e+01 1.088239e+01 3.000000e+00
         vertex 1.945280e+01 7.706821e+00 3.000000e+00
      endloop
   endfacet
   facet normal 0.000000e+00 -0.000000e+00 1.000000e+00
      outer loop
         vertex -1.592916e+01 3.193219e+01 3.000000e+00
         vertex 1.707084e+01 3.193219e+01 3.000000e+00
         vertex 1.945280e+01 3.510776e+01 3.000000e+00
      endloop
   endfacet
   facet normal 0.000000e+00 -0.000000e+00 1.000000e+00
      outer loop
         vertex 2.268887e+01 3.510776e+01 3.000000e+00
         vertex 2.307084e+01 3.393219e+01 3.000000e+00
         vertex 2.707084e+01 4.140729e+01 3.000000e+00
      endloop
   endfacet
   facet normal -0.000000e+00 0.000000e+00 1.000000e+00
      outer loop
         vertex 2.268887e+01 3.275662e+01 3.000000e+00
         vertex 2.168887e+01 3.203008e+01 3.000000e+00
         vertex 2.268887e+01 1.005796e+01 3.000000e+00
      endloop
   endfacet
   facet normal 0.000000e+00 0.000000e+00 1.000000e+00
      outer loop
         vertex 2.045280e+01 3.203008e+01 3.000000e+00
         vertex 1.945280e+01 3.275662e+01 3.000000e+00
         vertex 1.707084e+01 3.193219e+01 3.000000e+00
      endloop
   endfacet
   facet normal 0.000000e+00 0.000000e+00 1.000000e+00
      outer loop
         vertex 1.907084e+01 3.393219e+01 3.000000e+00
         vertex 1.945280e+01 3.510776e+01 3.000000e+00
         vertex 1.707084e+01 3.193219e+01 3.000000e+00
      endloop
   endfacet
   facet normal 0.000000e+00 -0.000000e+00 1.000000e+00
      outer loop
         vertex 2.045280e+01 3.583430e+01 3.000000e+00
         vertex 2.168887e+01 3.583430e+01 3.000000e+00
         vertex 2.707084e+01 4.140729e+01 3.000000e+00
      endloop
   endfacet
   facet normal -0.000000e+00 -0.000000e+00 1.000000e+00
      outer loop
         vertex 2.268887e+01 1.005796e+01 3.000000e+00
         vertex 2.307084e+01 8.882392e+00 3.000000e+00
         vertex 2.707084e+01 1.407292e+00 3.000000e+00
      endloop
   endfacet
   facet normal -0.000000e+00 0.000000e+00 1.000000e+00
      outer loop
         vertex 2.268887e+01 7.706821e+00 3.000000e+00
         vertex 2.168887e+01 6.980279e+00 3.000000e+00
         vertex 2.707084e+01 1.407292e+00 3.000000e+00
      endloop
   endfacet
   facet normal 0.000000e+00 0.000000e+00 1.000000e+00
      outer loop
         vertex 2.045280e+01 6.980279e+00 3.000000e+00
         vertex 1.945280e+01 7.706821e+00 3.000000e+00
         vertex -1.831113e+01 7.706821e+00 3.000000e+00
      endloop
   endfacet
   facet normal 0.000000e+00 0.000000e+00 1.000000e+00
      outer loop
         vertex 1.907084e+01 8.882392e+00 3.000000e+00
         vertex 1.945280e+01 1.005796e+01 3.000000e+00
         vertex 1.707084e+01 1.088239e+01 3.000000e+00
      endloop
   endfacet
   facet normal 0.000000e+00 -0.000000e+00 1.000000e+00
      outer loop
         vertex 2.045280e+01 1.078450e+01 3.000000e+00
         vertex 2.168887e+01 1.078450e+01 3.000000e+00
         vertex 2.168887e+01 3.203008e+01 3.000000e+00
      endloop
   endfacet
   facet normal 0.000000e+00 -0.000000e+00 1.000000e+00
      outer loop
         vertex -1.831113e+01 1.005796e+01 3.000000e+00
         vertex -1.792916e+01 8.882392e+00 3.000000e+00
         vertex -1.592916e+01 1.088239e+01 3.000000e+00
      endloop
   endfacet
   facet normal 0.000000e+00 0.000000e+00 1.000000e+00
      outer loop
         vertex -1.831113e+01 7.706821e+00 3.000000e+00
         vertex -1.931113e+01 6.980279e+00 3.000000e+00
         vertex 2.045280e+01 6.980279e+00 3.000000e+00
      endloop
   endfacet
   facet normal 0.000000e+00 0.000000e+00 1.000000e+00
      outer loop
         vertex -2.054720e+01 6.980279e+00 3.000000e+00
         vertex -2.154720e+01 7.706821e+00 3.000000e+00
         vertex -2.592916e+01 1.407292e+00 3.000000e+00
      endloop
   endfacet
   facet normal 0.000000e+00 0.000000e+00 1.000000e+00
      outer loop
         vertex -2.192916e+01 8.882392e+00 3.000000e+00
         vertex -2.154720e+01 1.005796e+01 3.000000e+00
         vertex -2.592916e+01 1.407292e+00 3.000000e+00
      endloop
   endfacet
   facet normal 0.000000e+00 -0.000000e+00 1.000000e+00
      outer loop
         vertex -2.054720e+01 1.078450e+01 3.000000e+00
         vertex -1.931113e+01 1.078450e+01 3.000000e+00
         vertex -1.931113e+01 3.203008e+01 3.000000e+00
      endloop
   endfacet
   facet normal -0.000000e+00 -0.000000e+00 1.000000e+00
      outer loop
         vertex -1.831113e+01 3.510776e+01 3.000000e+00
         vertex -1.792916e+01 3.393219e+01 3.000000e+00
         vertex -1.592916e+01 3.193219e+01 3.000000e+00
      endloop
   endfacet
   facet normal -0.000000e+00 0.000000e+00 1.000000e+00
      outer loop
         vertex -1.831113e+01 3.275662e+01 3.000000e+00
         vertex -1.931113e+01 3.203008e+01 3.000000e+00
         vertex -1.592916e+01 3.193219e+01 3.000000e+00
      endloop
   endfacet
   facet normal 0.000000e+00 0.000000e+00 1.000000e+00
      outer loop
         vertex -2.054720e+01 3.203008e+01 3.000000e+00
         vertex -2.154720e+01 3.275662e+01 3.000000e+00
         vertex -2.154720e+01 1.005796e+01 3.000000e+00
      endloop
   endfacet
   facet normal 0.000000e+00 0.000000e+00 1.000000e+00
      outer loop
         vertex -2.192916e+01 3.393219e+01 3.000000e+00
         vertex -2.154720e+01 3.510776e+01 3.000000e+00
         vertex -2.592916e+01 4.140729e+01 3.000000e+00
      endloop
   endfacet
   facet normal 0.000000e+00 0.000000e+00 1.000000e+00
      outer loop
         vertex -2.054720e+01 3.583430e+01 3.000000e+00
         vertex -1.931113e+01 3.583430e+01 3.000000e+00
         vertex -2.592916e+01 4.140729e+01 3.000000e+00
      endloop
   endfacet
   facet normal 0.000000e+00 0.000000e+00 1.000000e+00
      outer loop
         vertex 2.045280e+01 3.583430e+01 3.000000e+00
         vertex -2.592916e+01 4.140729e+01 3.000000e+00
         vertex -1.931113e+01 3.583430e+01 3.000000e+00
      endloop
   endfacet
   facet normal 0.000000e+00 0.000000e+00 1.000000e+00
      outer loop
         vertex 2.045280e+01 6.980279e+00 3.000000e+00
         vertex 2.707084e+01 1.407292e+00 3.000000e+00
         vertex 2.168887e+01 6.980279e+00 3.000000e+00
      endloop
   endfacet
   facet normal 0.000000e+00 0.000000e+00 1.000000e+00
      outer loop
         vertex -1.592916e+01 3.193219e+01 3.000000e+00
         vertex 1.945280e+01 3.510776e+01 3.000000e+00
         vertex -1.831113e+01 3.510776e+01 3.000000e+00
      endloop
   endfacet
   facet normal -0.000000e+00 0.000000e+00 1.000000e+00
      outer loop
         vertex 2.707084e+01 4.140729e+01 3.000000e+00
         vertex 2.307084e+01 3.393219e+01 3.000000e+00
         vertex 2.268887e+01 3.275662e+01 3.000000e+00
      endloop
   endfacet
   facet normal -0.000000e+00 0.000000e+00 1.000000e+00
      outer loop
         vertex 2.045280e+01 3.203008e+01 3.000000e+00
         vertex 1.707084e+01 3.193219e+01 3.000000e+00
         vertex 1.707084e+01 1.088239e+01 3.000000e+00
      endloop
   endfacet
   facet normal -0.000000e+00 0.000000e+00 1.000000e+00
      outer loop
         vertex 2.707084e+01 4.140729e+01 3.000000e+00
         vertex 2.168887e+01 3.583430e+01 3.000000e+00
         vertex 2.268887e+01 3.510776e+01 3.000000e+00
      endloop
   endfacet
   facet normal 0.000000e+00 0.000000e+00 1.000000e+00
      outer loop
         vertex -1.831113e+01 7.706821e+00 3.000000e+00
         vertex 1.945280e+01 7.706821e+00 3.000000e+00
         vertex -1.592916e+01 1.088239e+01 3.000000e+00
      endloop
   endfacet
   facet normal 0.000000e+00 0.000000e+00 1.000000e+00
      outer loop
         vertex 2.045280e+01 1.078450e+01 3.000000e+00
         vertex 2.168887e+01 3.203008e+01 3.000000e+00
         vertex 2.045280e+01 3.203008e+01 3.000000e+00
      endloop
   endfacet
   facet normal -0.000000e+00 0.000000e+00 1.000000e+00
      outer loop
         vertex -1.592916e+01 1.088239e+01 3.000000e+00
         vertex -1.792916e+01 8.882392e+00 3.000000e+00
         vertex -1.831113e+01 7.706821e+00 3.000000e+00
      endloop
   endfacet
   facet normal 0.000000e+00 0.000000e+00 1.000000e+00
      outer loop
         vertex -2.592916e+01 1.407292e+00 3.000000e+00
         vertex -2.154720e+01 7.706821e+00 3.000000e+00
         vertex -2.192916e+01 8.882392e+00 3.000000e+00
      endloop
   endfacet
   facet normal 0.000000e+00 0.000000e+00 1.000000e+00
      outer loop
         vertex -1.931113e+01 3.203008e+01 3.000000e+00
         vertex -1.931113e+01 1.078450e+01 3.000000e+00
         vertex -1.592916e+01 3.193219e+01 3.000000e+00
      endloop
   endfacet
   facet normal 0.000000e+00 0.000000e+00 1.000000e+00
      outer loop
         vertex -1.831113e+01 3.275662e+01 3.000000e+00
         vertex -1.592916e+01 3.193219e+01 3.000000e+00
         vertex -1.792916e+01 3.393219e+01 3.000000e+00
      endloop
   endfacet
   facet normal 0.000000e+00 -0.000000e+00 1.000000e+00
      outer loop
         vertex -2.592916e+01 4.140729e+01 3.000000e+00
         vertex -2.154720e+01 3.510776e+01 3.000000e+00
         vertex -2.054720e+01 3.583430e+01 3.000000e+00
      endloop
   endfacet
   facet normal -0.000000e+00 0.000000e+00 1.000000e+00
      outer loop
         vertex 2.707084e+01 4.140729e+01 3.000000e+00
         vertex 2.268887e+01 3.275662e+01 3.000000e+00
         vertex 2.707084e+01 1.407292e+00 3.000000e+00
      endloop
   endfacet
   facet normal 0.000000e+00 0.000000e+00 1.000000e+00
      outer loop
         vertex -1.592916e+01 3.193219e+01 3.000000e+00
         vertex -1.931113e+01 1.078450e+01 3.000000e+00
         vertex -1.592916e+01 1.088239e+01 3.000000e+00
      endloop
   endfacet
   facet normal 0.000000e+00 0.000000e+00 1.000000e+00
      outer loop
         vertex -2.592916e+01 4.140729e+01 3.000000e+00
         vertex -2.592916e+01 1.407292e+00 3.000000e+00
         vertex -2.154720e+01 3.275662e+01 3.000000e+00
      endloop
   endfacet
   facet normal 0.000000e+00 0.000000e+00 1.000000e+00
      outer loop
         vertex 1.945280e+01 3.510776e+01 3.000000e+00
         vertex 2.045280e+01 3.583430e+01 3.000000e+00
         vertex -1.931113e+01 3.583430e+01 3.000000e+00
      endloop
   endfacet
   facet normal 0.000000e+00 0.000000e+00 1.000000e+00
      outer loop
         vertex 1.945280e+01 7.706821e+00 3.000000e+00
         vertex 1.907084e+01 8.882392e+00 3.000000e+00
         vertex 1.707084e+01 1.088239e+01 3.000000e+00
      endloop
   endfacet
   facet normal 0.000000e+00 0.000000e+00 1.000000e+00
      outer loop
         vertex 2.168887e+01 1.078450e+01 3.000000e+00
         vertex 2.268887e+01 1.005796e+01 3.000000e+00
         vertex 2.168887e+01 3.203008e+01 3.000000e+00
      endloop
   endfacet
   facet normal 0.000000e+00 -0.000000e+00 1.000000e+00
      outer loop
         vertex -2.154720e+01 1.005796e+01 3.000000e+00
         vertex -2.054720e+01 1.078450e+01 3.000000e+00
         vertex -2.054720e+01 3.203008e+01 3.000000e+00
      endloop
   endfacet
   facet normal -0.000000e+00 0.000000e+00 1.000000e+00
      outer loop
         vertex -1.931113e+01 3.203008e+01 3.000000e+00
         vertex -2.054720e+01 3.203008e+01 3.000000e+00
         vertex -2.054720e+01 1.078450e+01 3.000000e+00
      endloop
   endfacet
   facet normal 0.000000e+00 -0.000000e+00 1.000000e+00
      outer loop
         vertex -1.931113e+01 3.583430e+01 3.000000e+00
         vertex -1.831113e+01 3.510776e+01 3.000000e+00
         vertex 1.945280e+01 3.510776e+01 3.000000e+00
      endloop
   endfacet
   facet normal -0.000000e+00 0.000000e+00 1.000000e+00
      outer loop
         vertex 2.268887e+01 3.275662e+01 3.000000e+00
         vertex 2.268887e+01 1.005796e+01 3.000000e+00
         vertex 2.707084e+01 1.407292e+00 3.000000e+00
      endloop
   endfacet
   facet normal 0.000000e+00 0.000000e+00 1.000000e+00
      outer loop
         vertex 1.907084e+01 3.393219e+01 3.000000e+00
         vertex 1.707084e+01 3.193219e+01 3.000000e+00
         vertex 1.945280e+01 3.275662e+01 3.000000e+00
      endloop
   endfacet
   facet normal 0.000000e+00 0.000000e+00 1.000000e+00
      outer loop
         vertex -1.831113e+01 1.005796e+01 3.000000e+00
         vertex -1.592916e+01 1.088239e+01 3.000000e+00
         vertex -1.931113e+01 1.078450e+01 3.000000e+00
      endloop
   endfacet
   facet normal 0.000000e+00 -0.000000e+00 1.000000e+00
      outer loop
         vertex -2.592916e+01 1.407292e+00 3.000000e+00
         vertex -2.154720e+01 1.005796e+01 3.000000e+00
         vertex -2.154720e+01 3.275662e+01 3.000000e+00
      endloop
   endfacet
   facet normal -0.000000e+00 0.000000e+00 1.000000e+00
      outer loop
         vertex 2.045280e+01 3.203008e+01 3.000000e+00
         vertex 1.707084e+01 1.088239e+01 3.000000e+00
         vertex 2.045280e+01 1.078450e+01 3.000000e+00
      endloop
   endfacet
   facet normal 0.000000e+00 0.000000e+00 1.000000e+00
      outer loop
         vertex 2.045280e+01 1.078450e+01 3.000000e+00
         vertex 1.707084e+01 1.088239e+01 3.000000e+00
         vertex 1.945280e+01 1.005796e+01 3.000000e+00
      endloop
   endfacet
   facet normal -0.000000e+00 0.000000e+00 1.000000e+00
      outer loop
         vertex 2.307084e+01 8.882392e+00 3.000000e+00
         vertex 2.268887e+01 7.706821e+00 3.000000e+00
         vertex 2.707084e+01 1.407292e+00 3.000000e+00
      endloop
   endfacet
   facet normal 0.000000e+00 0.000000e+00 1.000000e+00
      outer loop
         vertex -2.154720e+01 3.275662e+01 3.000000e+00
         vertex -2.192916e+01 3.393219e+01 3.000000e+00
         vertex -2.592916e+01 4.140729e+01 3.000000e+00
      endloop
   endfacet
   facet normal -0.000000e+00 0.000000e+00 1.000000e+00
      outer loop
         vertex 2.045280e+01 6.980279e+00 3.000000e+00
         vertex -1.931113e+01 6.980279e+00 3.000000e+00
         vertex -2.592916e+01 1.407292e+00 3.000000e+00
      endloop
   endfacet
   facet normal -0.000000e+00 0.000000e+00 1.000000e+00
      outer loop
         vertex -1.931113e+01 6.980279e+00 3.000000e+00
         vertex -2.054720e+01 6.980279e+00 3.000000e+00
         vertex -2.592916e+01 1.407292e+00 3.000000e+00
      endloop
   endfacet
   facet normal 0.000000e+00 0.000000e+00 -1.000000e+00
      outer loop
         vertex -2.154720e+01 3.275662e+01 0.000000e+00
         vertex -2.592916e+01 1.407292e+00 0.000000e+00
         vertex -2.592916e+01 4.140729e+01 0.000000e+00
      endloop
   endfacet
   facet normal 0.000000e+00 -0.000000e+00 -1.000000e+00
      outer loop
         vertex 2.268887e+01 3.275662e+01 0.000000e+00
         vertex 2.707084e+01 4.140729e+01 0.000000e+00
         vertex 2.707084e+01 1.407292e+00 0.000000e+00
      endloop
   endfacet
   facet normal 0.000000e+00 0.000000e+00 -1.000000e+00
      outer loop
         vertex 1.945280e+01 3.510776e+01 0.000000e+00
         vertex 1.707084e+01 3.193219e+01 0.000000e+00
         vertex -1.592916e+01 3.193219e+01 0.000000e+00
      endloop
   endfacet
   facet normal -5.382900e-17 -5.997586e-16 -1.000000e+00
      outer loop
         vertex 1.945280e+01 7.706821e+00 0.000000e+00
         vertex -1.592916e+01 1.088239e+01 0.000000e+00
         vertex 1.707084e+01 1.088239e+01 -1.776357e-15
      endloop
   endfacet
   facet normal 0.000000e+00 0.000000e+00 -1.000000e+00
      outer loop
         vertex 2.707084e+01 4.140729e+01 0.000000e+00
         vertex 2.268887e+01 3.275662e+01 0.000000e+00
         vertex 2.307084e+01 3.393219e+01 0.000000e+00
      endloop
   endfacet
   facet normal 0.000000e+00 0.000000e+00 -1.000000e+00
      outer loop
         vertex 2.045280e+01 1.078450e+01 0.000000e+00
         vertex 2.045280e+01 3.203008e+01 0.000000e+00
         vertex 2.168887e+01 3.203008e+01 0.000000e+00
      endloop
   endfacet
   facet normal 0.000000e+00 -0.000000e+00 -1.000000e+00
      outer loop
         vertex 1.707084e+01 3.193219e+01 0.000000e+00
         vertex 1.907084e+01 3.393219e+01 0.000000e+00
         vertex 1.945280e+01 3.275662e+01 0.000000e+00
      endloop
   endfacet
   facet normal -0.000000e+00 0.000000e+00 -1.000000e+00
      outer loop
         vertex -1.931113e+01 3.583430e+01 0.000000e+00
         vertex 2.045280e+01 3.583430e+01 0.000000e+00
         vertex 1.945280e+01 3.510776e+01 0.000000e+00
      endloop
   endfacet
   facet normal 0.000000e+00 0.000000e+00 -1.000000e+00
      outer loop
         vertex 2.707084e+01 4.140729e+01 0.000000e+00
         vertex 2.268887e+01 3.510776e+01 0.000000e+00
         vertex 2.168887e+01 3.583430e+01 0.000000e+00
      endloop
   endfacet
   facet normal 0.000000e+00 0.000000e+00 -1.000000e+00
      outer loop
         vertex 2.707084e+01 1.407292e+00 0.000000e+00
         vertex 2.268887e+01 7.706821e+00 0.000000e+00
         vertex 2.307084e+01 8.882392e+00 0.000000e+00
      endloop
   endfacet
   facet normal 0.000000e+00 0.000000e+00 -1.000000e+00
      outer loop
         vertex 2.707084e+01 1.407292e+00 0.000000e+00
         vertex 2.045280e+01 6.980279e+00 0.000000e+00
         vertex 2.168887e+01 6.980279e+00 0.000000e+00
      endloop
   endfacet
   facet normal 1.315663e-15 4.274843e-16 -1.000000e+00
      outer loop
         vertex 1.707084e+01 1.088239e+01 -1.776357e-15
         vertex 1.907084e+01 8.882392e+00 0.000000e+00
         vertex 1.945280e+01 7.706821e+00 0.000000e+00
      endloop
   endfacet
   facet normal 5.051210e-16 -6.952395e-16 -1.000000e+00
      outer loop
         vertex 1.707084e+01 1.088239e+01 -1.776357e-15
         vertex 2.045280e+01 1.078450e+01 0.000000e+00
         vertex 1.945280e+01 1.005796e+01 0.000000e+00
      endloop
   endfacet
   facet normal 0.000000e+00 0.000000e+00 -1.000000e+00
      outer loop
         vertex 2.268887e+01 3.275662e+01 0.000000e+00
         vertex 2.268887e+01 1.005796e+01 0.000000e+00
         vertex 2.168887e+01 1.078450e+01 0.000000e+00
      endloop
   endfacet
   facet normal 0.000000e+00 0.000000e+00 -1.000000e+00
      outer loop
         vertex -1.592916e+01 1.088239e+01 0.000000e+00
         vertex -1.831113e+01 7.706821e+00 0.000000e+00
         vertex -1.792916e+01 8.882392e+00 0.000000e+00
      endloop
   endfacet
   facet normal 0.000000e+00 -0.000000e+00 -1.000000e+00
      outer loop
         vertex -2.592916e+01 1.407292e+00 0.000000e+00
         vertex -2.054720e+01 6.980279e+00 0.000000e+00
         vertex -1.931113e+01 6.980279e+00 0.000000e+00
      endloop
   endfacet
   facet normal 0.000000e+00 -0.000000e+00 -1.000000e+00
      outer loop
         vertex -2.592916e+01 1.407292e+00 0.000000e+00
         vertex -2.192916e+01 8.882392e+00 0.000000e+00
         vertex -2.154720e+01 7.706821e+00 0.000000e+00
      endloop
   endfacet
   facet normal -0.000000e+00 0.000000e+00 -1.000000e+00
      outer loop
         vertex -2.054720e+01 3.203008e+01 0.000000e+00
         vertex -2.054720e+01 1.078450e+01 0.000000e+00
         vertex -2.154720e+01 1.005796e+01 0.000000e+00
      endloop
   endfacet
   facet normal 0.000000e+00 0.000000e+00 -1.000000e+00
      outer loop
         vertex -1.592916e+01 1.088239e+01 0.000000e+00
         vertex -1.831113e+01 1.005796e+01 0.000000e+00
         vertex -1.931113e+01 1.078450e+01 0.000000e+00
      endloop
   endfacet
   facet normal 0.000000e+00 0.000000e+00 -1.000000e+00
      outer loop
         vertex -1.592916e+01 3.193219e+01 0.000000e+00
         vertex -1.831113e+01 3.275662e+01 0.000000e+00
         vertex -1.792916e+01 3.393219e+01 0.000000e+00
      endloop
   endfacet
   facet normal 0.000000e+00 0.000000e+00 -1.000000e+00
      outer loop
         vertex -2.054720e+01 1.078450e+01 0.000000e+00
         vertex -2.054720e+01 3.203008e+01 0.000000e+00
         vertex -1.931113e+01 3.203008e+01 0.000000e+00
      endloop
   endfacet
   facet normal -0.000000e+00 -0.000000e+00 -1.000000e+00
      outer loop
         vertex -2.592916e+01 4.140729e+01 0.000000e+00
         vertex -2.192916e+01 3.393219e+01 0.000000e+00
         vertex -2.154720e+01 3.275662e+01 0.000000e+00
      endloop
   endfacet
   facet normal -0.000000e+00 0.000000e+00 -1.000000e+00
      outer loop
         vertex -2.592916e+01 4.140729e+01 0.000000e+00
         vertex -2.054720e+01 3.583430e+01 0.000000e+00
         vertex -2.154720e+01 3.510776e+01 0.000000e+00
      endloop
   endfacet
   facet normal 0.000000e+00 0.000000e+00 -1.000000e+00
      outer loop
         vertex 1.945280e+01 3.510776e+01 0.000000e+00
         vertex -1.831113e+01 3.510776e+01 0.000000e+00
         vertex -1.931113e+01 3.583430e+01 0.000000e+00
      endloop
   endfacet
   facet normal 0.000000e+00 0.000000e+00 -1.000000e+00
      outer loop
         vertex -2.154720e+01 1.005796e+01 0.000000e+00
         vertex -2.592916e+01 1.407292e+00 0.000000e+00
         vertex -2.154720e+01 3.275662e+01 0.000000e+00
      endloop
   endfacet
   facet normal -0.000000e+00 0.000000e+00 -1.000000e+00
      outer loop
         vertex -1.831113e+01 3.510776e+01 0.000000e+00
         vertex 1.945280e+01 3.510776e+01 0.000000e+00
         vertex -1.592916e+01 3.193219e+01 0.000000e+00
      endloop
   endfacet
   facet normal 0.000000e+00 -0.000000e+00 -1.000000e+00
      outer loop
         vertex -1.831113e+01 7.706821e+00 0.000000e+00
         vertex -1.592916e+01 1.088239e+01 0.000000e+00
         vertex 1.945280e+01 7.706821e+00 0.000000e+00
      endloop
   endfacet
   facet normal 0.000000e+00 0.000000e+00 -1.000000e+00
      outer loop
         vertex 2.168887e+01 1.078450e+01 0.000000e+00
         vertex 2.045280e+01 1.078450e+01 0.000000e+00
         vertex 2.168887e+01 3.203008e+01 0.000000e+00
      endloop
   endfacet
   facet normal -0.000000e+00 0.000000e+00 -1.000000e+00
      outer loop
         vertex 1.945280e+01 3.510776e+01 0.000000e+00
         vertex 1.907084e+01 3.393219e+01 0.000000e+00
         vertex 1.707084e+01 3.193219e+01 0.000000e+00
      endloop
   endfacet
   facet normal 0.000000e+00 0.000000e+00 -1.000000e+00
      outer loop
         vertex 2.268887e+01 1.005796e+01 0.000000e+00
         vertex 2.707084e+01 1.407292e+00 0.000000e+00
         vertex 2.307084e+01 8.882392e+00 0.000000e+00
      endloop
   endfacet
   facet normal 0.000000e+00 -0.000000e+00 -1.000000e+00
      outer loop
         vertex -2.592916e+01 1.407292e+00 0.000000e+00
         vertex 2.045280e+01 6.980279e+00 0.000000e+00
         vertex 2.707084e+01 1.407292e+00 0.000000e+00
      endloop
   endfacet
   facet normal 5.276864e-16 8.438830e-17 -1.000000e+00
      outer loop
         vertex 1.707084e+01 3.193219e+01 0.000000e+00
         vertex 2.045280e+01 1.078450e+01 0.000000e+00
         vertex 1.707084e+01 1.088239e+01 -1.776357e-15
      endloop
   endfacet
   facet normal 0.000000e+00 0.000000e+00 -1.000000e+00
      outer loop
         vertex -1.831113e+01 1.005796e+01 0.000000e+00
         vertex -1.592916e+01 1.088239e+01 0.000000e+00
         vertex -1.792916e+01 8.882392e+00 0.000000e+00
      endloop
   endfacet
   facet normal 0.000000e+00 0.000000e+00 -1.000000e+00
      outer loop
         vertex -2.054720e+01 6.980279e+00 0.000000e+00
         vertex -2.592916e+01 1.407292e+00 0.000000e+00
         vertex -2.154720e+01 7.706821e+00 0.000000e+00
      endloop
   endfacet
   facet normal 0.000000e+00 0.000000e+00 -1.000000e+00
      outer loop
         vertex -1.831113e+01 3.510776e+01 0.000000e+00
         vertex -1.592916e+01 3.193219e+01 0.000000e+00
         vertex -1.792916e+01 3.393219e+01 0.000000e+00
      endloop
   endfacet
   facet normal 0.000000e+00 0.000000e+00 -1.000000e+00
      outer loop
         vertex -2.154720e+01 3.510776e+01 0.000000e+00
         vertex -2.192916e+01 3.393219e+01 0.000000e+00
         vertex -2.592916e+01 4.140729e+01 0.000000e+00
      endloop
   endfacet
   facet normal 0.000000e+00 0.000000e+00 -1.000000e+00
      outer loop
         vertex -2.192916e+01 8.882392e+00 0.000000e+00
         vertex -2.592916e+01 1.407292e+00 0.000000e+00
         vertex -2.154720e+01 1.005796e+01 0.000000e+00
      endloop
   endfacet
   facet normal -0.000000e+00 0.000000e+00 -1.000000e+00
      outer loop
         vertex -1.931113e+01 6.980279e+00 0.000000e+00
         vertex 2.045280e+01 6.980279e+00 0.000000e+00
         vertex -2.592916e+01 1.407292e+00 0.000000e+00
      endloop
   endfacet
   facet normal 0.000000e+00 0.000000e+00 -1.000000e+00
      outer loop
         vertex 2.045280e+01 3.583430e+01 0.000000e+00
         vertex -2.592916e+01 4.140729e+01 0.000000e+00
         vertex 2.707084e+01 4.140729e+01 0.000000e+00
      endloop
   endfacet
   facet normal 0.000000e+00 0.000000e+00 -1.000000e+00
      outer loop
         vertex 2.168887e+01 1.078450e+01 0.000000e+00
         vertex 2.168887e+01 3.203008e+01 0.000000e+00
         vertex 2.268887e+01 3.275662e+01 0.000000e+00
      endloop
   endfacet
   facet normal 0.000000e+00 0.000000e+00 -1.000000e+00
      outer loop
         vertex 2.707084e+01 4.140729e+01 0.000000e+00
         vertex 2.168887e+01 3.583430e+01 0.000000e+00
         vertex 2.045280e+01 3.583430e+01 0.000000e+00
      endloop
   endfacet
   facet normal 0.000000e+00 0.000000e+00 -1.000000e+00
      outer loop
         vertex 2.707084e+01 1.407292e+00 0.000000e+00
         vertex 2.168887e+01 6.980279e+00 0.000000e+00
         vertex 2.268887e+01 7.706821e+00 0.000000e+00
      endloop
   endfacet
   facet normal 6.703641e-16 -2.178143e-16 -1.000000e+00
      outer loop
         vertex 1.707084e+01 1.088239e+01 -1.776357e-15
         vertex 1.945280e+01 1.005796e+01 0.000000e+00
         vertex 1.907084e+01 8.882392e+00 0.000000e+00
      endloop
   endfacet
   facet normal 0.000000e+00 0.000000e+00 -1.000000e+00
      outer loop
         vertex -1.931113e+01 3.203008e+01 0.000000e+00
         vertex -1.931113e+01 1.078450e+01 0.000000e+00
         vertex -2.054720e+01 1.078450e+01 0.000000e+00
      endloop
   endfacet
   facet normal 0.000000e+00 0.000000e+00 -1.000000e+00
      outer loop
         vertex -2.154720e+01 1.005796e+01 0.000000e+00
         vertex -2.154720e+01 3.275662e+01 0.000000e+00
         vertex -2.054720e+01 3.203008e+01 0.000000e+00
      endloop
   endfacet
   facet normal 0.000000e+00 0.000000e+00 -1.000000e+00
      outer loop
         vertex 2.268887e+01 1.005796e+01 0.000000e+00
         vertex 2.268887e+01 3.275662e+01 0.000000e+00
         vertex 2.707084e+01 1.407292e+00 0.000000e+00
      endloop
   endfacet
   facet normal 0.000000e+00 -0.000000e+00 -1.000000e+00
      outer loop
         vertex 1.707084e+01 3.193219e+01 0.000000e+00
         vertex 2.045280e+01 3.203008e+01 0.000000e+00
         vertex 2.045280e+01 1.078450e+01 0.000000e+00
      endloop
   endfacet
   facet normal 0.000000e+00 0.000000e+00 -1.000000e+00
      outer loop
         vertex -2.592916e+01 4.140729e+01 0.000000e+00
         vertex 2.045280e+01 3.583430e+01 0.000000e+00
         vertex -1.931113e+01 3.583430e+01 0.000000e+00
      endloop
   endfacet
   facet normal -0.000000e+00 0.000000e+00 -1.000000e+00
      outer loop
         vertex -1.592916e+01 3.193219e+01 0.000000e+00
         vertex -1.592916e+01 1.088239e+01 0.000000e+00
         vertex -1.931113e+01 1.078450e+01 0.000000e+00
      endloop
   endfacet
   facet normal 0.000000e+00 0.000000e+00 -1.000000e+00
      outer loop
         vertex 2.045280e+01 6.980279e+00 0.000000e+00
         vertex -1.831113e+01 7.706821e+00 0.000000e+00
         vertex 1.945280e+01 7.706821e+00 0.000000e+00
      endloop
   endfacet
   facet normal -0.000000e+00 0.000000e+00 -1.000000e+00
      outer loop
         vertex 1.945280e+01 3.275662e+01 0.000000e+00
         vertex 2.045280e+01 3.203008e+01 0.000000e+00
         vertex 1.707084e+01 3.193219e+01 0.000000e+00
      endloop
   endfacet
   facet normal 0.000000e+00 0.000000e+00 -1.000000e+00
      outer loop
         vertex 2.707084e+01 4.140729e+01 0.000000e+00
         vertex 2.307084e+01 3.393219e+01 0.000000e+00
         vertex 2.268887e+01 3.510776e+01 0.000000e+00
      endloop
   endfacet
   facet normal 0.000000e+00 0.000000e+00 -1.000000e+00
      outer loop
         vertex -1.592916e+01 3.193219e+01 0.000000e+00
         vertex -1.931113e+01 3.203008e+01 0.000000e+00
         vertex -1.831113e+01 3.275662e+01 0.000000e+00
      endloop
   endfacet
   facet normal 0.000000e+00 0.000000e+00 -1.000000e+00
      outer loop
         vertex -1.931113e+01 3.583430e+01 0.000000e+00
         vertex -2.054720e+01 3.583430e+01 0.000000e+00
         vertex -2.592916e+01 4.140729e+01 0.000000e+00
      endloop
   endfacet
   facet normal -0.000000e+00 0.000000e+00 -1.000000e+00
      outer loop
         vertex -1.931113e+01 3.203008e+01 0.000000e+00
         vertex -1.592916e+01 3.193219e+01 0.000000e+00
         vertex -1.931113e+01 1.078450e+01 0.000000e+00
      endloop
   endfacet
   facet normal 0.000000e+00 0.000000e+00 -1.000000e+00
      outer loop
         vertex 2.045280e+01 6.980279e+00 0.000000e+00
         vertex -1.931113e+01 6.980279e+00 0.000000e+00
         vertex -1.831113e+01 7.706821e+00 0.000000e+00
      endloop
   endfacet
   facet normal 0.000000e+00 -1.000000e+00 0.000000e+00
      outer loop
         vertex 1.707084e+01 3.193219e+01 3.000000e+00
         vertex -1.592916e+01 3.193219e+01 3.000000e+00
         vertex -1.592916e+01 3.193219e+01 0.000000e+00
      endloop
   endfacet
   facet normal 0.000000e+00 -1.000000e+00 0.000000e+00
      outer loop
         vertex 1.707084e+01 3.193219e+01 3.000000e+00
         vertex -1.592916e+01 3.193219e+01 0.000000e+00
         vertex 1.707084e+01 3.193219e+01 0.000000e+00
      endloop
   endfacet
   facet normal -1.000000e+00 -0.000000e+00 -0.000000e+00
      outer loop
         vertex 1.707084e+01 1.088239e+01 3.000000e+00
         vertex 1.707084e+01 3.193219e+01 3.000000e+00
         vertex 1.707084e+01 3.193219e+01 0.000000e+00
      endloop
   endfacet
   facet normal -1.000000e+00 -0.000000e+00 0.000000e+00
      outer loop
         vertex 1.707084e+01 1.088239e+01 3.000000e+00
         vertex 1.707084e+01 3.193219e+01 0.000000e+00
         vertex 1.707084e+01 1.088239e+01 -1.776357e-15
      endloop
   endfacet
   facet normal 0.000000e+00 1.000000e+00 0.000000e+00
      outer loop
         vertex -1.592916e+01 1.088239e+01 3.000000e+00
         vertex 1.707084e+01 1.088239e+01 3.000000e+00
         vertex 1.707084e+01 1.088239e+01 -1.776357e-15
      endloop
   endfacet
   facet normal 0.000000e+00 1.000000e+00 0.000000e+00
      outer loop
         vertex -1.592916e+01 1.088239e+01 3.000000e+00
         vertex 1.707084e+01 1.088239e+01 -1.776357e-15
         vertex -1.592916e+01 1.088239e+01 0.000000e+00
      endloop
   endfacet
   facet normal 1.000000e+00 -0.000000e+00 0.000000e+00
      outer loop
         vertex -1.592916e+01 3.193219e+01 3.000000e+00
         vertex -1.592916e+01 1.088239e+01 3.000000e+00
         vertex -1.592916e+01 1.088239e+01 0.000000e+00
      endloop
   endfacet
   facet normal 1.000000e+00 0.000000e+00 0.000000e+00
      outer loop
         vertex -1.592916e+01 3.193219e+01 3.000000e+00
         vertex -1.592916e+01 1.088239e+01 0.000000e+00
         vertex -1.592916e+01 3.193219e+01 0.000000e+00
      endloop
   endfacet
   facet normal -1.000000e+00 0.000000e+00 0.000000e+00
      outer loop
         vertex -2.592916e+01 4.140729e+01 3.000000e+00
         vertex -2.592916e+01 4.140729e+01 0.000000e+00
         vertex -2.592916e+01 1.407292e+00 0.000000e+00
      endloop
   endfacet
   facet normal -1.000000e+00 -0.000000e+00 0.000000e+00
      outer loop
         vertex -2.592916e+01 1.407292e+00 3.000000e+00
         vertex -2.592916e+01 4.140729e+01 3.000000e+00
         vertex -2.592916e+01 1.407292e+00 0.000000e+00
      endloop
   endfacet
   facet normal 0.000000e+00 -1.000000e+00 0.000000e+00
      outer loop
         vertex -2.592916e+01 1.407292e+00 3.000000e+00
         vertex -2.592916e+01 1.407292e+00 0.000000e+00
         vertex 2.707084e+01 1.407292e+00 0.000000e+00
      endloop
   endfacet
   facet normal 0.000000e+00 -1.000000e+00 0.000000e+00
      outer loop
         vertex 2.707084e+01 1.407292e+00 3.000000e+00
         vertex -2.592916e+01 1.407292e+00 3.000000e+00
         vertex 2.707084e+01 1.407292e+00 0.000000e+00
      endloop
   endfacet
   facet normal 1.000000e+00 0.000000e+00 0.000000e+00
      outer loop
         vertex 2.707084e+01 1.407292e+00 3.000000e+00
         vertex 2.707084e+01 1.407292e+00 0.000000e+00
         vertex 2.707084e+01 4.140729e+01 0.000000e+00
      endloop
   endfacet
   facet normal 1.000000e+00 -0.000000e+00 0.000000e+00
      outer loop
         vertex 2.707084e+01 4.140729e+01 3.000000e+00
         vertex 2.707084e+01 1.407292e+00 3.000000e+00
         vertex 2.707084e+01 4.140729e+01 0.000000e+00
      endloop
   endfacet
   facet normal 0.000000e+00 1.000000e+00 -0.000000e+00
      outer loop
         vertex 2.707084e+01 4.140729e+01 3.000000e+00
         vertex 2.707084e+01 4.140729e+01 0.000000e+00
         vertex -2.592916e+01 4.140729e+01 0.000000e+00
      endloop
   endfacet
   facet normal 0.000000e+00 1.000000e+00 0.000000e+00
      outer loop
         vertex -2.592916e+01 4.140729e+01 3.000000e+00
         vertex 2.707084e+01 4.140729e+01 3.000000e+00
         vertex -2.592916e+01 4.140729e+01 0.000000e+00
      endloop
   endfacet
   facet normal -9.510567e-01 -3.090165e-01 0.000000e+00
      outer loop
         vertex 2.268887e+01 3.510776e+01 0.000000e+00
         vertex 2.307084e+01 3.393219e+01 0.000000e+00
         vertex 2.307084e+01 3.393219e+01 3.000000e+00
      endloop
   endfacet
   facet normal 0.000000e+00 -1.000000e+00 0.000000e+00
      outer loop
         vertex 2.045280e+01 3.583430e+01 3.000000e+00
         vertex 2.045280e+01 3.583430e+01 0.000000e+00
         vertex 2.168887e+01 3.583430e+01 0.000000e+00
      endloop
   endfacet
   facet normal 9.510567e-01 -3.090165e-01 0.000000e+00
      outer loop
         vertex 1.907084e+01 3.393219e+01 3.000000e+00
         vertex 1.907084e+01 3.393219e+01 0.000000e+00
         vertex 1.945280e+01 3.510776e+01 0.000000e+00
      endloop
   endfacet
   facet normal 5.877857e-01 8.090166e-01 -0.000000e+00
      outer loop
         vertex 2.045280e+01 3.203008e+01 3.000000e+00
         vertex 2.045280e+01 3.203008e+01 0.000000e+00
         vertex 1.945280e+01 3.275662e+01 0.000000e+00
      endloop
   endfacet
   facet normal -5.877857e-01 8.090166e-01 0.000000e+00
      outer loop
         vertex 2.268887e+01 3.275662e+01 3.000000e+00
         vertex 2.268887e+01 3.275662e+01 0.000000e+00
         vertex 2.168887e+01 3.203008e+01 0.000000e+00
      endloop
   endfacet
   facet normal -9.510564e-01 3.090174e-01 0.000000e+00
      outer loop
         vertex 2.268887e+01 3.275662e+01 0.000000e+00
         vertex 2.307084e+01 3.393219e+01 3.000000e+00
         vertex 2.307084e+01 3.393219e+01 0.000000e+00
      endloop
   endfacet
   facet normal -0.000000e+00 1.000000e+00 0.000000e+00
      outer loop
         vertex 2.045280e+01 3.203008e+01 0.000000e+00
         vertex 2.045280e+01 3.203008e+01 3.000000e+00
         vertex 2.168887e+01 3.203008e+01 3.000000e+00
      endloop
   endfacet
   facet normal 9.510564e-01 3.090174e-01 0.000000e+00
      outer loop
         vertex 1.907084e+01 3.393219e+01 0.000000e+00
         vertex 1.907084e+01 3.393219e+01 3.000000e+00
         vertex 1.945280e+01 3.275662e+01 3.000000e+00
      endloop
   endfacet
   facet normal 5.877857e-01 -8.090166e-01 0.000000e+00
      outer loop
         vertex 2.045280e+01 3.583430e+01 0.000000e+00
         vertex 2.045280e+01 3.583430e+01 3.000000e+00
         vertex 1.945280e+01 3.510776e+01 3.000000e+00
      endloop
   endfacet
   facet normal -5.877857e-01 -8.090166e-01 -0.000000e+00
      outer loop
         vertex 2.268887e+01 3.510776e+01 0.000000e+00
         vertex 2.268887e+01 3.510776e+01 3.000000e+00
         vertex 2.168887e+01 3.583430e+01 3.000000e+00
      endloop
   endfacet
   facet normal -9.510567e-01 -3.090165e-01 0.000000e+00
      outer loop
         vertex 2.268887e+01 3.510776e+01 3.000000e+00
         vertex 2.268887e+01 3.510776e+01 0.000000e+00
         vertex 2.307084e+01 3.393219e+01 3.000000e+00
      endloop
   endfacet
   facet normal 5.877857e-01 8.090166e-01 0.000000e+00
      outer loop
         vertex 1.945280e+01 3.275662e+01 3.000000e+00
         vertex 2.045280e+01 3.203008e+01 3.000000e+00
         vertex 1.945280e+01 3.275662e+01 0.000000e+00
      endloop
   endfacet
   facet normal -9.510564e-01 3.090174e-01 0.000000e+00
      outer loop
         vertex 2.268887e+01 3.275662e+01 3.000000e+00
         vertex 2.307084e+01 3.393219e+01 3.000000e+00
         vertex 2.268887e+01 3.275662e+01 0.000000e+00
      endloop
   endfacet
   facet normal -5.877857e-01 -8.090166e-01 0.000000e+00
      outer loop
         vertex 2.168887e+01 3.583430e+01 0.000000e+00
         vertex 2.268887e+01 3.510776e+01 0.000000e+00
         vertex 2.168887e+01 3.583430e+01 3.000000e+00
      endloop
   endfacet
   facet normal 5.877857e-01 -8.090166e-01 0.000000e+00
      outer loop
         vertex 1.945280e+01 3.510776e+01 3.000000e+00
         vertex 1.945280e+01 3.510776e+01 0.000000e+00
         vertex 2.045280e+01 3.583430e+01 0.000000e+00
      endloop
   endfacet
   facet normal 0.000000e+00 1.000000e+00 -0.000000e+00
      outer loop
         vertex 2.168887e+01 3.203008e+01 3.000000e+00
         vertex 2.168887e+01 3.203008e+01 0.000000e+00
         vertex 2.045280e+01 3.203008e+01 0.000000e+00
      endloop
   endfacet
   facet normal 9.510567e-01 -3.090165e-01 0.000000e+00
      outer loop
         vertex 1.945280e+01 3.510776e+01 0.000000e+00
         vertex 1.945280e+01 3.510776e+01 3.000000e+00
         vertex 1.907084e+01 3.393219e+01 3.000000e+00
      endloop
   endfacet
   facet normal 0.000000e+00 -1.000000e+00 0.000000e+00
      outer loop
         vertex 2.168887e+01 3.583430e+01 3.000000e+00
         vertex 2.045280e+01 3.583430e+01 3.000000e+00
         vertex 2.168887e+01 3.583430e+01 0.000000e+00
      endloop
   endfacet
   facet normal 9.510564e-01 3.090174e-01 0.000000e+00
      outer loop
         vertex 1.907084e+01 3.393219e+01 0.000000e+00
         vertex 1.945280e+01 3.275662e+01 3.000000e+00
         vertex 1.945280e+01 3.275662e+01 0.000000e+00
      endloop
   endfacet
   facet normal -5.877857e-01 8.090166e-01 0.000000e+00
      outer loop
         vertex 2.168887e+01 3.203008e+01 0.000000e+00
         vertex 2.168887e+01 3.203008e+01 3.000000e+00
         vertex 2.268887e+01 3.275662e+01 3.000000e+00
      endloop
   endfacet
   facet normal -9.510566e-01 -3.090167e-01 0.000000e+00
      outer loop
         vertex 2.268887e+01 1.005796e+01 0.000000e+00
         vertex 2.307084e+01 8.882392e+00 0.000000e+00
         vertex 2.307084e+01 8.882392e+00 3.000000e+00
      endloop
   endfacet
   facet normal 0.000000e+00 -1.000000e+00 0.000000e+00
      outer loop
         vertex 2.045280e+01 1.078450e+01 3.000000e+00
         vertex 2.045280e+01 1.078450e+01 0.000000e+00
         vertex 2.168887e+01 1.078450e+01 0.000000e+00
      endloop
   endfacet
   facet normal 9.510566e-01 -3.090167e-01 0.000000e+00
      outer loop
         vertex 1.907084e+01 8.882392e+00 3.000000e+00
         vertex 1.907084e+01 8.882392e+00 0.000000e+00
         vertex 1.945280e+01 1.005796e+01 0.000000e+00
      endloop
   endfacet
   facet normal 5.877852e-01 8.090170e-01 -0.000000e+00
      outer loop
         vertex 2.045280e+01 6.980279e+00 3.000000e+00
         vertex 2.045280e+01 6.980279e+00 0.000000e+00
         vertex 1.945280e+01 7.706821e+00 0.000000e+00
      endloop
   endfacet
   facet normal -5.877852e-01 8.090170e-01 0.000000e+00
      outer loop
         vertex 2.268887e+01 7.706821e+00 3.000000e+00
         vertex 2.268887e+01 7.706821e+00 0.000000e+00
         vertex 2.168887e+01 6.980279e+00 0.000000e+00
      endloop
   endfacet
   facet normal -9.510566e-01 3.090167e-01 0.000000e+00
      outer loop
         vertex 2.268887e+01 7.706821e+00 0.000000e+00
         vertex 2.307084e+01 8.882392e+00 3.000000e+00
         vertex 2.307084e+01 8.882392e+00 0.000000e+00
      endloop
   endfacet
   facet normal -0.000000e+00 1.000000e+00 0.000000e+00
      outer loop
         vertex 2.045280e+01 6.980279e+00 0.000000e+00
         vertex 2.045280e+01 6.980279e+00 3.000000e+00
         vertex 2.168887e+01 6.980279e+00 3.000000e+00
      endloop
   endfacet
   facet normal 9.510566e-01 3.090167e-01 0.000000e+00
      outer loop
         vertex 1.907084e+01 8.882392e+00 0.000000e+00
         vertex 1.907084e+01 8.882392e+00 3.000000e+00
         vertex 1.945280e+01 7.706821e+00 3.000000e+00
      endloop
   endfacet
   facet normal 5.877852e-01 -8.090170e-01 0.000000e+00
      outer loop
         vertex 2.045280e+01 1.078450e+01 0.000000e+00
         vertex 2.045280e+01 1.078450e+01 3.000000e+00
         vertex 1.945280e+01 1.005796e+01 3.000000e+00
      endloop
   endfacet
   facet normal -5.877852e-01 -8.090170e-01 -0.000000e+00
      outer loop
         vertex 2.268887e+01 1.005796e+01 0.000000e+00
         vertex 2.268887e+01 1.005796e+01 3.000000e+00
         vertex 2.168887e+01 1.078450e+01 3.000000e+00
      endloop
   endfacet
   facet normal -9.510566e-01 -3.090167e-01 0.000000e+00
      outer loop
         vertex 2.268887e+01 1.005796e+01 3.000000e+00
         vertex 2.268887e+01 1.005796e+01 0.000000e+00
         vertex 2.307084e+01 8.882392e+00 3.000000e+00
      endloop
   endfacet
   facet normal 5.877852e-01 8.090170e-01 0.000000e+00
      outer loop
         vertex 1.945280e+01 7.706821e+00 3.000000e+00
         vertex 2.045280e+01 6.980279e+00 3.000000e+00
         vertex 1.945280e+01 7.706821e+00 0.000000e+00
      endloop
   endfacet
   facet normal -9.510566e-01 3.090167e-01 0.000000e+00
      outer loop
         vertex 2.268887e+01 7.706821e+00 3.000000e+00
         vertex 2.307084e+01 8.882392e+00 3.000000e+00
         vertex 2.268887e+01 7.706821e+00 0.000000e+00
      endloop
   endfacet
   facet normal -5.877852e-01 -8.090170e-01 0.000000e+00
      outer loop
         vertex 2.168887e+01 1.078450e+01 0.000000e+00
         vertex 2.268887e+01 1.005796e+01 0.000000e+00
         vertex 2.168887e+01 1.078450e+01 3.000000e+00
      endloop
   endfacet
   facet normal 5.877852e-01 -8.090170e-01 0.000000e+00
      outer loop
         vertex 1.945280e+01 1.005796e+01 3.000000e+00
         vertex 1.945280e+01 1.005796e+01 0.000000e+00
         vertex 2.045280e+01 1.078450e+01 0.000000e+00
      endloop
   endfacet
   facet normal 0.000000e+00 1.000000e+00 -0.000000e+00
      outer loop
         vertex 2.168887e+01 6.980279e+00 3.000000e+00
         vertex 2.168887e+01 6.980279e+00 0.000000e+00
         vertex 2.045280e+01 6.980279e+00 0.000000e+00
      endloop
   endfacet
   facet normal 9.510566e-01 -3.090167e-01 0.000000e+00
      outer loop
         vertex 1.945280e+01 1.005796e+01 0.000000e+00
         vertex 1.945280e+01 1.005796e+01 3.000000e+00
         vertex 1.907084e+01 8.882392e+00 3.000000e+00
      endloop
   endfacet
   facet normal 0.000000e+00 -1.000000e+00 0.000000e+00
      outer loop
         vertex 2.168887e+01 1.078450e+01 3.000000e+00
         vertex 2.045280e+01 1.078450e+01 3.000000e+00
         vertex 2.168887e+01 1.078450e+01 0.000000e+00
      endloop
   endfacet
   facet normal 9.510566e-01 3.090167e-01 0.000000e+00
      outer loop
         vertex 1.907084e+01 8.882392e+00 0.000000e+00
         vertex 1.945280e+01 7.706821e+00 3.000000e+00
         vertex 1.945280e+01 7.706821e+00 0.000000e+00
      endloop
   endfacet
   facet normal -5.877852e-01 8.090170e-01 0.000000e+00
      outer loop
         vertex 2.168887e+01 6.980279e+00 0.000000e+00
         vertex 2.168887e+01 6.980279e+00 3.000000e+00
         vertex 2.268887e+01 7.706821e+00 3.000000e+00
      endloop
   endfacet
   facet normal -9.510566e-01 -3.090167e-01 0.000000e+00
      outer loop
         vertex -1.831113e+01 1.005796e+01 0.000000e+00
         vertex -1.792916e+01 8.882392e+00 0.000000e+00
         vertex -1.792916e+01 8.882392e+00 3.000000e+00
      endloop
   endfacet
   facet normal 0.000000e+00 -1.000000e+00 0.000000e+00
      outer loop
         vertex -2.054720e+01 1.078450e+01 3.000000e+00
         vertex -2.054720e+01 1.078450e+01 0.000000e+00
         vertex -1.931113e+01 1.078450e+01 0.000000e+00
      endloop
   endfacet
   facet normal 9.510566e-01 -3.090167e-01 0.000000e+00
      outer loop
         vertex -2.192916e+01 8.882392e+00 3.000000e+00
         vertex -2.192916e+01 8.882392e+00 0.000000e+00
         vertex -2.154720e+01 1.005796e+01 0.000000e+00
      endloop
   endfacet
   facet normal 5.877852e-01 8.090170e-01 -0.000000e+00
      outer loop
         vertex -2.054720e+01 6.980279e+00 3.000000e+00
         vertex -2.054720e+01 6.980279e+00 0.000000e+00
         vertex -2.154720e+01 7.706821e+00 0.000000e+00
      endloop
   endfacet
   facet normal -5.877852e-01 8.090170e-01 0.000000e+00
      outer loop
         vertex -1.831113e+01 7.706821e+00 3.000000e+00
         vertex -1.831113e+01 7.706821e+00 0.000000e+00
         vertex -1.931113e+01 6.980279e+00 0.000000e+00
      endloop
   endfacet
   facet normal -9.510566e-01 3.090167e-01 0.000000e+00
      outer loop
         vertex -1.831113e+01 7.706821e+00 0.000000e+00
         vertex -1.792916e+01 8.882392e+00 3.000000e+00
         vertex -1.792916e+01 8.882392e+00 0.000000e+00
      endloop
   endfacet
   facet normal -0.000000e+00 1.000000e+00 0.000000e+00
      outer loop
         vertex -2.054720e+01 6.980279e+00 0.000000e+00
         vertex -2.054720e+01 6.980279e+00 3.000000e+00
         vertex -1.931113e+01 6.980279e+00 3.000000e+00
      endloop
   endfacet
   facet normal 9.510566e-01 3.090167e-01 0.000000e+00
      outer loop
         vertex -2.192916e+01 8.882392e+00 0.000000e+00
         vertex -2.192916e+01 8.882392e+00 3.000000e+00
         vertex -2.154720e+01 7.706821e+00 3.000000e+00
      endloop
   endfacet
   facet normal 5.877852e-01 -8.090170e-01 0.000000e+00
      outer loop
         vertex -2.054720e+01 1.078450e+01 0.000000e+00
         vertex -2.054720e+01 1.078450e+01 3.000000e+00
         vertex -2.154720e+01 1.005796e+01 3.000000e+00
      endloop
   endfacet
   facet normal -5.877852e-01 -8.090170e-01 -0.000000e+00
      outer loop
         vertex -1.831113e+01 1.005796e+01 0.000000e+00
         vertex -1.831113e+01 1.005796e+01 3.000000e+00
         vertex -1.931113e+01 1.078450e+01 3.000000e+00
      endloop
   endfacet
   facet normal -9.510566e-01 -3.090167e-01 0.000000e+00
      outer loop
         vertex -1.831113e+01 1.005796e+01 3.000000e+00
         vertex -1.831113e+01 1.005796e+01 0.000000e+00
         vertex -1.792916e+01 8.882392e+00 3.000000e+00
      endloop
   endfacet
   facet normal 5.877852e-01 8.090170e-01 0.000000e+00
      outer loop
         vertex -2.154720e+01 7.706821e+00 3.000000e+00
         vertex -2.054720e+01 6.980279e+00 3.000000e+00
         vertex -2.154720e+01 7.706821e+00 0.000000e+00
      endloop
   endfacet
   facet normal -9.510566e-01 3.090167e-01 0.000000e+00
      outer loop
         vertex -1.831113e+01 7.706821e+00 3.000000e+00
         vertex -1.792916e+01 8.882392e+00 3.000000e+00
         vertex -1.831113e+01 7.706821e+00 0.000000e+00
      endloop
   endfacet
   facet normal -5.877852e-01 -8.090170e-01 0.000000e+00
      outer loop
         vertex -1.931113e+01 1.078450e+01 0.000000e+00
         vertex -1.831113e+01 1.005796e+01 0.000000e+00
         vertex -1.931113e+01 1.078450e+01 3.000000e+00
      endloop
   endfacet
   facet normal 5.877852e-01 -8.090170e-01 0.000000e+00
      outer loop
         vertex -2.154720e+01 1.005796e+01 3.000000e+00
         vertex -2.154720e+01 1.005796e+01 0.000000e+00
         vertex -2.054720e+01 1.078450e+01 0.000000e+00
      endloop
   endfacet
   facet normal 0.000000e+00 1.000000e+00 -0.000000e+00
      outer loop
         vertex -1.931113e+01 6.980279e+00 3.000000e+00
         vertex -1.931113e+01 6.980279e+00 0.000000e+00
         vertex -2.054720e+01 6.980279e+00 0.000000e+00
      endloop
   endfacet
   facet normal 9.510566e-01 -3.090167e-01 0.000000e+00
      outer loop
         vertex -2.154720e+01 1.005796e+01 0.000000e+00
         vertex -2.154720e+01 1.005796e+01 3.000000e+00
         vertex -2.192916e+01 8.882392e+00 3.000000e+00
      endloop
   endfacet
   facet normal 0.000000e+00 -1.000000e+00 0.000000e+00
      outer loop
         vertex -1.931113e+01 1.078450e+01 3.000000e+00
         vertex -2.054720e+01 1.078450e+01 3.000000e+00
         vertex -1.931113e+01 1.078450e+01 0.000000e+00
      endloop
   endfacet
   facet normal 9.510566e-01 3.090167e-01 0.000000e+00
      outer loop
         vertex -2.192916e+01 8.882392e+00 0.000000e+00
         vertex -2.154720e+01 7.706821e+00 3.000000e+00
         vertex -2.154720e+01 7.706821e+00 0.000000e+00
      endloop
   endfacet
   facet normal -5.877852e-01 8.090170e-01 0.000000e+00
      outer loop
         vertex -1.931113e+01 6.980279e+00 0.000000e+00
         vertex -1.931113e+01 6.980279e+00 3.000000e+00
         vertex -1.831113e+01 7.706821e+00 3.000000e+00
      endloop
   endfacet
   facet normal -9.510567e-01 -3.090165e-01 0.000000e+00
      outer loop
         vertex -1.831113e+01 3.510776e+01 0.000000e+00
         vertex -1.792916e+01 3.393219e+01 0.000000e+00
         vertex -1.792916e+01 3.393219e+01 3.000000e+00
      endloop
   endfacet
   facet normal 0.000000e+00 -1.000000e+00 0.000000e+00
      outer loop
         vertex -2.054720e+01 3.583430e+01 3.000000e+00
         vertex -2.054720e+01 3.583430e+01 0.000000e+00
         vertex -1.931113e+01 3.583430e+01 0.000000e+00
      endloop
   endfacet
   facet normal 9.510567e-01 -3.090165e-01 0.000000e+00
      outer loop
         vertex -2.192916e+01 3.393219e+01 3.000000e+00
         vertex -2.192916e+01 3.393219e+01 0.000000e+00
         vertex -2.154720e+01 3.510776e+01 0.000000e+00
      endloop
   endfacet
   facet normal 5.877857e-01 8.090166e-01 -0.000000e+00
      outer loop
         vertex -2.054720e+01 3.203008e+01 3.000000e+00
         vertex -2.054720e+01 3.203008e+01 0.000000e+00
         vertex -2.154720e+01 3.275662e+01 0.000000e+00
      endloop
   endfacet
   facet normal -5.877857e-01 8.090166e-01 0.000000e+00
      outer loop
         vertex -1.831113e+01 3.275662e+01 3.000000e+00
         vertex -1.831113e+01 3.275662e+01 0.000000e+00
         vertex -1.931113e+01 3.203008e+01 0.000000e+00
      endloop
   endfacet
   facet normal -9.510564e-01 3.090174e-01 0.000000e+00
      outer loop
         vertex -1.831113e+01 3.275662e+01 0.000000e+00
         vertex -1.792916e+01 3.393219e+01 3.000000e+00
         vertex -1.792916e+01 3.393219e+01 0.000000e+00
      endloop
   endfacet
   facet normal -0.000000e+00 1.000000e+00 0.000000e+00
      outer loop
         vertex -2.054720e+01 3.203008e+01 0.000000e+00
         vertex -2.054720e+01 3.203008e+01 3.000000e+00
         vertex -1.931113e+01 3.203008e+01 3.000000e+00
      endloop
   endfacet
   facet normal 9.510564e-01 3.090174e-01 0.000000e+00
      outer loop
         vertex -2.192916e+01 3.393219e+01 0.000000e+00
         vertex -2.192916e+01 3.393219e+01 3.000000e+00
         vertex -2.154720e+01 3.275662e+01 3.000000e+00
      endloop
   endfacet
   facet normal 5.877857e-01 -8.090166e-01 0.000000e+00
      outer loop
         vertex -2.054720e+01 3.583430e+01 0.000000e+00
         vertex -2.054720e+01 3.583430e+01 3.000000e+00
         vertex -2.154720e+01 3.510776e+01 3.000000e+00
      endloop
   endfacet
   facet normal -5.877857e-01 -8.090166e-01 -0.000000e+00
      outer loop
         vertex -1.831113e+01 3.510776e+01 0.000000e+00
         vertex -1.831113e+01 3.510776e+01 3.000000e+00
         vertex -1.931113e+01 3.583430e+01 3.000000e+00
      endloop
   endfacet
   facet normal -9.510567e-01 -3.090165e-01 0.000000e+00
      outer loop
         vertex -1.831113e+01 3.510776e+01 3.000000e+00
         vertex -1.831113e+01 3.510776e+01 0.000000e+00
         vertex -1.792916e+01 3.393219e+01 3.000000e+00
      endloop
   endfacet
   facet normal 5.877857e-01 8.090166e-01 0.000000e+00
      outer loop
         vertex -2.154720e+01 3.275662e+01 3.000000e+00
         vertex -2.054720e+01 3.203008e+01 3.000000e+00
         vertex -2.154720e+01 3.275662e+01 0.000000e+00
      endloop
   endfacet
   facet normal -9.510564e-01 3.090174e-01 0.000000e+00
      outer loop
         vertex -1.831113e+01 3.275662e+01 3.000000e+00
         vertex -1.792916e+01 3.393219e+01 3.000000e+00
         vertex -1.831113e+01 3.275662e+01 0.000000e+00
      endloop
   endfacet
   facet normal -5.877857e-01 -8.090166e-01 0.000000e+00
      outer loop
         vertex -1.931113e+01 3.583430e+01 0.000000e+00
         vertex -1.831113e+01 3.510776e+01 0.000000e+00
         vertex -1.931113e+01 3.583430e+01 3.000000e+00
      endloop
   endfacet
   facet normal 5.877857e-01 -8.090166e-01 0.000000e+00
      outer loop
         vertex -2.154720e+01 3.510776e+01 3.000000e+00
         vertex -2.154720e+01 3.510776e+01 0.000000e+00
         vertex -2.054720e+01 3.583430e+01 0.000000e+00
      endloop
   endfacet
   facet normal 0.000000e+00 1.000000e+00 -0.000000e+00
      outer loop
         vertex -1.931113e+01 3.203008e+01 3.000000e+00
         vertex -1.931113e+01 3.203008e+01 0.000000e+00
         vertex -2.054720e+01 3.203008e+01 0.000000e+00
      endloop
   endfacet
   facet normal 9.510567e-01 -3.090165e-01 0.000000e+00
      outer loop
         vertex -2.154720e+01 3.510776e+01 0.000000e+00
         vertex -2.154720e+01 3.510776e+01 3.000000e+00
         vertex -2.192916e+01 3.393219e+01 3.000000e+00
      endloop
   endfacet
   facet normal 0.000000e+00 -1.000000e+00 0.000000e+00
      outer loop
         vertex -1.931113e+01 3.583430e+01 3.000000e+00
         vertex -2.054720e+01 3.583430e+01 3.000000e+00
         vertex -1.931113e+01 3.583430e+01 0.000000e+00
      endloop
   endfacet
   facet normal 9.510564e-01 3.090174e-01 0.000000e+00
      outer loop
         vertex -2.192916e+01 3.393219e+01 0.000000e+00
         vertex -2.154720e+01 3.275662e+01 3.000000e+00
         vertex -2.154720e+01 3.275662e+01 0.000000e+00
      endloop
   endfacet
   facet normal -5.877857e-01 8.090166e-01 0.000000e+00
      outer loop
         vertex -1.931113e+01 3.203008e+01 0.000000e+00
         vertex -1.931113e+01 3.203008e+01 3.000000e+00
         vertex -1.831113e+01 3.275662e+01 3.000000e+00
      endloop
   endfacet
endsolid
