solid 
   facet normal -1.231930e-16 1.883226e-16 1.000000e+00
      outer loop
         vertex -4.449104e+00 1.519281e+01 0.000000e+00
         vertex -4.301488e+00 1.332427e+01 3.700743e-16
         vertex -7.332951e-01 1.762354e+01 0.000000e+00
      endloop
   endfacet
   facet normal 3.453890e-17 7.272384e-18 1.000000e+00
      outer loop
         vertex -7.623531e-15 -1.728241e+01 4.440892e-16
         vertex 4.288997e+00 1.323538e+01 7.401487e-17
         vertex -4.301488e+00 1.332427e+01 3.700743e-16
      endloop
   endfacet
   facet normal 0.000000e+00 0.000000e+00 1.000000e+00
      outer loop
         vertex 4.424473e+00 1.472769e+01 0.000000e+00
         vertex 4.431571e+00 1.587969e+01 0.000000e+00
         vertex 2.771772e-01 1.744537e+01 0.000000e+00
      endloop
   endfacet
   facet normal 0.000000e+00 0.000000e+00 1.000000e+00
      outer loop
         vertex 4.359092e+00 1.698892e+01 0.000000e+00
         vertex 4.199625e+00 1.812996e+01 0.000000e+00
         vertex 1.165772e+00 1.795840e+01 0.000000e+00
      endloop
   endfacet
   facet normal 0.000000e+00 0.000000e+00 1.000000e+00
      outer loop
         vertex 3.979364e+00 1.914089e+01 0.000000e+00
         vertex 3.657580e+00 2.019411e+01 0.000000e+00
         vertex 1.516705e+00 1.892258e+01 0.000000e+00
      endloop
   endfacet
   facet normal 0.000000e+00 0.000000e+00 1.000000e+00
      outer loop
         vertex 3.320116e+00 2.102950e+01 0.000000e+00
         vertex 2.822851e+00 2.196807e+01 0.000000e+00
         vertex 1.165772e+00 1.988676e+01 0.000000e+00
      endloop
   endfacet
   facet normal 0.000000e+00 0.000000e+00 1.000000e+00
      outer loop
         vertex 2.334800e+00 2.266389e+01 0.000000e+00
         vertex 1.764099e+00 2.326901e+01 0.000000e+00
         vertex 2.771772e-01 2.039979e+01 0.000000e+00
      endloop
   endfacet
   facet normal 0.000000e+00 0.000000e+00 1.000000e+00
      outer loop
         vertex 1.329766e+00 2.360503e+01 0.000000e+00
         vertex 6.852066e-01 2.392797e+01 0.000000e+00
         vertex 2.771772e-01 2.039979e+01 0.000000e+00
      endloop
   endfacet
   facet normal -0.000000e+00 0.000000e+00 1.000000e+00
      outer loop
         vertex 7.849663e-02 2.404875e+01 0.000000e+00
         vertex -5.327875e-01 2.399221e+01 0.000000e+00
         vertex 2.771772e-01 2.039979e+01 0.000000e+00
      endloop
   endfacet
   facet normal -0.000000e+00 0.000000e+00 1.000000e+00
      outer loop
         vertex -1.188114e+00 2.373142e+01 0.000000e+00
         vertex -1.722339e+00 2.335917e+01 0.000000e+00
         vertex 2.771772e-01 2.039979e+01 0.000000e+00
      endloop
   endfacet
   facet normal -0.000000e+00 0.000000e+00 1.000000e+00
      outer loop
         vertex -2.201580e+00 2.289121e+01 0.000000e+00
         vertex -2.674400e+00 2.228277e+01 0.000000e+00
         vertex -7.332951e-01 2.022162e+01 0.000000e+00
      endloop
   endfacet
   facet normal -0.000000e+00 0.000000e+00 1.000000e+00
      outer loop
         vertex -3.321151e+00 2.113137e+01 0.000000e+00
         vertex -3.756686e+00 2.002798e+01 0.000000e+00
         vertex -1.392834e+00 1.943561e+01 0.000000e+00
      endloop
   endfacet
   facet normal 0.000000e+00 0.000000e+00 1.000000e+00
      outer loop
         vertex -4.065711e+00 1.893319e+01 0.000000e+00
         vertex -4.278708e+00 1.782594e+01 0.000000e+00
         vertex -1.392834e+00 1.840955e+01 0.000000e+00
      endloop
   endfacet
   facet normal 0.000000e+00 0.000000e+00 1.000000e+00
      outer loop
         vertex -4.406257e+00 1.670285e+01 0.000000e+00
         vertex -4.449104e+00 1.519281e+01 0.000000e+00
         vertex -7.332951e-01 1.762354e+01 0.000000e+00
      endloop
   endfacet
   facet normal 0.000000e+00 0.000000e+00 1.000000e+00
      outer loop
         vertex 1.516705e+00 1.892258e+01 0.000000e+00
         vertex 1.165772e+00 1.795840e+01 0.000000e+00
         vertex 4.199625e+00 1.812996e+01 0.000000e+00
      endloop
   endfacet
   facet normal 1.324027e-17 7.508950e-17 1.000000e+00
      outer loop
         vertex 2.771772e-01 1.744537e+01 0.000000e+00
         vertex -7.332951e-01 1.762354e+01 0.000000e+00
         vertex -4.301488e+00 1.332427e+01 3.700743e-16
      endloop
   endfacet
   facet normal 0.000000e+00 0.000000e+00 1.000000e+00
      outer loop
         vertex -1.392834e+00 1.840955e+01 0.000000e+00
         vertex -1.392834e+00 1.943561e+01 0.000000e+00
         vertex -4.065711e+00 1.893319e+01 0.000000e+00
      endloop
   endfacet
   facet normal 0.000000e+00 0.000000e+00 1.000000e+00
      outer loop
         vertex -7.332951e-01 2.022162e+01 0.000000e+00
         vertex 2.771772e-01 2.039979e+01 0.000000e+00
         vertex -1.722339e+00 2.335917e+01 0.000000e+00
      endloop
   endfacet
   facet normal 3.499055e-17 5.092431e-17 1.000000e+00
      outer loop
         vertex -4.301488e+00 1.332427e+01 3.700743e-16
         vertex 4.288997e+00 1.323538e+01 7.401487e-17
         vertex 2.771772e-01 1.744537e+01 0.000000e+00
      endloop
   endfacet
   facet normal 0.000000e+00 0.000000e+00 1.000000e+00
      outer loop
         vertex 2.771772e-01 1.744537e+01 0.000000e+00
         vertex 4.431571e+00 1.587969e+01 0.000000e+00
         vertex 1.165772e+00 1.795840e+01 0.000000e+00
      endloop
   endfacet
   facet normal 0.000000e+00 0.000000e+00 1.000000e+00
      outer loop
         vertex 1.516705e+00 1.892258e+01 0.000000e+00
         vertex 3.657580e+00 2.019411e+01 0.000000e+00
         vertex 1.165772e+00 1.988676e+01 0.000000e+00
      endloop
   endfacet
   facet normal 0.000000e+00 0.000000e+00 1.000000e+00
      outer loop
         vertex 2.334800e+00 2.266389e+01 0.000000e+00
         vertex 2.771772e-01 2.039979e+01 0.000000e+00
         vertex 2.822851e+00 2.196807e+01 0.000000e+00
      endloop
   endfacet
   facet normal 0.000000e+00 0.000000e+00 1.000000e+00
      outer loop
         vertex 2.771772e-01 2.039979e+01 0.000000e+00
         vertex 6.852066e-01 2.392797e+01 0.000000e+00
         vertex 7.849663e-02 2.404875e+01 0.000000e+00
      endloop
   endfacet
   facet normal 0.000000e+00 0.000000e+00 1.000000e+00
      outer loop
         vertex -2.201580e+00 2.289121e+01 0.000000e+00
         vertex -7.332951e-01 2.022162e+01 0.000000e+00
         vertex -1.722339e+00 2.335917e+01 0.000000e+00
      endloop
   endfacet
   facet normal 0.000000e+00 0.000000e+00 1.000000e+00
      outer loop
         vertex -1.392834e+00 1.943561e+01 0.000000e+00
         vertex -3.756686e+00 2.002798e+01 0.000000e+00
         vertex -4.065711e+00 1.893319e+01 0.000000e+00
      endloop
   endfacet
   facet normal 0.000000e+00 0.000000e+00 1.000000e+00
      outer loop
         vertex 1.516705e+00 1.892258e+01 0.000000e+00
         vertex 4.199625e+00 1.812996e+01 0.000000e+00
         vertex 3.979364e+00 1.914089e+01 0.000000e+00
      endloop
   endfacet
   facet normal -0.000000e+00 0.000000e+00 1.000000e+00
      outer loop
         vertex 2.822851e+00 2.196807e+01 0.000000e+00
         vertex 2.771772e-01 2.039979e+01 0.000000e+00
         vertex 1.165772e+00 1.988676e+01 0.000000e+00
      endloop
   endfacet
   facet normal 1.727298e-16 1.821801e-16 1.000000e+00
      outer loop
         vertex 4.288997e+00 1.323538e+01 7.401487e-17
         vertex 4.335416e+00 1.359765e+01 0.000000e+00
         vertex 2.771772e-01 1.744537e+01 0.000000e+00
      endloop
   endfacet
   facet normal 0.000000e+00 0.000000e+00 1.000000e+00
      outer loop
         vertex 4.431571e+00 1.587969e+01 0.000000e+00
         vertex 4.359092e+00 1.698892e+01 0.000000e+00
         vertex 1.165772e+00 1.795840e+01 0.000000e+00
      endloop
   endfacet
   facet normal 0.000000e+00 0.000000e+00 1.000000e+00
      outer loop
         vertex 1.764099e+00 2.326901e+01 0.000000e+00
         vertex 1.329766e+00 2.360503e+01 0.000000e+00
         vertex 2.771772e-01 2.039979e+01 0.000000e+00
      endloop
   endfacet
   facet normal -0.000000e+00 0.000000e+00 1.000000e+00
      outer loop
         vertex -2.674400e+00 2.228277e+01 0.000000e+00
         vertex -3.321151e+00 2.113137e+01 0.000000e+00
         vertex -7.332951e-01 2.022162e+01 0.000000e+00
      endloop
   endfacet
   facet normal 0.000000e+00 0.000000e+00 1.000000e+00
      outer loop
         vertex -7.332951e-01 1.762354e+01 0.000000e+00
         vertex -1.392834e+00 1.840955e+01 0.000000e+00
         vertex -4.406257e+00 1.670285e+01 0.000000e+00
      endloop
   endfacet
   facet normal 0.000000e+00 0.000000e+00 1.000000e+00
      outer loop
         vertex 4.424473e+00 1.472769e+01 0.000000e+00
         vertex 2.771772e-01 1.744537e+01 0.000000e+00
         vertex 4.335416e+00 1.359765e+01 0.000000e+00
      endloop
   endfacet
   facet normal 0.000000e+00 0.000000e+00 1.000000e+00
      outer loop
         vertex -1.188114e+00 2.373142e+01 0.000000e+00
         vertex 2.771772e-01 2.039979e+01 0.000000e+00
         vertex -5.327875e-01 2.399221e+01 0.000000e+00
      endloop
   endfacet
   facet normal 0.000000e+00 0.000000e+00 1.000000e+00
      outer loop
         vertex -7.332951e-01 2.022162e+01 0.000000e+00
         vertex -3.321151e+00 2.113137e+01 0.000000e+00
         vertex -1.392834e+00 1.943561e+01 0.000000e+00
      endloop
   endfacet
   facet normal 0.000000e+00 0.000000e+00 1.000000e+00
      outer loop
         vertex 3.657580e+00 2.019411e+01 0.000000e+00
         vertex 3.320116e+00 2.102950e+01 0.000000e+00
         vertex 1.165772e+00 1.988676e+01 0.000000e+00
      endloop
   endfacet
   facet normal -0.000000e+00 0.000000e+00 1.000000e+00
      outer loop
         vertex -1.392834e+00 1.840955e+01 0.000000e+00
         vertex -4.278708e+00 1.782594e+01 0.000000e+00
         vertex -4.406257e+00 1.670285e+01 0.000000e+00
      endloop
   endfacet
   facet normal -9.396927e-01 -3.420200e-01 0.000000e+00
      outer loop
         vertex 1.165772e+00 1.988676e+01 -2.000000e+01
         vertex 1.516705e+00 1.892258e+01 -2.000000e+01
         vertex 1.516705e+00 1.892258e+01 0.000000e+00
      endloop
   endfacet
   facet normal 1.736477e-01 -9.848078e-01 0.000000e+00
      outer loop
         vertex -7.332951e-01 2.022162e+01 0.000000e+00
         vertex -7.332951e-01 2.022162e+01 -2.000000e+01
         vertex 2.771772e-01 2.039979e+01 -2.000000e+01
      endloop
   endfacet
   facet normal 1.000000e+00 0.000000e+00 0.000000e+00
      outer loop
         vertex -1.392834e+00 1.840955e+01 0.000000e+00
         vertex -1.392834e+00 1.840955e+01 -2.000000e+01
         vertex -1.392834e+00 1.943561e+01 -2.000000e+01
      endloop
   endfacet
   facet normal 1.736477e-01 9.848078e-01 -0.000000e+00
      outer loop
         vertex 2.771772e-01 1.744537e+01 0.000000e+00
         vertex 2.771772e-01 1.744537e+01 -2.000000e+01
         vertex -7.332951e-01 1.762354e+01 -2.000000e+01
      endloop
   endfacet
   facet normal -9.396925e-01 3.420206e-01 0.000000e+00
      outer loop
         vertex 1.516705e+00 1.892258e+01 0.000000e+00
         vertex 1.516705e+00 1.892258e+01 -2.000000e+01
         vertex 1.165772e+00 1.795840e+01 -2.000000e+01
      endloop
   endfacet
   facet normal -5.000006e-01 8.660251e-01 0.000000e+00
      outer loop
         vertex 2.771772e-01 1.744537e+01 -2.000000e+01
         vertex 2.771772e-01 1.744537e+01 0.000000e+00
         vertex 1.165772e+00 1.795840e+01 0.000000e+00
      endloop
   endfacet
   facet normal 7.660448e-01 6.427872e-01 0.000000e+00
      outer loop
         vertex -1.392834e+00 1.840955e+01 -2.000000e+01
         vertex -1.392834e+00 1.840955e+01 0.000000e+00
         vertex -7.332951e-01 1.762354e+01 0.000000e+00
      endloop
   endfacet
   facet normal 7.660448e-01 -6.427872e-01 0.000000e+00
      outer loop
         vertex -7.332951e-01 2.022162e+01 -2.000000e+01
         vertex -7.332951e-01 2.022162e+01 0.000000e+00
         vertex -1.392834e+00 1.943561e+01 0.000000e+00
      endloop
   endfacet
   facet normal -5.000006e-01 -8.660251e-01 -0.000000e+00
      outer loop
         vertex 1.165772e+00 1.988676e+01 -2.000000e+01
         vertex 1.165772e+00 1.988676e+01 0.000000e+00
         vertex 2.771772e-01 2.039979e+01 0.000000e+00
      endloop
   endfacet
   facet normal -9.396927e-01 -3.420200e-01 0.000000e+00
      outer loop
         vertex 1.165772e+00 1.988676e+01 0.000000e+00
         vertex 1.165772e+00 1.988676e+01 -2.000000e+01
         vertex 1.516705e+00 1.892258e+01 0.000000e+00
      endloop
   endfacet
   facet normal 1.736477e-01 9.848078e-01 0.000000e+00
      outer loop
         vertex -7.332951e-01 1.762354e+01 0.000000e+00
         vertex 2.771772e-01 1.744537e+01 0.000000e+00
         vertex -7.332951e-01 1.762354e+01 -2.000000e+01
      endloop
   endfacet
   facet normal 7.660448e-01 6.427872e-01 0.000000e+00
      outer loop
         vertex -7.332951e-01 1.762354e+01 -2.000000e+01
         vertex -1.392834e+00 1.840955e+01 -2.000000e+01
         vertex -7.332951e-01 1.762354e+01 0.000000e+00
      endloop
   endfacet
   facet normal -5.000006e-01 -8.660251e-01 0.000000e+00
      outer loop
         vertex 2.771772e-01 2.039979e+01 0.000000e+00
         vertex 2.771772e-01 2.039979e+01 -2.000000e+01
         vertex 1.165772e+00 1.988676e+01 -2.000000e+01
      endloop
   endfacet
   facet normal -5.000006e-01 8.660251e-01 0.000000e+00
      outer loop
         vertex 1.165772e+00 1.795840e+01 0.000000e+00
         vertex 1.165772e+00 1.795840e+01 -2.000000e+01
         vertex 2.771772e-01 1.744537e+01 -2.000000e+01
      endloop
   endfacet
   facet normal 1.000000e+00 0.000000e+00 0.000000e+00
      outer loop
         vertex -1.392834e+00 1.943561e+01 -2.000000e+01
         vertex -1.392834e+00 1.943561e+01 0.000000e+00
         vertex -1.392834e+00 1.840955e+01 0.000000e+00
      endloop
   endfacet
   facet normal 1.736477e-01 -9.848078e-01 0.000000e+00
      outer loop
         vertex 2.771772e-01 2.039979e+01 0.000000e+00
         vertex -7.332951e-01 2.022162e+01 0.000000e+00
         vertex 2.771772e-01 2.039979e+01 -2.000000e+01
      endloop
   endfacet
   facet normal -9.396925e-01 3.420206e-01 0.000000e+00
      outer loop
         vertex 1.516705e+00 1.892258e+01 0.000000e+00
         vertex 1.165772e+00 1.795840e+01 -2.000000e+01
         vertex 1.165772e+00 1.795840e+01 0.000000e+00
      endloop
   endfacet
   facet normal 7.660448e-01 -6.427872e-01 0.000000e+00
      outer loop
         vertex -1.392834e+00 1.943561e+01 0.000000e+00
         vertex -1.392834e+00 1.943561e+01 -2.000000e+01
         vertex -7.332951e-01 2.022162e+01 -2.000000e+01
      endloop
   endfacet
   facet normal -9.902681e-01 -1.391731e-01 2.409628e-16
      outer loop
         vertex -1.809664e-14 -2.446771e+01 -4.700000e+01
         vertex -6.903413e-15 -2.446771e+01 -1.000000e+00
         vertex -5.291756e+00 1.318509e+01 -1.000000e+00
      endloop
   endfacet
   facet normal -9.902681e-01 -1.391731e-01 0.000000e+00
      outer loop
         vertex -5.291756e+00 1.318509e+01 -4.700000e+01
         vertex -1.809664e-14 -2.446771e+01 -4.700000e+01
         vertex -5.291756e+00 1.318509e+01 -1.000000e+00
      endloop
   endfacet
   facet normal 9.902681e-01 -1.391731e-01 0.000000e+00
      outer loop
         vertex 5.279264e+00 1.309621e+01 -4.700000e+01
         vertex 5.279264e+00 1.309621e+01 -1.000000e+00
         vertex -6.903413e-15 -2.446771e+01 -1.000000e+00
      endloop
   endfacet
   facet normal 9.902681e-01 -1.391731e-01 -2.280354e-16
      outer loop
         vertex -1.809664e-14 -2.446771e+01 -4.700000e+01
         vertex 5.279264e+00 1.309621e+01 -4.700000e+01
         vertex -6.903413e-15 -2.446771e+01 -1.000000e+00
      endloop
   endfacet
   facet normal -9.994067e-01 -3.444082e-02 -0.000000e+00
      outer loop
         vertex -5.291756e+00 1.318509e+01 -4.700000e+01
         vertex -5.291756e+00 1.318509e+01 -1.000000e+00
         vertex -5.411674e+00 1.666488e+01 -4.700000e+01
      endloop
   endfacet
   facet normal -9.837821e-01 1.793677e-01 8.164747e-05
      outer loop
         vertex -5.410615e+00 1.668003e+01 -1.000000e+00
         vertex -4.791223e+00 2.007722e+01 -1.000000e+00
         vertex -4.800593e+00 2.004677e+01 -4.700000e+01
      endloop
   endfacet
   facet normal -7.543291e-01 6.564955e-01 1.097363e-03
      outer loop
         vertex -3.656890e+00 2.260757e+01 -1.000000e+00
         vertex -2.264242e+00 2.420776e+01 -1.000000e+00
         vertex -2.522486e+00 2.398792e+01 -4.700000e+01
      endloop
   endfacet
   facet normal 3.848168e-02 9.992582e-01 -1.517822e-03
      outer loop
         vertex -7.114798e-01 2.497719e+01 -1.000000e+00
         vertex 8.789742e-01 2.491594e+01 -1.000000e+00
         vertex 1.111467e+00 2.483712e+01 -4.700000e+01
      endloop
   endfacet
   facet normal 7.457606e-01 6.662137e-01 6.358566e-04
      outer loop
         vertex 2.252885e+00 2.416591e+01 -1.000000e+00
         vertex 3.485519e+00 2.278610e+01 -1.000000e+00
         vertex 3.345953e+00 2.298624e+01 -4.700000e+01
      endloop
   endfacet
   facet normal 9.685040e-01 2.489960e-01 9.935750e-04
      outer loop
         vertex 4.528268e+00 2.072487e+01 -1.000000e+00
         vertex 5.246817e+00 1.792998e+01 -1.000000e+00
         vertex 5.149316e+00 1.849278e+01 -4.700000e+01
      endloop
   endfacet
   facet normal 9.952667e-01 -9.718172e-02 0.000000e+00
      outer loop
         vertex 5.412580e+00 1.446154e+01 -1.000000e+00
         vertex 5.279264e+00 1.309621e+01 -1.000000e+00
         vertex 5.279264e+00 1.309621e+01 -4.700000e+01
      endloop
   endfacet
   facet normal 9.963229e-01 8.567070e-02 -1.063631e-03
      outer loop
         vertex 5.436863e+00 1.514869e+01 -4.700000e+01
         vertex 5.149316e+00 1.849278e+01 -4.700000e+01
         vertex 5.246817e+00 1.792998e+01 -1.000000e+00
      endloop
   endfacet
   facet normal 8.765245e-01 4.813569e-01 -5.651512e-04
      outer loop
         vertex 4.374197e+00 2.111386e+01 -4.700000e+01
         vertex 3.345953e+00 2.298624e+01 -4.700000e+01
         vertex 3.485519e+00 2.278610e+01 -1.000000e+00
      endloop
   endfacet
   facet normal 5.012143e-01 8.653231e-01 1.893726e-04
      outer loop
         vertex 2.207985e+00 2.420199e+01 -4.700000e+01
         vertex 1.111467e+00 2.483712e+01 -4.700000e+01
         vertex 2.252885e+00 2.416591e+01 -1.000000e+00
      endloop
   endfacet
   facet normal -5.640668e-01 8.257288e-01 -7.795468e-04
      outer loop
         vertex -1.447253e+00 2.472243e+01 -4.700000e+01
         vertex -2.522486e+00 2.398792e+01 -4.700000e+01
         vertex -2.264242e+00 2.420776e+01 -1.000000e+00
      endloop
   endfacet
   facet normal -9.152101e-01 4.029769e-01 -8.036299e-05
      outer loop
         vertex -3.712054e+00 2.251897e+01 -4.700000e+01
         vertex -4.800593e+00 2.004677e+01 -4.700000e+01
         vertex -4.791223e+00 2.007722e+01 -1.000000e+00
      endloop
   endfacet
   facet normal -9.994222e-01 -3.398924e-02 3.420116e-05
      outer loop
         vertex -5.411674e+00 1.666488e+01 -4.700000e+01
         vertex -5.291756e+00 1.318509e+01 -1.000000e+00
         vertex -5.410615e+00 1.668003e+01 -1.000000e+00
      endloop
   endfacet
   facet normal -4.477803e-02 9.989853e-01 -4.816513e-03
      outer loop
         vertex -7.114798e-01 2.497719e+01 -1.000000e+00
         vertex 1.111467e+00 2.483712e+01 -4.700000e+01
         vertex -1.447253e+00 2.472243e+01 -4.700000e+01
      endloop
   endfacet
   facet normal 9.589469e-01 2.835845e-01 -8.138170e-04
      outer loop
         vertex 4.528268e+00 2.072487e+01 -1.000000e+00
         vertex 5.149316e+00 1.849278e+01 -4.700000e+01
         vertex 4.374197e+00 2.111386e+01 -4.700000e+01
      endloop
   endfacet
   facet normal 8.923157e-01 4.514111e-01 8.285438e-04
      outer loop
         vertex 4.374197e+00 2.111386e+01 -4.700000e+01
         vertex 3.485519e+00 2.278610e+01 -1.000000e+00
         vertex 4.528268e+00 2.072487e+01 -1.000000e+00
      endloop
   endfacet
   facet normal -4.440026e-01 8.960229e-01 2.139353e-03
      outer loop
         vertex -1.447253e+00 2.472243e+01 -4.700000e+01
         vertex -2.264242e+00 2.420776e+01 -1.000000e+00
         vertex -7.114798e-01 2.497719e+01 -1.000000e+00
      endloop
   endfacet
   facet normal -9.125041e-01 4.090675e-01 3.064182e-04
      outer loop
         vertex -4.791223e+00 2.007722e+01 -1.000000e+00
         vertex -3.656890e+00 2.260757e+01 -1.000000e+00
         vertex -3.712054e+00 2.251897e+01 -4.700000e+01
      endloop
   endfacet
   facet normal 9.988592e-01 4.773731e-02 1.240407e-03
      outer loop
         vertex 5.246817e+00 1.792998e+01 -1.000000e+00
         vertex 5.412580e+00 1.446154e+01 -1.000000e+00
         vertex 5.436863e+00 1.514869e+01 -4.700000e+01
      endloop
   endfacet
   facet normal 7.300763e-01 6.833657e-01 -1.767068e-04
      outer loop
         vertex 3.345953e+00 2.298624e+01 -4.700000e+01
         vertex 2.207985e+00 2.420199e+01 -4.700000e+01
         vertex 2.252885e+00 2.416591e+01 -1.000000e+00
      endloop
   endfacet
   facet normal -9.840643e-01 1.778128e-01 -3.589174e-05
      outer loop
         vertex -4.800593e+00 2.004677e+01 -4.700000e+01
         vertex -5.411674e+00 1.666488e+01 -4.700000e+01
         vertex -5.410615e+00 1.668003e+01 -1.000000e+00
      endloop
   endfacet
   facet normal 4.791576e-01 8.777284e-01 9.176854e-04
      outer loop
         vertex 1.111467e+00 2.483712e+01 -4.700000e+01
         vertex 8.789742e-01 2.491594e+01 -1.000000e+00
         vertex 2.252885e+00 2.416591e+01 -1.000000e+00
      endloop
   endfacet
   facet normal 9.970648e-01 -7.655926e-02 -6.173059e-04
      outer loop
         vertex 5.436863e+00 1.514869e+01 -4.700000e+01
         vertex 5.412580e+00 1.446154e+01 -1.000000e+00
         vertex 5.279264e+00 1.309621e+01 -4.700000e+01
      endloop
   endfacet
   facet normal -7.771359e-01 6.293328e-01 -2.801612e-04
      outer loop
         vertex -2.522486e+00 2.398792e+01 -4.700000e+01
         vertex -3.712054e+00 2.251897e+01 -4.700000e+01
         vertex -3.656890e+00 2.260757e+01 -1.000000e+00
      endloop
   endfacet
   facet normal 0.000000e+00 0.000000e+00 1.000000e+00
      outer loop
         vertex 1.165772e+00 1.795840e+01 -2.000000e+01
         vertex 1.516705e+00 1.892258e+01 -2.000000e+01
         vertex 1.165772e+00 1.988676e+01 -2.000000e+01
      endloop
   endfacet
   facet normal -0.000000e+00 0.000000e+00 1.000000e+00
      outer loop
         vertex 2.771772e-01 2.039979e+01 -2.000000e+01
         vertex -7.332951e-01 2.022162e+01 -2.000000e+01
         vertex 1.165772e+00 1.795840e+01 -2.000000e+01
      endloop
   endfacet
   facet normal -0.000000e+00 0.000000e+00 1.000000e+00
      outer loop
         vertex -1.392834e+00 1.943561e+01 -2.000000e+01
         vertex -1.392834e+00 1.840955e+01 -2.000000e+01
         vertex 1.165772e+00 1.795840e+01 -2.000000e+01
      endloop
   endfacet
   facet normal 0.000000e+00 0.000000e+00 1.000000e+00
      outer loop
         vertex -7.332951e-01 1.762354e+01 -2.000000e+01
         vertex 2.771772e-01 1.744537e+01 -2.000000e+01
         vertex -1.392834e+00 1.840955e+01 -2.000000e+01
      endloop
   endfacet
   facet normal 0.000000e+00 -0.000000e+00 1.000000e+00
      outer loop
         vertex 2.771772e-01 2.039979e+01 -2.000000e+01
         vertex 1.165772e+00 1.795840e+01 -2.000000e+01
         vertex 1.165772e+00 1.988676e+01 -2.000000e+01
      endloop
   endfacet
   facet normal 0.000000e+00 -0.000000e+00 1.000000e+00
      outer loop
         vertex -1.392834e+00 1.840955e+01 -2.000000e+01
         vertex 2.771772e-01 1.744537e+01 -2.000000e+01
         vertex 1.165772e+00 1.795840e+01 -2.000000e+01
      endloop
   endfacet
   facet normal -0.000000e+00 0.000000e+00 1.000000e+00
      outer loop
         vertex -7.332951e-01 2.022162e+01 -2.000000e+01
         vertex -1.392834e+00 1.943561e+01 -2.000000e+01
         vertex 1.165772e+00 1.795840e+01 -2.000000e+01
      endloop
   endfacet
   facet normal -7.002251e-01 -9.841021e-02 -7.071070e-01
      outer loop
         vertex -2.550737e-14 -9.566535e+00 -4.907384e+01
         vertex -5.291756e+00 1.318509e+01 -4.700000e+01
         vertex -3.238096e+00 1.347372e+01 -4.907384e+01
      endloop
   endfacet
   facet normal -7.002250e-01 -9.841021e-02 -7.071070e-01
      outer loop
         vertex -5.291756e+00 1.318509e+01 -4.700000e+01
         vertex -2.550737e-14 -9.566535e+00 -4.907384e+01
         vertex -1.809664e-14 -2.446771e+01 -4.700000e+01
      endloop
   endfacet
   facet normal 7.002250e-01 -9.841021e-02 -7.071070e-01
      outer loop
         vertex 5.279264e+00 1.309621e+01 -4.700000e+01
         vertex -1.809664e-14 -2.446771e+01 -4.700000e+01
         vertex -2.550737e-14 -9.566535e+00 -4.907384e+01
      endloop
   endfacet
   facet normal 7.002251e-01 -9.841021e-02 -7.071070e-01
      outer loop
         vertex 5.279264e+00 1.309621e+01 -4.700000e+01
         vertex -2.550737e-14 -9.566535e+00 -4.907384e+01
         vertex 3.225605e+00 1.338483e+01 -4.907384e+01
      endloop
   endfacet
   facet normal 7.043913e-01 -6.606358e-02 -7.067309e-01
      outer loop
         vertex 3.225605e+00 1.338483e+01 -4.907384e+01
         vertex 3.347622e+00 1.468570e+01 -4.907383e+01
         vertex 5.279264e+00 1.309621e+01 -4.700000e+01
      endloop
   endfacet
   facet normal 6.859109e-01 1.910989e-01 -7.021449e-01
      outer loop
         vertex 3.049820e+00 1.840876e+01 -4.907382e+01
         vertex 2.678202e+00 1.974234e+01 -4.907389e+01
         vertex 5.149316e+00 1.849278e+01 -4.700000e+01
      endloop
   endfacet
   facet normal 5.895767e-01 3.863188e-01 -7.093357e-01
      outer loop
         vertex 2.078913e+00 2.111203e+01 -4.907385e+01
         vertex 1.526306e+00 2.195546e+01 -4.907381e+01
         vertex 3.345953e+00 2.298624e+01 -4.700000e+01
      endloop
   endfacet
   facet normal 4.105624e-01 5.748035e-01 -7.078415e-01
      outer loop
         vertex 9.972641e-01 2.251296e+01 -4.907382e+01
         vertex 6.244181e-01 2.277930e+01 -4.907380e+01
         vertex 2.207985e+00 2.420199e+01 -4.700000e+01
      endloop
   endfacet
   facet normal -1.299135e-01 7.068532e-01 -6.953280e-01
      outer loop
         vertex 1.074338e-01 2.296815e+01 -4.907383e+01
         vertex -5.683796e-01 2.284393e+01 -4.907384e+01
         vertex -1.447253e+00 2.472243e+01 -4.700000e+01
      endloop
   endfacet
   facet normal -4.916669e-01 5.051895e-01 -7.092582e-01
      outer loop
         vertex -9.702120e-01 2.258708e+01 -4.907384e+01
         vertex -1.446698e+00 2.212335e+01 -4.907384e+01
         vertex -2.522486e+00 2.398792e+01 -4.700000e+01
      endloop
   endfacet
   facet normal -6.365509e-01 3.156264e-01 -7.036924e-01
      outer loop
         vertex -2.019646e+00 2.130855e+01 -4.907384e+01
         vertex -2.474376e+00 2.039145e+01 -4.907384e+01
         vertex -3.712054e+00 2.251897e+01 -4.700000e+01
      endloop
   endfacet
   facet normal -7.068861e-01 1.273632e-01 -6.957663e-01
      outer loop
         vertex -2.960039e+00 1.893267e+01 -4.907391e+01
         vertex -3.291872e+00 1.709135e+01 -4.907384e+01
         vertex -4.800593e+00 2.004677e+01 -4.700000e+01
      endloop
   endfacet
   facet normal -7.052901e-01 -5.819664e-02 -7.065261e-01
      outer loop
         vertex -3.373087e+00 1.510982e+01 -4.907385e+01
         vertex -3.238096e+00 1.347372e+01 -4.907384e+01
         vertex -5.291756e+00 1.318509e+01 -4.700000e+01
      endloop
   endfacet
   facet normal -7.065969e-01 1.276766e-01 -6.960026e-01
      outer loop
         vertex -5.411674e+00 1.666488e+01 -4.700000e+01
         vertex -4.800593e+00 2.004677e+01 -4.700000e+01
         vertex -3.291872e+00 1.709135e+01 -4.907384e+01
      endloop
   endfacet
   facet normal -5.581120e-01 4.519650e-01 -6.958725e-01
      outer loop
         vertex -3.712054e+00 2.251897e+01 -4.700000e+01
         vertex -2.522486e+00 2.398792e+01 -4.700000e+01
         vertex -1.446698e+00 2.212335e+01 -4.907384e+01
      endloop
   endfacet
   facet normal -3.363866e-02 7.504692e-01 -6.600489e-01
      outer loop
         vertex -1.447253e+00 2.472243e+01 -4.700000e+01
         vertex 1.111467e+00 2.483712e+01 -4.700000e+01
         vertex 1.074338e-01 2.296815e+01 -4.907383e+01
      endloop
   endfacet
   facet normal 5.213618e-01 4.880048e-01 -7.000237e-01
      outer loop
         vertex 2.207985e+00 2.420199e+01 -4.700000e+01
         vertex 3.345953e+00 2.298624e+01 -4.700000e+01
         vertex 1.526306e+00 2.195546e+01 -4.907381e+01
      endloop
   endfacet
   facet normal 6.877218e-01 2.033765e-01 -6.969051e-01
      outer loop
         vertex 4.374197e+00 2.111386e+01 -4.700000e+01
         vertex 5.149316e+00 1.849278e+01 -4.700000e+01
         vertex 2.678202e+00 1.974234e+01 -4.907389e+01
      endloop
   endfacet
   facet normal 7.094932e-01 -5.447817e-02 -7.026034e-01
      outer loop
         vertex 5.436863e+00 1.514869e+01 -4.700000e+01
         vertex 5.279264e+00 1.309621e+01 -4.700000e+01
         vertex 3.347622e+00 1.468570e+01 -4.907383e+01
      endloop
   endfacet
   facet normal 6.289929e-01 3.454211e-01 -6.964569e-01
      outer loop
         vertex 2.078913e+00 2.111203e+01 -4.907385e+01
         vertex 3.345953e+00 2.298624e+01 -4.700000e+01
         vertex 4.374197e+00 2.111386e+01 -4.700000e+01
      endloop
   endfacet
   facet normal -3.824525e-01 5.983478e-01 -7.040667e-01
      outer loop
         vertex -1.447253e+00 2.472243e+01 -4.700000e+01
         vertex -5.683796e-01 2.284393e+01 -4.907384e+01
         vertex -9.702120e-01 2.258708e+01 -4.907384e+01
      endloop
   endfacet
   facet normal -6.603500e-01 2.907592e-01 -6.923850e-01
      outer loop
         vertex -3.712054e+00 2.251897e+01 -4.700000e+01
         vertex -2.474376e+00 2.039145e+01 -4.907384e+01
         vertex -4.800593e+00 2.004677e+01 -4.700000e+01
      endloop
   endfacet
   facet normal -7.019769e-01 2.877688e-02 -7.116181e-01
      outer loop
         vertex -5.411674e+00 1.666488e+01 -4.700000e+01
         vertex -3.291872e+00 1.709135e+01 -4.907384e+01
         vertex -3.373087e+00 1.510982e+01 -4.907385e+01
      endloop
   endfacet
   facet normal 5.170149e-01 4.906146e-01 -7.014220e-01
      outer loop
         vertex 2.207985e+00 2.420199e+01 -4.700000e+01
         vertex 1.526306e+00 2.195546e+01 -4.907381e+01
         vertex 9.972641e-01 2.251296e+01 -4.907382e+01
      endloop
   endfacet
   facet normal -4.028704e-01 5.897559e-01 -6.999167e-01
      outer loop
         vertex -1.447253e+00 2.472243e+01 -4.700000e+01
         vertex -9.702120e-01 2.258708e+01 -4.907384e+01
         vertex -2.522486e+00 2.398792e+01 -4.700000e+01
      endloop
   endfacet
   facet normal 7.032383e-01 1.078584e-02 -7.108724e-01
      outer loop
         vertex 3.347622e+00 1.468570e+01 -4.907383e+01
         vertex 3.318680e+00 1.657124e+01 -4.907385e+01
         vertex 5.436863e+00 1.514869e+01 -4.700000e+01
      endloop
   endfacet
   facet normal 6.431876e-01 2.814391e-01 -7.121108e-01
      outer loop
         vertex 2.678202e+00 1.974234e+01 -4.907389e+01
         vertex 2.078913e+00 2.111203e+01 -4.907385e+01
         vertex 4.374197e+00 2.111386e+01 -4.700000e+01
      endloop
   endfacet
   facet normal -5.774727e-01 4.060624e-01 -7.082645e-01
      outer loop
         vertex -1.446698e+00 2.212335e+01 -4.907384e+01
         vertex -2.019646e+00 2.130855e+01 -4.907384e+01
         vertex -3.712054e+00 2.251897e+01 -4.700000e+01
      endloop
   endfacet
   facet normal -7.221897e-01 -2.488757e-02 -6.912472e-01
      outer loop
         vertex -5.291756e+00 1.318509e+01 -4.700000e+01
         vertex -5.411674e+00 1.666488e+01 -4.700000e+01
         vertex -3.373087e+00 1.510982e+01 -4.907385e+01
      endloop
   endfacet
   facet normal 7.191461e-01 6.183713e-02 -6.921019e-01
      outer loop
         vertex 5.149316e+00 1.849278e+01 -4.700000e+01
         vertex 5.436863e+00 1.514869e+01 -4.700000e+01
         vertex 3.318680e+00 1.657124e+01 -4.907385e+01
      endloop
   endfacet
   facet normal 3.586239e-01 6.191475e-01 -6.986023e-01
      outer loop
         vertex 2.207985e+00 2.420199e+01 -4.700000e+01
         vertex 6.244181e-01 2.277930e+01 -4.907380e+01
         vertex 1.111467e+00 2.483712e+01 -4.700000e+01
      endloop
   endfacet
   facet normal -6.669663e-01 2.220825e-01 -7.112210e-01
      outer loop
         vertex -4.800593e+00 2.004677e+01 -4.700000e+01
         vertex -2.474376e+00 2.039145e+01 -4.907384e+01
         vertex -2.960039e+00 1.893267e+01 -4.907391e+01
      endloop
   endfacet
   facet normal 6.970095e-01 1.019960e-01 -7.097708e-01
      outer loop
         vertex 3.318680e+00 1.657124e+01 -4.907385e+01
         vertex 3.049820e+00 1.840876e+01 -4.907382e+01
         vertex 5.149316e+00 1.849278e+01 -4.700000e+01
      endloop
   endfacet
   facet normal 2.411292e-01 6.599853e-01 -7.115309e-01
      outer loop
         vertex 1.074338e-01 2.296815e+01 -4.907383e+01
         vertex 1.111467e+00 2.483712e+01 -4.700000e+01
         vertex 6.244181e-01 2.277930e+01 -4.907380e+01
      endloop
   endfacet
   facet normal -5.393392e-01 -7.579919e-02 -8.386702e-01
      outer loop
         vertex -3.238096e+00 1.347372e+01 -4.907384e+01
         vertex -1.825903e+00 1.367280e+01 -5.000000e+01
         vertex 2.590520e-16 6.808296e-01 -5.000000e+01
      endloop
   endfacet
   facet normal -5.393392e-01 -7.579918e-02 -8.386702e-01
      outer loop
         vertex -2.550737e-14 -9.566535e+00 -4.907384e+01
         vertex -3.238096e+00 1.347372e+01 -4.907384e+01
         vertex 2.590520e-16 6.808296e-01 -5.000000e+01
      endloop
   endfacet
   facet normal 5.393392e-01 -7.579918e-02 -8.386702e-01
      outer loop
         vertex -2.550737e-14 -9.566535e+00 -4.907384e+01
         vertex 2.590520e-16 6.808296e-01 -5.000000e+01
         vertex 3.225605e+00 1.338483e+01 -4.907384e+01
      endloop
   endfacet
   facet normal 5.393392e-01 -7.579919e-02 -8.386702e-01
      outer loop
         vertex 1.813359e+00 1.358355e+01 -5.000000e+01
         vertex 3.225605e+00 1.338483e+01 -4.907384e+01
         vertex 2.590520e-16 6.808296e-01 -5.000000e+01
      endloop
   endfacet
   facet normal 5.425056e-01 -5.217744e-02 -8.384302e-01
      outer loop
         vertex 1.919884e+00 1.469112e+01 -5.000000e+01
         vertex 3.225605e+00 1.338483e+01 -4.907384e+01
         vertex 1.813359e+00 1.358355e+01 -5.000000e+01
      endloop
   endfacet
   facet normal 5.488328e-01 8.414253e-03 -8.358898e-01
      outer loop
         vertex 1.913422e+00 1.622589e+01 -5.000000e+01
         vertex 3.318680e+00 1.657124e+01 -4.907385e+01
         vertex 3.347622e+00 1.468570e+01 -4.907383e+01
      endloop
   endfacet
   facet normal 5.294985e-01 1.475055e-01 -8.353882e-01
      outer loop
         vertex 1.558786e+00 1.851575e+01 -5.000000e+01
         vertex 2.678202e+00 1.974234e+01 -4.907389e+01
         vertex 3.049820e+00 1.840876e+01 -4.907382e+01
      endloop
   endfacet
   facet normal 4.592901e-01 3.009616e-01 -8.357480e-01
      outer loop
         vertex 5.058928e-01 2.094074e+01 -5.000000e+01
         vertex 1.526306e+00 2.195546e+01 -4.907381e+01
         vertex 2.078913e+00 2.111203e+01 -4.907385e+01
      endloop
   endfacet
   facet normal 3.213946e-01 4.499851e-01 -8.331980e-01
      outer loop
         vertex 4.585109e-02 2.147756e+01 -5.000000e+01
         vertex 6.244181e-01 2.277930e+01 -4.907380e+01
         vertex 9.972641e-01 2.251296e+01 -4.907382e+01
      endloop
   endfacet
   facet normal -9.934080e-02 5.405457e-01 -8.354291e-01
      outer loop
         vertex -2.715415e-02 2.151199e+01 -5.000000e+01
         vertex -5.683796e-01 2.284393e+01 -4.907384e+01
         vertex 1.074338e-01 2.296815e+01 -4.907383e+01
      endloop
   endfacet
   facet normal -3.805860e-01 3.910534e-01 -8.379926e-01
      outer loop
         vertex -3.783997e-01 2.117838e+01 -5.000000e+01
         vertex -1.446698e+00 2.212335e+01 -4.907384e+01
         vertex -9.702120e-01 2.258708e+01 -4.907384e+01
      endloop
   endfacet
   facet normal -4.909452e-01 2.434294e-01 -8.364897e-01
      outer loop
         vertex -8.714842e-01 2.044161e+01 -5.000000e+01
         vertex -2.474376e+00 2.039145e+01 -4.907384e+01
         vertex -2.019646e+00 2.130855e+01 -4.907384e+01
      endloop
   endfacet
   facet normal -5.425997e-01 9.775107e-02 -8.342843e-01
      outer loop
         vertex -1.665201e+00 1.821612e+01 -5.000000e+01
         vertex -3.291872e+00 1.709135e+01 -4.907384e+01
         vertex -2.960039e+00 1.893267e+01 -4.907391e+01
      endloop
   endfacet
   facet normal -5.470361e-01 -4.514041e-02 -8.358911e-01
      outer loop
         vertex -1.871875e+00 1.406733e+01 -5.000000e+01
         vertex -3.238096e+00 1.347372e+01 -4.907384e+01
         vertex -3.373087e+00 1.510982e+01 -4.907385e+01
      endloop
   endfacet
   facet normal -5.410892e-01 -6.305109e-02 -8.385982e-01
      outer loop
         vertex -3.238096e+00 1.347372e+01 -4.907384e+01
         vertex -1.871875e+00 1.406733e+01 -5.000000e+01
         vertex -1.825903e+00 1.367280e+01 -5.000000e+01
      endloop
   endfacet
   facet normal -5.443882e-01 3.889438e-02 -8.379312e-01
      outer loop
         vertex -3.291872e+00 1.709135e+01 -4.907384e+01
         vertex -1.884119e+00 1.684204e+01 -5.000000e+01
         vertex -1.940711e+00 1.604994e+01 -5.000000e+01
      endloop
   endfacet
   facet normal -5.182838e-01 1.512993e-01 -8.417187e-01
      outer loop
         vertex -2.960039e+00 1.893267e+01 -4.907391e+01
         vertex -1.279813e+00 1.953629e+01 -5.000000e+01
         vertex -1.665201e+00 1.821612e+01 -5.000000e+01
      endloop
   endfacet
   facet normal -4.503566e-01 3.014024e-01 -8.404377e-01
      outer loop
         vertex -2.019646e+00 2.130855e+01 -4.907384e+01
         vertex -3.783997e-01 2.117838e+01 -5.000000e+01
         vertex -8.714842e-01 2.044161e+01 -5.000000e+01
      endloop
   endfacet
   facet normal 2.383262e-01 5.054365e-01 -8.292976e-01
      outer loop
         vertex 1.074338e-01 2.296815e+01 -4.907383e+01
         vertex 4.585109e-02 2.147756e+01 -5.000000e+01
         vertex -2.715415e-02 2.151199e+01 -5.000000e+01
      endloop
   endfacet
   facet normal 4.084349e-01 3.563187e-01 -8.403677e-01
      outer loop
         vertex 1.526306e+00 2.195546e+01 -4.907381e+01
         vertex 5.058928e-01 2.094074e+01 -5.000000e+01
         vertex 1.106147e-01 2.139383e+01 -5.000000e+01
      endloop
   endfacet
   facet normal 4.980667e-01 2.257323e-01 -8.372422e-01
      outer loop
         vertex 2.078913e+00 2.111203e+01 -4.907385e+01
         vertex 1.233921e+00 1.954138e+01 -5.000000e+01
         vertex 8.558032e-01 2.037568e+01 -5.000000e+01
      endloop
   endfacet
   facet normal 5.301504e-01 1.076852e-01 -8.410377e-01
      outer loop
         vertex 3.049820e+00 1.840876e+01 -4.907382e+01
         vertex 1.792520e+00 1.736504e+01 -5.000000e+01
         vertex 1.558786e+00 1.851575e+01 -5.000000e+01
      endloop
   endfacet
   facet normal 5.442246e-01 2.291141e-03 -8.389364e-01
      outer loop
         vertex 3.347622e+00 1.468570e+01 -4.907383e+01
         vertex 1.919884e+00 1.469112e+01 -5.000000e+01
         vertex 1.913422e+00 1.622589e+01 -5.000000e+01
      endloop
   endfacet
   facet normal 5.395426e-01 5.726365e-02 -8.400087e-01
      outer loop
         vertex 1.792520e+00 1.736504e+01 -5.000000e+01
         vertex 3.318680e+00 1.657124e+01 -4.907385e+01
         vertex 1.913422e+00 1.622589e+01 -5.000000e+01
      endloop
   endfacet
   facet normal 4.394832e-01 3.399137e-01 -8.314525e-01
      outer loop
         vertex 1.106147e-01 2.139383e+01 -5.000000e+01
         vertex 4.585109e-02 2.147756e+01 -5.000000e+01
         vertex 9.972641e-01 2.251296e+01 -4.907382e+01
      endloop
   endfacet
   facet normal -3.745544e-01 3.943560e-01 -8.391617e-01
      outer loop
         vertex -2.715415e-02 2.151199e+01 -5.000000e+01
         vertex -3.783997e-01 2.117838e+01 -5.000000e+01
         vertex -9.702120e-01 2.258708e+01 -4.907384e+01
      endloop
   endfacet
   facet normal -5.369870e-01 8.555231e-02 -8.392412e-01
      outer loop
         vertex -1.884119e+00 1.684204e+01 -5.000000e+01
         vertex -3.291872e+00 1.709135e+01 -4.907384e+01
         vertex -1.665201e+00 1.821612e+01 -5.000000e+01
      endloop
   endfacet
   facet normal -5.225526e-01 1.740096e-01 -8.346613e-01
      outer loop
         vertex -2.474376e+00 2.039145e+01 -4.907384e+01
         vertex -1.279813e+00 1.953629e+01 -5.000000e+01
         vertex -2.960039e+00 1.893267e+01 -4.907391e+01
      endloop
   endfacet
   facet normal 3.975575e-01 3.772550e-01 -8.364369e-01
      outer loop
         vertex 9.972641e-01 2.251296e+01 -4.907382e+01
         vertex 1.526306e+00 2.195546e+01 -4.907381e+01
         vertex 1.106147e-01 2.139383e+01 -5.000000e+01
      endloop
   endfacet
   facet normal 5.472410e-01 8.008439e-02 -8.331349e-01
      outer loop
         vertex 3.318680e+00 1.657124e+01 -4.907385e+01
         vertex 1.792520e+00 1.736504e+01 -5.000000e+01
         vertex 3.049820e+00 1.840876e+01 -4.907382e+01
      endloop
   endfacet
   facet normal -4.929783e-01 2.223488e-01 -8.411500e-01
      outer loop
         vertex -8.714842e-01 2.044161e+01 -5.000000e+01
         vertex -1.279813e+00 1.953629e+01 -5.000000e+01
         vertex -2.474376e+00 2.039145e+01 -4.907384e+01
      endloop
   endfacet
   facet normal 5.433767e-01 -5.095974e-02 -8.379408e-01
      outer loop
         vertex 1.919884e+00 1.469112e+01 -5.000000e+01
         vertex 3.347622e+00 1.468570e+01 -4.907383e+01
         vertex 3.225605e+00 1.338483e+01 -4.907384e+01
      endloop
   endfacet
   facet normal 1.873771e-01 5.128223e-01 -8.377966e-01
      outer loop
         vertex 4.585109e-02 2.147756e+01 -5.000000e+01
         vertex 1.074338e-01 2.296815e+01 -4.907383e+01
         vertex 6.244181e-01 2.277930e+01 -4.907380e+01
      endloop
   endfacet
   facet normal -4.474454e-01 3.146308e-01 -8.371380e-01
      outer loop
         vertex -3.783997e-01 2.117838e+01 -5.000000e+01
         vertex -2.019646e+00 2.130855e+01 -4.907384e+01
         vertex -1.446698e+00 2.212335e+01 -4.907384e+01
      endloop
   endfacet
   facet normal -5.468811e-01 -4.481136e-02 -8.360102e-01
      outer loop
         vertex -3.373087e+00 1.510982e+01 -4.907385e+01
         vertex -1.936800e+00 1.485968e+01 -5.000000e+01
         vertex -1.871875e+00 1.406733e+01 -5.000000e+01
      endloop
   endfacet
   facet normal 4.627258e-01 2.865397e-01 -8.389159e-01
      outer loop
         vertex 2.078913e+00 2.111203e+01 -4.907385e+01
         vertex 8.558032e-01 2.037568e+01 -5.000000e+01
         vertex 5.058928e-01 2.094074e+01 -5.000000e+01
      endloop
   endfacet
   facet normal 5.162917e-01 1.635343e-01 -8.406542e-01
      outer loop
         vertex 1.233921e+00 1.954138e+01 -5.000000e+01
         vertex 2.678202e+00 1.974234e+01 -4.907389e+01
         vertex 1.558786e+00 1.851575e+01 -5.000000e+01
      endloop
   endfacet
   facet normal 5.045122e-01 2.207675e-01 -8.347031e-01
      outer loop
         vertex 2.678202e+00 1.974234e+01 -4.907389e+01
         vertex 1.233921e+00 1.954138e+01 -5.000000e+01
         vertex 2.078913e+00 2.111203e+01 -4.907385e+01
      endloop
   endfacet
   facet normal -2.951259e-01 4.617253e-01 -8.364870e-01
      outer loop
         vertex -2.715415e-02 2.151199e+01 -5.000000e+01
         vertex -9.702120e-01 2.258708e+01 -4.907384e+01
         vertex -5.683796e-01 2.284393e+01 -4.907384e+01
      endloop
   endfacet
   facet normal -5.421431e-01 -1.781241e-03 -8.402843e-01
      outer loop
         vertex -3.373087e+00 1.510982e+01 -4.907385e+01
         vertex -1.940711e+00 1.604994e+01 -5.000000e+01
         vertex -1.936800e+00 1.485968e+01 -5.000000e+01
      endloop
   endfacet
   facet normal -5.532852e-01 2.268350e-02 -8.326830e-01
      outer loop
         vertex -3.291872e+00 1.709135e+01 -4.907384e+01
         vertex -1.940711e+00 1.604994e+01 -5.000000e+01
         vertex -3.373087e+00 1.510982e+01 -4.907385e+01
      endloop
   endfacet
   facet normal -0.000000e+00 0.000000e+00 -1.000000e+00
      outer loop
         vertex -1.825903e+00 1.367280e+01 -5.000000e+01
         vertex 1.813359e+00 1.358355e+01 -5.000000e+01
         vertex 2.590520e-16 6.808296e-01 -5.000000e+01
      endloop
   endfacet
   facet normal 0.000000e+00 -0.000000e+00 -1.000000e+00
      outer loop
         vertex -1.936800e+00 1.485968e+01 -5.000000e+01
         vertex 1.913422e+00 1.622589e+01 -5.000000e+01
         vertex 1.919884e+00 1.469112e+01 -5.000000e+01
      endloop
   endfacet
   facet normal 0.000000e+00 -0.000000e+00 -1.000000e+00
      outer loop
         vertex -1.665201e+00 1.821612e+01 -5.000000e+01
         vertex 1.558786e+00 1.851575e+01 -5.000000e+01
         vertex 1.792520e+00 1.736504e+01 -5.000000e+01
      endloop
   endfacet
   facet normal 0.000000e+00 -0.000000e+00 -1.000000e+00
      outer loop
         vertex -1.279813e+00 1.953629e+01 -5.000000e+01
         vertex 8.558032e-01 2.037568e+01 -5.000000e+01
         vertex 1.233921e+00 1.954138e+01 -5.000000e+01
      endloop
   endfacet
   facet normal 0.000000e+00 -0.000000e+00 -1.000000e+00
      outer loop
         vertex -3.783997e-01 2.117838e+01 -5.000000e+01
         vertex 1.106147e-01 2.139383e+01 -5.000000e+01
         vertex 5.058928e-01 2.094074e+01 -5.000000e+01
      endloop
   endfacet
   facet normal 0.000000e+00 0.000000e+00 -1.000000e+00
      outer loop
         vertex 1.106147e-01 2.139383e+01 -5.000000e+01
         vertex -2.715415e-02 2.151199e+01 -5.000000e+01
         vertex 4.585109e-02 2.147756e+01 -5.000000e+01
      endloop
   endfacet
   facet normal 0.000000e+00 0.000000e+00 -1.000000e+00
      outer loop
         vertex 8.558032e-01 2.037568e+01 -5.000000e+01
         vertex -1.279813e+00 1.953629e+01 -5.000000e+01
         vertex -8.714842e-01 2.044161e+01 -5.000000e+01
      endloop
   endfacet
   facet normal 0.000000e+00 0.000000e+00 -1.000000e+00
      outer loop
         vertex 1.792520e+00 1.736504e+01 -5.000000e+01
         vertex -1.884119e+00 1.684204e+01 -5.000000e+01
         vertex -1.665201e+00 1.821612e+01 -5.000000e+01
      endloop
   endfacet
   facet normal 0.000000e+00 0.000000e+00 -1.000000e+00
      outer loop
         vertex 1.913422e+00 1.622589e+01 -5.000000e+01
         vertex -1.936800e+00 1.485968e+01 -5.000000e+01
         vertex -1.940711e+00 1.604994e+01 -5.000000e+01
      endloop
   endfacet
   facet normal 0.000000e+00 0.000000e+00 -1.000000e+00
      outer loop
         vertex 1.813359e+00 1.358355e+01 -5.000000e+01
         vertex -1.825903e+00 1.367280e+01 -5.000000e+01
         vertex -1.871875e+00 1.406733e+01 -5.000000e+01
      endloop
   endfacet
   facet normal -0.000000e+00 0.000000e+00 -1.000000e+00
      outer loop
         vertex -1.279813e+00 1.953629e+01 -5.000000e+01
         vertex 1.558786e+00 1.851575e+01 -5.000000e+01
         vertex -1.665201e+00 1.821612e+01 -5.000000e+01
      endloop
   endfacet
   facet normal -0.000000e+00 0.000000e+00 -1.000000e+00
      outer loop
         vertex -2.715415e-02 2.151199e+01 -5.000000e+01
         vertex 1.106147e-01 2.139383e+01 -5.000000e+01
         vertex -3.783997e-01 2.117838e+01 -5.000000e+01
      endloop
   endfacet
   facet normal -0.000000e+00 0.000000e+00 -1.000000e+00
      outer loop
         vertex -1.884119e+00 1.684204e+01 -5.000000e+01
         vertex 1.913422e+00 1.622589e+01 -5.000000e+01
         vertex -1.940711e+00 1.604994e+01 -5.000000e+01
      endloop
   endfacet
   facet normal 0.000000e+00 0.000000e+00 -1.000000e+00
      outer loop
         vertex 1.792520e+00 1.736504e+01 -5.000000e+01
         vertex 1.913422e+00 1.622589e+01 -5.000000e+01
         vertex -1.884119e+00 1.684204e+01 -5.000000e+01
      endloop
   endfacet
   facet normal 0.000000e+00 0.000000e+00 -1.000000e+00
      outer loop
         vertex -1.871875e+00 1.406733e+01 -5.000000e+01
         vertex 1.919884e+00 1.469112e+01 -5.000000e+01
         vertex 1.813359e+00 1.358355e+01 -5.000000e+01
      endloop
   endfacet
   facet normal 0.000000e+00 -0.000000e+00 -1.000000e+00
      outer loop
         vertex -8.714842e-01 2.044161e+01 -5.000000e+01
         vertex 5.058928e-01 2.094074e+01 -5.000000e+01
         vertex 8.558032e-01 2.037568e+01 -5.000000e+01
      endloop
   endfacet
   facet normal 0.000000e+00 0.000000e+00 -1.000000e+00
      outer loop
         vertex 1.919884e+00 1.469112e+01 -5.000000e+01
         vertex -1.871875e+00 1.406733e+01 -5.000000e+01
         vertex -1.936800e+00 1.485968e+01 -5.000000e+01
      endloop
   endfacet
   facet normal 0.000000e+00 -0.000000e+00 -1.000000e+00
      outer loop
         vertex -8.714842e-01 2.044161e+01 -5.000000e+01
         vertex -3.783997e-01 2.117838e+01 -5.000000e+01
         vertex 5.058928e-01 2.094074e+01 -5.000000e+01
      endloop
   endfacet
   facet normal 0.000000e+00 -0.000000e+00 -1.000000e+00
      outer loop
         vertex -1.279813e+00 1.953629e+01 -5.000000e+01
         vertex 1.233921e+00 1.954138e+01 -5.000000e+01
         vertex 1.558786e+00 1.851575e+01 -5.000000e+01
      endloop
   endfacet
   facet normal -7.002252e-01 -9.841024e-02 7.071068e-01
      outer loop
         vertex -4.301488e+00 1.332427e+01 3.700743e-16
         vertex -5.291756e+00 1.318509e+01 -1.000000e+00
         vertex -7.623531e-15 -1.728241e+01 4.440892e-16
      endloop
   endfacet
   facet normal -7.002253e-01 -9.841024e-02 7.071068e-01
      outer loop
         vertex -6.903413e-15 -2.446771e+01 -1.000000e+00
         vertex -7.623531e-15 -1.728241e+01 4.440892e-16
         vertex -5.291756e+00 1.318509e+01 -1.000000e+00
      endloop
   endfacet
   facet normal 7.002253e-01 -9.841024e-02 7.071068e-01
      outer loop
         vertex -7.623531e-15 -1.728241e+01 4.440892e-16
         vertex -6.903413e-15 -2.446771e+01 -1.000000e+00
         vertex 5.279264e+00 1.309621e+01 -1.000000e+00
      endloop
   endfacet
   facet normal 7.002254e-01 -9.841027e-02 7.071066e-01
      outer loop
         vertex 4.288997e+00 1.323538e+01 7.401487e-17
         vertex -7.623531e-15 -1.728241e+01 4.440892e-16
         vertex 5.279264e+00 1.309621e+01 -1.000000e+00
      endloop
   endfacet
   facet normal 7.013984e-01 -8.987511e-02 7.070804e-01
      outer loop
         vertex 4.335416e+00 1.359765e+01 0.000000e+00
         vertex 4.288997e+00 1.323538e+01 7.401487e-17
         vertex 5.279264e+00 1.309621e+01 -1.000000e+00
      endloop
   endfacet
   facet normal 7.107344e-01 -4.378972e-03 7.034469e-01
      outer loop
         vertex 5.412580e+00 1.446154e+01 -1.000000e+00
         vertex 4.431571e+00 1.587969e+01 0.000000e+00
         vertex 4.424473e+00 1.472769e+01 0.000000e+00
      endloop
   endfacet
   facet normal 6.970057e-01 9.741048e-02 7.104184e-01
      outer loop
         vertex 5.246817e+00 1.792998e+01 -1.000000e+00
         vertex 4.199625e+00 1.812996e+01 0.000000e+00
         vertex 4.359092e+00 1.698892e+01 0.000000e+00
      endloop
   endfacet
   facet normal 6.803941e-01 2.078777e-01 7.027452e-01
      outer loop
         vertex 4.528268e+00 2.072487e+01 -1.000000e+00
         vertex 3.657580e+00 2.019411e+01 0.000000e+00
         vertex 3.979364e+00 1.914089e+01 0.000000e+00
      endloop
   endfacet
   facet normal 6.347357e-01 3.362904e-01 6.957150e-01
      outer loop
         vertex 3.485519e+00 2.278610e+01 -1.000000e+00
         vertex 2.822851e+00 2.196807e+01 0.000000e+00
         vertex 3.320116e+00 2.102950e+01 0.000000e+00
      endloop
   endfacet
   facet normal 5.219366e-01 4.922493e-01 6.966153e-01
      outer loop
         vertex 2.252885e+00 2.416591e+01 -1.000000e+00
         vertex 1.764099e+00 2.326901e+01 0.000000e+00
         vertex 2.334800e+00 2.266389e+01 0.000000e+00
      endloop
   endfacet
   facet normal 3.215074e-01 6.417171e-01 6.962989e-01
      outer loop
         vertex 8.789742e-01 2.491594e+01 -1.000000e+00
         vertex 6.852066e-01 2.392797e+01 0.000000e+00
         vertex 1.329766e+00 2.360503e+01 0.000000e+00
      endloop
   endfacet
   facet normal -6.521184e-02 7.050696e-01 7.061334e-01
      outer loop
         vertex -7.114798e-01 2.497719e+01 -1.000000e+00
         vertex -5.327875e-01 2.399221e+01 0.000000e+00
         vertex 7.849663e-02 2.404875e+01 0.000000e+00
      endloop
   endfacet
   facet normal -4.030350e-01 5.784033e-01 7.092337e-01
      outer loop
         vertex -2.264242e+00 2.420776e+01 -1.000000e+00
         vertex -1.722339e+00 2.335917e+01 0.000000e+00
         vertex -1.188114e+00 2.373142e+01 0.000000e+00
      endloop
   endfacet
   facet normal -5.653382e-01 4.393236e-01 6.981314e-01
      outer loop
         vertex -3.656890e+00 2.260757e+01 -1.000000e+00
         vertex -2.674400e+00 2.228277e+01 0.000000e+00
         vertex -2.201580e+00 2.289121e+01 0.000000e+00
      endloop
   endfacet
   facet normal -6.642111e-01 2.621796e-01 7.000610e-01
      outer loop
         vertex -4.791223e+00 2.007722e+01 -1.000000e+00
         vertex -3.756686e+00 2.002798e+01 0.000000e+00
         vertex -3.321151e+00 2.113137e+01 0.000000e+00
      endloop
   endfacet
   facet normal -7.196034e-01 1.384280e-01 6.804474e-01
      outer loop
         vertex -4.791223e+00 2.007722e+01 -1.000000e+00
         vertex -4.278708e+00 1.782594e+01 0.000000e+00
         vertex -4.065711e+00 1.893319e+01 0.000000e+00
      endloop
   endfacet
   facet normal -7.056545e-01 2.002290e-02 7.082731e-01
      outer loop
         vertex -5.410615e+00 1.668003e+01 -1.000000e+00
         vertex -4.449104e+00 1.519281e+01 0.000000e+00
         vertex -4.406257e+00 1.670285e+01 0.000000e+00
      endloop
   endfacet
   facet normal -7.055618e-01 -5.573972e-02 7.064529e-01
      outer loop
         vertex -4.449104e+00 1.519281e+01 0.000000e+00
         vertex -5.291756e+00 1.318509e+01 -1.000000e+00
         vertex -4.301488e+00 1.332427e+01 3.700743e-16
      endloop
   endfacet
   facet normal -6.748165e-01 3.025143e-01 6.731328e-01
      outer loop
         vertex -3.321151e+00 2.113137e+01 0.000000e+00
         vertex -3.656890e+00 2.260757e+01 -1.000000e+00
         vertex -4.791223e+00 2.007722e+01 -1.000000e+00
      endloop
   endfacet
   facet normal -3.292683e-01 6.644826e-01 6.708542e-01
      outer loop
         vertex -1.188114e+00 2.373142e+01 0.000000e+00
         vertex -7.114798e-01 2.497719e+01 -1.000000e+00
         vertex -2.264242e+00 2.420776e+01 -1.000000e+00
      endloop
   endfacet
   facet normal 3.500659e-01 6.412563e-01 6.828208e-01
      outer loop
         vertex 1.329766e+00 2.360503e+01 0.000000e+00
         vertex 2.252885e+00 2.416591e+01 -1.000000e+00
         vertex 8.789742e-01 2.491594e+01 -1.000000e+00
      endloop
   endfacet
   facet normal 6.499907e-01 3.288220e-01 6.851191e-01
      outer loop
         vertex 3.320116e+00 2.102950e+01 0.000000e+00
         vertex 4.528268e+00 2.072487e+01 -1.000000e+00
         vertex 3.485519e+00 2.278610e+01 -1.000000e+00
      endloop
   endfacet
   facet normal 7.379565e-01 3.526829e-02 6.739261e-01
      outer loop
         vertex 4.431571e+00 1.587969e+01 0.000000e+00
         vertex 5.412580e+00 1.446154e+01 -1.000000e+00
         vertex 5.246817e+00 1.792998e+01 -1.000000e+00
      endloop
   endfacet
   facet normal 7.028226e-01 -5.538882e-02 7.092055e-01
      outer loop
         vertex 4.335416e+00 1.359765e+01 0.000000e+00
         vertex 5.412580e+00 1.446154e+01 -1.000000e+00
         vertex 4.424473e+00 1.472769e+01 0.000000e+00
      endloop
   endfacet
   facet normal 6.536348e-01 2.640413e-01 7.092558e-01
      outer loop
         vertex 3.320116e+00 2.102950e+01 0.000000e+00
         vertex 3.657580e+00 2.019411e+01 0.000000e+00
         vertex 4.528268e+00 2.072487e+01 -1.000000e+00
      endloop
   endfacet
   facet normal 4.308520e-01 5.569064e-01 7.100858e-01
      outer loop
         vertex 1.329766e+00 2.360503e+01 0.000000e+00
         vertex 1.764099e+00 2.326901e+01 0.000000e+00
         vertex 2.252885e+00 2.416591e+01 -1.000000e+00
      endloop
   endfacet
   facet normal -4.975402e-01 5.095424e-01 7.020116e-01
      outer loop
         vertex -2.201580e+00 2.289121e+01 0.000000e+00
         vertex -1.722339e+00 2.335917e+01 0.000000e+00
         vertex -2.264242e+00 2.420776e+01 -1.000000e+00
      endloop
   endfacet
   facet normal -6.774575e-01 1.912243e-01 7.102708e-01
      outer loop
         vertex -4.065711e+00 1.893319e+01 0.000000e+00
         vertex -3.756686e+00 2.002798e+01 0.000000e+00
         vertex -4.791223e+00 2.007722e+01 -1.000000e+00
      endloop
   endfacet
   facet normal -7.390285e-01 -2.513354e-02 6.732051e-01
      outer loop
         vertex -5.291756e+00 1.318509e+01 -1.000000e+00
         vertex -4.449104e+00 1.519281e+01 0.000000e+00
         vertex -5.410615e+00 1.668003e+01 -1.000000e+00
      endloop
   endfacet
   facet normal 7.244706e-01 4.733809e-02 6.876783e-01
      outer loop
         vertex 4.359092e+00 1.698892e+01 0.000000e+00
         vertex 4.431571e+00 1.587969e+01 0.000000e+00
         vertex 5.246817e+00 1.792998e+01 -1.000000e+00
      endloop
   endfacet
   facet normal 6.976269e-01 1.519985e-01 7.001522e-01
      outer loop
         vertex 5.246817e+00 1.792998e+01 -1.000000e+00
         vertex 3.979364e+00 1.914089e+01 0.000000e+00
         vertex 4.199625e+00 1.812996e+01 0.000000e+00
      endloop
   endfacet
   facet normal 1.375902e-01 6.911465e-01 7.094967e-01
      outer loop
         vertex 8.789742e-01 2.491594e+01 -1.000000e+00
         vertex 7.849663e-02 2.404875e+01 0.000000e+00
         vertex 6.852066e-01 2.392797e+01 0.000000e+00
      endloop
   endfacet
   facet normal -6.116937e-01 3.435944e-01 7.125824e-01
      outer loop
         vertex -3.656890e+00 2.260757e+01 -1.000000e+00
         vertex -3.321151e+00 2.113137e+01 0.000000e+00
         vertex -2.674400e+00 2.228277e+01 0.000000e+00
      endloop
   endfacet
   facet normal -7.283316e-01 1.327928e-01 6.722344e-01
      outer loop
         vertex -4.278708e+00 1.782594e+01 0.000000e+00
         vertex -4.791223e+00 2.007722e+01 -1.000000e+00
         vertex -5.410615e+00 1.668003e+01 -1.000000e+00
      endloop
   endfacet
   facet normal 2.864086e-02 7.437204e-01 6.678770e-01
      outer loop
         vertex 7.849663e-02 2.404875e+01 0.000000e+00
         vertex 8.789742e-01 2.491594e+01 -1.000000e+00
         vertex -7.114798e-01 2.497719e+01 -1.000000e+00
      endloop
   endfacet
   facet normal 7.106168e-01 1.826949e-01 6.794456e-01
      outer loop
         vertex 3.979364e+00 1.914089e+01 0.000000e+00
         vertex 5.246817e+00 1.792998e+01 -1.000000e+00
         vertex 4.528268e+00 2.072487e+01 -1.000000e+00
      endloop
   endfacet
   facet normal 5.753644e-01 4.035626e-01 7.114022e-01
      outer loop
         vertex 2.334800e+00 2.266389e+01 0.000000e+00
         vertex 2.822851e+00 2.196807e+01 0.000000e+00
         vertex 3.485519e+00 2.278610e+01 -1.000000e+00
      endloop
   endfacet
   facet normal -7.042193e-01 7.997749e-02 7.054635e-01
      outer loop
         vertex -4.278708e+00 1.782594e+01 0.000000e+00
         vertex -5.410615e+00 1.668003e+01 -1.000000e+00
         vertex -4.406257e+00 1.670285e+01 0.000000e+00
      endloop
   endfacet
   facet normal -2.639182e-01 6.631826e-01 7.003828e-01
      outer loop
         vertex -7.114798e-01 2.497719e+01 -1.000000e+00
         vertex -1.188114e+00 2.373142e+01 0.000000e+00
         vertex -5.327875e-01 2.399221e+01 0.000000e+00
      endloop
   endfacet
   facet normal 5.434960e-01 4.855237e-01 6.847473e-01
      outer loop
         vertex 2.334800e+00 2.266389e+01 0.000000e+00
         vertex 3.485519e+00 2.278610e+01 -1.000000e+00
         vertex 2.252885e+00 2.416591e+01 -1.000000e+00
      endloop
   endfacet
   facet normal 7.079556e-01 -6.912754e-02 7.028658e-01
      outer loop
         vertex 5.279264e+00 1.309621e+01 -1.000000e+00
         vertex 5.412580e+00 1.446154e+01 -1.000000e+00
         vertex 4.335416e+00 1.359765e+01 0.000000e+00
      endloop
   endfacet
   facet normal -5.574694e-01 4.851678e-01 6.736766e-01
      outer loop
         vertex -2.201580e+00 2.289121e+01 0.000000e+00
         vertex -2.264242e+00 2.420776e+01 -1.000000e+00
         vertex -3.656890e+00 2.260757e+01 -1.000000e+00
      endloop
   endfacet
endsolid
