solid 
   facet normal 0.000000e+00 0.000000e+00 1.000000e+00
      outer loop
         vertex 3.259372e+01 -5.162337e+00 2.600000e+01
         vertex 3.300000e+01 0.000000e+00 2.600000e+01
         vertex 1.200000e+01 -1.400000e+01 2.600000e+01
      endloop
   endfacet
   facet normal 0.000000e+00 0.000000e+00 1.000000e+00
      outer loop
         vertex 3.259372e+01 5.162337e+00 2.600000e+01
         vertex 3.138486e+01 1.019756e+01 2.600000e+01
         vertex 1.200000e+01 1.400000e+01 2.600000e+01
      endloop
   endfacet
   facet normal 0.000000e+00 0.000000e+00 1.000000e+00
      outer loop
         vertex 2.940322e+01 1.498169e+01 2.600000e+01
         vertex 2.669756e+01 1.939691e+01 2.600000e+01
         vertex 1.200000e+01 1.400000e+01 2.600000e+01
      endloop
   endfacet
   facet normal 0.000000e+00 0.000000e+00 1.000000e+00
      outer loop
         vertex 2.333452e+01 2.333452e+01 2.600000e+01
         vertex 1.939691e+01 2.669756e+01 2.600000e+01
         vertex 1.200000e+01 1.400000e+01 2.600000e+01
      endloop
   endfacet
   facet normal 0.000000e+00 0.000000e+00 1.000000e+00
      outer loop
         vertex 1.498169e+01 2.940322e+01 2.600000e+01
         vertex 1.019756e+01 3.138486e+01 2.600000e+01
         vertex 1.200000e+01 1.400000e+01 2.600000e+01
      endloop
   endfacet
   facet normal 0.000000e+00 0.000000e+00 1.000000e+00
      outer loop
         vertex 5.162337e+00 3.259372e+01 2.600000e+01
         vertex 2.020667e-15 3.300000e+01 2.600000e+01
         vertex 1.200000e+01 1.400000e+01 2.600000e+01
      endloop
   endfacet
   facet normal -0.000000e+00 0.000000e+00 1.000000e+00
      outer loop
         vertex -5.162337e+00 3.259372e+01 2.600000e+01
         vertex -1.019756e+01 3.138486e+01 2.600000e+01
         vertex -1.200000e+01 1.400000e+01 2.600000e+01
      endloop
   endfacet
   facet normal -0.000000e+00 0.000000e+00 1.000000e+00
      outer loop
         vertex -1.498169e+01 2.940322e+01 2.600000e+01
         vertex -1.939691e+01 2.669756e+01 2.600000e+01
         vertex -1.200000e+01 1.400000e+01 2.600000e+01
      endloop
   endfacet
   facet normal -0.000000e+00 0.000000e+00 1.000000e+00
      outer loop
         vertex -2.333452e+01 2.333452e+01 2.600000e+01
         vertex -2.669756e+01 1.939691e+01 2.600000e+01
         vertex -1.200000e+01 1.400000e+01 2.600000e+01
      endloop
   endfacet
   facet normal 0.000000e+00 0.000000e+00 1.000000e+00
      outer loop
         vertex -2.940322e+01 1.498169e+01 2.600000e+01
         vertex -3.138486e+01 1.019756e+01 2.600000e+01
         vertex -1.200000e+01 1.400000e+01 2.600000e+01
      endloop
   endfacet
   facet normal 0.000000e+00 0.000000e+00 1.000000e+00
      outer loop
         vertex -3.259372e+01 5.162337e+00 2.600000e+01
         vertex -3.300000e+01 4.041334e-15 2.600000e+01
         vertex -1.200000e+01 1.400000e+01 2.600000e+01
      endloop
   endfacet
   facet normal -0.000000e+00 -0.000000e+00 1.000000e+00
      outer loop
         vertex -3.259372e+01 -5.162337e+00 2.600000e+01
         vertex -3.138486e+01 -1.019756e+01 2.600000e+01
         vertex -1.200000e+01 -1.400000e+01 2.600000e+01
      endloop
   endfacet
   facet normal 0.000000e+00 -0.000000e+00 1.000000e+00
      outer loop
         vertex -2.940322e+01 -1.498169e+01 2.600000e+01
         vertex -2.669756e+01 -1.939691e+01 2.600000e+01
         vertex -1.200000e+01 -1.400000e+01 2.600000e+01
      endloop
   endfacet
   facet normal 0.000000e+00 -0.000000e+00 1.000000e+00
      outer loop
         vertex -2.333452e+01 -2.333452e+01 2.600000e+01
         vertex -1.939691e+01 -2.669756e+01 2.600000e+01
         vertex -1.200000e+01 -1.400000e+01 2.600000e+01
      endloop
   endfacet
   facet normal 0.000000e+00 0.000000e+00 1.000000e+00
      outer loop
         vertex -1.498169e+01 -2.940322e+01 2.600000e+01
         vertex -1.019756e+01 -3.138486e+01 2.600000e+01
         vertex -1.200000e+01 -1.400000e+01 2.600000e+01
      endloop
   endfacet
   facet normal 0.000000e+00 0.000000e+00 1.000000e+00
      outer loop
         vertex -5.162337e+00 -3.259372e+01 2.600000e+01
         vertex -6.062002e-15 -3.300000e+01 2.600000e+01
         vertex -1.200000e+01 -1.400000e+01 2.600000e+01
      endloop
   endfacet
   facet normal 0.000000e+00 -0.000000e+00 1.000000e+00
      outer loop
         vertex 5.162337e+00 -3.259372e+01 2.600000e+01
         vertex 1.019756e+01 -3.138486e+01 2.600000e+01
         vertex 1.200000e+01 -1.400000e+01 2.600000e+01
      endloop
   endfacet
   facet normal 0.000000e+00 0.000000e+00 1.000000e+00
      outer loop
         vertex 1.498169e+01 -2.940322e+01 2.600000e+01
         vertex 1.939691e+01 -2.669756e+01 2.600000e+01
         vertex 1.200000e+01 -1.400000e+01 2.600000e+01
      endloop
   endfacet
   facet normal 0.000000e+00 0.000000e+00 1.000000e+00
      outer loop
         vertex 2.333452e+01 -2.333452e+01 2.600000e+01
         vertex 2.669756e+01 -1.939691e+01 2.600000e+01
         vertex 1.200000e+01 -1.400000e+01 2.600000e+01
      endloop
   endfacet
   facet normal 0.000000e+00 0.000000e+00 1.000000e+00
      outer loop
         vertex 2.940322e+01 -1.498169e+01 2.600000e+01
         vertex 3.138486e+01 -1.019756e+01 2.600000e+01
         vertex 1.200000e+01 -1.400000e+01 2.600000e+01
      endloop
   endfacet
   facet normal 0.000000e+00 0.000000e+00 1.000000e+00
      outer loop
         vertex -1.200000e+01 1.400000e+01 2.600000e+01
         vertex 1.200000e+01 1.400000e+01 2.600000e+01
         vertex 2.020667e-15 3.300000e+01 2.600000e+01
      endloop
   endfacet
   facet normal -0.000000e+00 0.000000e+00 1.000000e+00
      outer loop
         vertex 1.200000e+01 -1.400000e+01 2.600000e+01
         vertex -1.200000e+01 -1.400000e+01 2.600000e+01
         vertex -6.062002e-15 -3.300000e+01 2.600000e+01
      endloop
   endfacet
   facet normal 0.000000e+00 0.000000e+00 1.000000e+00
      outer loop
         vertex 3.259372e+01 -5.162337e+00 2.600000e+01
         vertex 1.200000e+01 -1.400000e+01 2.600000e+01
         vertex 3.138486e+01 -1.019756e+01 2.600000e+01
      endloop
   endfacet
   facet normal 0.000000e+00 0.000000e+00 1.000000e+00
      outer loop
         vertex 1.200000e+01 1.400000e+01 2.600000e+01
         vertex 3.138486e+01 1.019756e+01 2.600000e+01
         vertex 2.940322e+01 1.498169e+01 2.600000e+01
      endloop
   endfacet
   facet normal 0.000000e+00 0.000000e+00 1.000000e+00
      outer loop
         vertex 1.200000e+01 1.400000e+01 2.600000e+01
         vertex 1.939691e+01 2.669756e+01 2.600000e+01
         vertex 1.498169e+01 2.940322e+01 2.600000e+01
      endloop
   endfacet
   facet normal 0.000000e+00 0.000000e+00 1.000000e+00
      outer loop
         vertex -5.162337e+00 3.259372e+01 2.600000e+01
         vertex -1.200000e+01 1.400000e+01 2.600000e+01
         vertex 2.020667e-15 3.300000e+01 2.600000e+01
      endloop
   endfacet
   facet normal 0.000000e+00 0.000000e+00 1.000000e+00
      outer loop
         vertex -1.200000e+01 1.400000e+01 2.600000e+01
         vertex -1.939691e+01 2.669756e+01 2.600000e+01
         vertex -2.333452e+01 2.333452e+01 2.600000e+01
      endloop
   endfacet
   facet normal -0.000000e+00 0.000000e+00 1.000000e+00
      outer loop
         vertex -1.200000e+01 1.400000e+01 2.600000e+01
         vertex -3.138486e+01 1.019756e+01 2.600000e+01
         vertex -3.259372e+01 5.162337e+00 2.600000e+01
      endloop
   endfacet
   facet normal 0.000000e+00 0.000000e+00 1.000000e+00
      outer loop
         vertex -1.200000e+01 -1.400000e+01 2.600000e+01
         vertex -3.138486e+01 -1.019756e+01 2.600000e+01
         vertex -2.940322e+01 -1.498169e+01 2.600000e+01
      endloop
   endfacet
   facet normal -0.000000e+00 0.000000e+00 1.000000e+00
      outer loop
         vertex -1.200000e+01 -1.400000e+01 2.600000e+01
         vertex -1.939691e+01 -2.669756e+01 2.600000e+01
         vertex -1.498169e+01 -2.940322e+01 2.600000e+01
      endloop
   endfacet
   facet normal 0.000000e+00 0.000000e+00 1.000000e+00
      outer loop
         vertex 5.162337e+00 -3.259372e+01 2.600000e+01
         vertex 1.200000e+01 -1.400000e+01 2.600000e+01
         vertex -6.062002e-15 -3.300000e+01 2.600000e+01
      endloop
   endfacet
   facet normal 0.000000e+00 -0.000000e+00 1.000000e+00
      outer loop
         vertex 1.200000e+01 -1.400000e+01 2.600000e+01
         vertex 1.939691e+01 -2.669756e+01 2.600000e+01
         vertex 2.333452e+01 -2.333452e+01 2.600000e+01
      endloop
   endfacet
   facet normal 0.000000e+00 0.000000e+00 1.000000e+00
      outer loop
         vertex 3.300000e+01 0.000000e+00 2.600000e+01
         vertex 3.259372e+01 5.162337e+00 2.600000e+01
         vertex 1.200000e+01 1.400000e+01 2.600000e+01
      endloop
   endfacet
   facet normal 0.000000e+00 0.000000e+00 1.000000e+00
      outer loop
         vertex 1.019756e+01 3.138486e+01 2.600000e+01
         vertex 5.162337e+00 3.259372e+01 2.600000e+01
         vertex 1.200000e+01 1.400000e+01 2.600000e+01
      endloop
   endfacet
   facet normal -0.000000e+00 0.000000e+00 1.000000e+00
      outer loop
         vertex -2.669756e+01 1.939691e+01 2.600000e+01
         vertex -2.940322e+01 1.498169e+01 2.600000e+01
         vertex -1.200000e+01 1.400000e+01 2.600000e+01
      endloop
   endfacet
   facet normal 0.000000e+00 -0.000000e+00 1.000000e+00
      outer loop
         vertex -2.669756e+01 -1.939691e+01 2.600000e+01
         vertex -2.333452e+01 -2.333452e+01 2.600000e+01
         vertex -1.200000e+01 -1.400000e+01 2.600000e+01
      endloop
   endfacet
   facet normal 0.000000e+00 0.000000e+00 1.000000e+00
      outer loop
         vertex 1.019756e+01 -3.138486e+01 2.600000e+01
         vertex 1.498169e+01 -2.940322e+01 2.600000e+01
         vertex 1.200000e+01 -1.400000e+01 2.600000e+01
      endloop
   endfacet
   facet normal 0.000000e+00 0.000000e+00 1.000000e+00
      outer loop
         vertex 1.200000e+01 1.400000e+01 2.600000e+01
         vertex 1.200000e+01 -1.400000e+01 2.600000e+01
         vertex 3.300000e+01 0.000000e+00 2.600000e+01
      endloop
   endfacet
   facet normal 0.000000e+00 0.000000e+00 1.000000e+00
      outer loop
         vertex 1.200000e+01 1.400000e+01 2.600000e+01
         vertex 2.669756e+01 1.939691e+01 2.600000e+01
         vertex 2.333452e+01 2.333452e+01 2.600000e+01
      endloop
   endfacet
   facet normal -0.000000e+00 0.000000e+00 1.000000e+00
      outer loop
         vertex -1.200000e+01 1.400000e+01 2.600000e+01
         vertex -3.300000e+01 4.041334e-15 2.600000e+01
         vertex -1.200000e+01 -1.400000e+01 2.600000e+01
      endloop
   endfacet
   facet normal 0.000000e+00 0.000000e+00 1.000000e+00
      outer loop
         vertex -5.162337e+00 -3.259372e+01 2.600000e+01
         vertex -1.200000e+01 -1.400000e+01 2.600000e+01
         vertex -1.019756e+01 -3.138486e+01 2.600000e+01
      endloop
   endfacet
   facet normal -0.000000e+00 0.000000e+00 1.000000e+00
      outer loop
         vertex -1.019756e+01 3.138486e+01 2.600000e+01
         vertex -1.498169e+01 2.940322e+01 2.600000e+01
         vertex -1.200000e+01 1.400000e+01 2.600000e+01
      endloop
   endfacet
   facet normal 0.000000e+00 0.000000e+00 1.000000e+00
      outer loop
         vertex 2.669756e+01 -1.939691e+01 2.600000e+01
         vertex 2.940322e+01 -1.498169e+01 2.600000e+01
         vertex 1.200000e+01 -1.400000e+01 2.600000e+01
      endloop
   endfacet
   facet normal 0.000000e+00 0.000000e+00 1.000000e+00
      outer loop
         vertex -1.200000e+01 -1.400000e+01 2.600000e+01
         vertex -3.300000e+01 4.041334e-15 2.600000e+01
         vertex -3.259372e+01 -5.162337e+00 2.600000e+01
      endloop
   endfacet
   facet normal -0.000000e+00 -0.000000e+00 -1.000000e+00
      outer loop
         vertex 1.200000e+01 1.400000e+01 2.300000e+01
         vertex 2.959084e+01 4.937838e+00 2.300000e+01
         vertex 3.000000e+01 0.000000e+00 2.300000e+01
      endloop
   endfacet
   facet normal 0.000000e+00 -0.000000e+00 -1.000000e+00
      outer loop
         vertex 1.200000e+01 1.400000e+01 2.300000e+01
         vertex 2.638421e+01 1.427842e+01 2.300000e+01
         vertex 2.837452e+01 9.740984e+00 2.300000e+01
      endloop
   endfacet
   facet normal 0.000000e+00 -0.000000e+00 -1.000000e+00
      outer loop
         vertex 1.200000e+01 1.400000e+01 2.300000e+01
         vertex 2.031845e+01 2.207172e+01 2.300000e+01
         vertex 2.367422e+01 1.842638e+01 2.300000e+01
      endloop
   endfacet
   facet normal 0.000000e+00 -0.000000e+00 -1.000000e+00
      outer loop
         vertex 1.200000e+01 1.400000e+01 2.300000e+01
         vertex 1.205086e+01 2.747320e+01 2.300000e+01
         vertex 1.640845e+01 2.511499e+01 2.300000e+01
      endloop
   endfacet
   facet normal 0.000000e+00 0.000000e+00 -1.000000e+00
      outer loop
         vertex 1.200000e+01 1.400000e+01 2.300000e+01
         vertex 2.477380e+00 2.989754e+01 2.300000e+01
         vertex 7.364564e+00 2.908201e+01 2.300000e+01
      endloop
   endfacet
   facet normal 0.000000e+00 -0.000000e+00 -1.000000e+00
      outer loop
         vertex -1.200000e+01 1.400000e+01 2.300000e+01
         vertex -7.364564e+00 2.908201e+01 2.300000e+01
         vertex -2.477380e+00 2.989754e+01 2.300000e+01
      endloop
   endfacet
   facet normal 0.000000e+00 0.000000e+00 -1.000000e+00
      outer loop
         vertex -1.200000e+01 1.400000e+01 2.300000e+01
         vertex -1.640845e+01 2.511499e+01 2.300000e+01
         vertex -1.205086e+01 2.747320e+01 2.300000e+01
      endloop
   endfacet
   facet normal 0.000000e+00 0.000000e+00 -1.000000e+00
      outer loop
         vertex -1.200000e+01 1.400000e+01 2.300000e+01
         vertex -2.367422e+01 1.842638e+01 2.300000e+01
         vertex -2.031845e+01 2.207172e+01 2.300000e+01
      endloop
   endfacet
   facet normal 0.000000e+00 0.000000e+00 -1.000000e+00
      outer loop
         vertex -1.200000e+01 1.400000e+01 2.300000e+01
         vertex -2.837452e+01 9.740984e+00 2.300000e+01
         vertex -2.638421e+01 1.427842e+01 2.300000e+01
      endloop
   endfacet
   facet normal 0.000000e+00 0.000000e+00 -1.000000e+00
      outer loop
         vertex -1.200000e+01 1.400000e+01 2.300000e+01
         vertex -3.000000e+01 3.673940e-15 2.300000e+01
         vertex -2.959084e+01 4.937838e+00 2.300000e+01
      endloop
   endfacet
   facet normal 0.000000e+00 0.000000e+00 -1.000000e+00
      outer loop
         vertex -1.200000e+01 -1.400000e+01 2.300000e+01
         vertex -2.837452e+01 -9.740984e+00 2.300000e+01
         vertex -2.959084e+01 -4.937838e+00 2.300000e+01
      endloop
   endfacet
   facet normal 0.000000e+00 0.000000e+00 -1.000000e+00
      outer loop
         vertex -1.200000e+01 -1.400000e+01 2.300000e+01
         vertex -2.367422e+01 -1.842638e+01 2.300000e+01
         vertex -2.638421e+01 -1.427842e+01 2.300000e+01
      endloop
   endfacet
   facet normal 0.000000e+00 0.000000e+00 -1.000000e+00
      outer loop
         vertex -1.200000e+01 -1.400000e+01 2.300000e+01
         vertex -1.640845e+01 -2.511499e+01 2.300000e+01
         vertex -2.031845e+01 -2.207172e+01 2.300000e+01
      endloop
   endfacet
   facet normal 0.000000e+00 0.000000e+00 -1.000000e+00
      outer loop
         vertex -1.200000e+01 -1.400000e+01 2.300000e+01
         vertex -7.364564e+00 -2.908201e+01 2.300000e+01
         vertex -1.205086e+01 -2.747320e+01 2.300000e+01
      endloop
   endfacet
   facet normal 0.000000e+00 0.000000e+00 -1.000000e+00
      outer loop
         vertex -1.200000e+01 -1.400000e+01 2.300000e+01
         vertex 2.477380e+00 -2.989754e+01 2.300000e+01
         vertex -2.477380e+00 -2.989754e+01 2.300000e+01
      endloop
   endfacet
   facet normal -0.000000e+00 0.000000e+00 -1.000000e+00
      outer loop
         vertex 1.200000e+01 -1.400000e+01 2.300000e+01
         vertex 1.205086e+01 -2.747320e+01 2.300000e+01
         vertex 7.364564e+00 -2.908201e+01 2.300000e+01
      endloop
   endfacet
   facet normal -0.000000e+00 0.000000e+00 -1.000000e+00
      outer loop
         vertex 1.200000e+01 -1.400000e+01 2.300000e+01
         vertex 2.031845e+01 -2.207172e+01 2.300000e+01
         vertex 1.640845e+01 -2.511499e+01 2.300000e+01
      endloop
   endfacet
   facet normal -0.000000e+00 0.000000e+00 -1.000000e+00
      outer loop
         vertex 1.200000e+01 -1.400000e+01 2.300000e+01
         vertex 2.638421e+01 -1.427842e+01 2.300000e+01
         vertex 2.367422e+01 -1.842638e+01 2.300000e+01
      endloop
   endfacet
   facet normal 0.000000e+00 0.000000e+00 -1.000000e+00
      outer loop
         vertex 1.200000e+01 -1.400000e+01 2.300000e+01
         vertex 2.959084e+01 -4.937838e+00 2.300000e+01
         vertex 2.837452e+01 -9.740984e+00 2.300000e+01
      endloop
   endfacet
   facet normal 0.000000e+00 0.000000e+00 -1.000000e+00
      outer loop
         vertex 2.477380e+00 -2.989754e+01 2.300000e+01
         vertex -1.200000e+01 -1.400000e+01 2.300000e+01
         vertex 1.200000e+01 -1.400000e+01 2.300000e+01
      endloop
   endfacet
   facet normal 0.000000e+00 0.000000e+00 -1.000000e+00
      outer loop
         vertex -2.477380e+00 2.989754e+01 2.300000e+01
         vertex 1.200000e+01 1.400000e+01 2.300000e+01
         vertex -1.200000e+01 1.400000e+01 2.300000e+01
      endloop
   endfacet
   facet normal 0.000000e+00 0.000000e+00 -1.000000e+00
      outer loop
         vertex 1.200000e+01 -1.400000e+01 2.300000e+01
         vertex 1.200000e+01 1.400000e+01 2.300000e+01
         vertex 3.000000e+01 0.000000e+00 2.300000e+01
      endloop
   endfacet
   facet normal -0.000000e+00 0.000000e+00 -1.000000e+00
      outer loop
         vertex 2.367422e+01 1.842638e+01 2.300000e+01
         vertex 2.638421e+01 1.427842e+01 2.300000e+01
         vertex 1.200000e+01 1.400000e+01 2.300000e+01
      endloop
   endfacet
   facet normal -0.000000e+00 0.000000e+00 -1.000000e+00
      outer loop
         vertex 7.364564e+00 2.908201e+01 2.300000e+01
         vertex 1.205086e+01 2.747320e+01 2.300000e+01
         vertex 1.200000e+01 1.400000e+01 2.300000e+01
      endloop
   endfacet
   facet normal 0.000000e+00 0.000000e+00 -1.000000e+00
      outer loop
         vertex -7.364564e+00 2.908201e+01 2.300000e+01
         vertex -1.200000e+01 1.400000e+01 2.300000e+01
         vertex -1.205086e+01 2.747320e+01 2.300000e+01
      endloop
   endfacet
   facet normal 0.000000e+00 0.000000e+00 -1.000000e+00
      outer loop
         vertex -2.367422e+01 1.842638e+01 2.300000e+01
         vertex -1.200000e+01 1.400000e+01 2.300000e+01
         vertex -2.638421e+01 1.427842e+01 2.300000e+01
      endloop
   endfacet
   facet normal 0.000000e+00 0.000000e+00 -1.000000e+00
      outer loop
         vertex -3.000000e+01 3.673940e-15 2.300000e+01
         vertex -1.200000e+01 -1.400000e+01 2.300000e+01
         vertex -2.959084e+01 -4.937838e+00 2.300000e+01
      endloop
   endfacet
   facet normal 0.000000e+00 0.000000e+00 -1.000000e+00
      outer loop
         vertex -2.031845e+01 -2.207172e+01 2.300000e+01
         vertex -2.367422e+01 -1.842638e+01 2.300000e+01
         vertex -1.200000e+01 -1.400000e+01 2.300000e+01
      endloop
   endfacet
   facet normal 0.000000e+00 0.000000e+00 -1.000000e+00
      outer loop
         vertex -2.477380e+00 -2.989754e+01 2.300000e+01
         vertex -7.364564e+00 -2.908201e+01 2.300000e+01
         vertex -1.200000e+01 -1.400000e+01 2.300000e+01
      endloop
   endfacet
   facet normal 0.000000e+00 0.000000e+00 -1.000000e+00
      outer loop
         vertex 1.205086e+01 -2.747320e+01 2.300000e+01
         vertex 1.200000e+01 -1.400000e+01 2.300000e+01
         vertex 1.640845e+01 -2.511499e+01 2.300000e+01
      endloop
   endfacet
   facet normal 0.000000e+00 0.000000e+00 -1.000000e+00
      outer loop
         vertex 2.638421e+01 -1.427842e+01 2.300000e+01
         vertex 1.200000e+01 -1.400000e+01 2.300000e+01
         vertex 2.837452e+01 -9.740984e+00 2.300000e+01
      endloop
   endfacet
   facet normal 0.000000e+00 0.000000e+00 -1.000000e+00
      outer loop
         vertex 2.959084e+01 -4.937838e+00 2.300000e+01
         vertex 1.200000e+01 -1.400000e+01 2.300000e+01
         vertex 3.000000e+01 0.000000e+00 2.300000e+01
      endloop
   endfacet
   facet normal -0.000000e+00 -0.000000e+00 -1.000000e+00
      outer loop
         vertex 1.200000e+01 1.400000e+01 2.300000e+01
         vertex 2.837452e+01 9.740984e+00 2.300000e+01
         vertex 2.959084e+01 4.937838e+00 2.300000e+01
      endloop
   endfacet
   facet normal 0.000000e+00 0.000000e+00 -1.000000e+00
      outer loop
         vertex -1.200000e+01 1.400000e+01 2.300000e+01
         vertex -2.031845e+01 2.207172e+01 2.300000e+01
         vertex -1.640845e+01 2.511499e+01 2.300000e+01
      endloop
   endfacet
   facet normal 0.000000e+00 0.000000e+00 -1.000000e+00
      outer loop
         vertex -1.200000e+01 -1.400000e+01 2.300000e+01
         vertex -2.638421e+01 -1.427842e+01 2.300000e+01
         vertex -2.837452e+01 -9.740984e+00 2.300000e+01
      endloop
   endfacet
   facet normal -0.000000e+00 0.000000e+00 -1.000000e+00
      outer loop
         vertex 1.200000e+01 -1.400000e+01 2.300000e+01
         vertex 7.364564e+00 -2.908201e+01 2.300000e+01
         vertex 2.477380e+00 -2.989754e+01 2.300000e+01
      endloop
   endfacet
   facet normal 0.000000e+00 -0.000000e+00 -1.000000e+00
      outer loop
         vertex -3.000000e+01 3.673940e-15 2.300000e+01
         vertex -1.200000e+01 1.400000e+01 2.300000e+01
         vertex -1.200000e+01 -1.400000e+01 2.300000e+01
      endloop
   endfacet
   facet normal 0.000000e+00 0.000000e+00 -1.000000e+00
      outer loop
         vertex 2.031845e+01 2.207172e+01 2.300000e+01
         vertex 1.200000e+01 1.400000e+01 2.300000e+01
         vertex 1.640845e+01 2.511499e+01 2.300000e+01
      endloop
   endfacet
   facet normal 0.000000e+00 0.000000e+00 -1.000000e+00
      outer loop
         vertex -1.205086e+01 -2.747320e+01 2.300000e+01
         vertex -1.640845e+01 -2.511499e+01 2.300000e+01
         vertex -1.200000e+01 -1.400000e+01 2.300000e+01
      endloop
   endfacet
   facet normal 0.000000e+00 0.000000e+00 -1.000000e+00
      outer loop
         vertex 2.477380e+00 2.989754e+01 2.300000e+01
         vertex 1.200000e+01 1.400000e+01 2.300000e+01
         vertex -2.477380e+00 2.989754e+01 2.300000e+01
      endloop
   endfacet
   facet normal 0.000000e+00 0.000000e+00 -1.000000e+00
      outer loop
         vertex -1.200000e+01 1.400000e+01 2.300000e+01
         vertex -2.959084e+01 4.937838e+00 2.300000e+01
         vertex -2.837452e+01 9.740984e+00 2.300000e+01
      endloop
   endfacet
   facet normal 0.000000e+00 0.000000e+00 -1.000000e+00
      outer loop
         vertex 2.367422e+01 -1.842638e+01 2.300000e+01
         vertex 2.031845e+01 -2.207172e+01 2.300000e+01
         vertex 1.200000e+01 -1.400000e+01 2.300000e+01
      endloop
   endfacet
   facet normal 0.000000e+00 1.000000e+00 0.000000e+00
      outer loop
         vertex -1.200000e+01 -1.400000e+01 2.600000e+01
         vertex 1.200000e+01 -1.400000e+01 2.600000e+01
         vertex 1.200000e+01 -1.400000e+01 2.300000e+01
      endloop
   endfacet
   facet normal 0.000000e+00 1.000000e+00 0.000000e+00
      outer loop
         vertex -1.200000e+01 -1.400000e+01 2.600000e+01
         vertex 1.200000e+01 -1.400000e+01 2.300000e+01
         vertex -1.200000e+01 -1.400000e+01 2.300000e+01
      endloop
   endfacet
   facet normal 1.000000e+00 -0.000000e+00 0.000000e+00
      outer loop
         vertex -1.200000e+01 1.400000e+01 2.600000e+01
         vertex -1.200000e+01 -1.400000e+01 2.600000e+01
         vertex -1.200000e+01 -1.400000e+01 2.300000e+01
      endloop
   endfacet
   facet normal 1.000000e+00 0.000000e+00 0.000000e+00
      outer loop
         vertex -1.200000e+01 1.400000e+01 2.600000e+01
         vertex -1.200000e+01 -1.400000e+01 2.300000e+01
         vertex -1.200000e+01 1.400000e+01 2.300000e+01
      endloop
   endfacet
   facet normal 0.000000e+00 -1.000000e+00 0.000000e+00
      outer loop
         vertex 1.200000e+01 1.400000e+01 2.600000e+01
         vertex -1.200000e+01 1.400000e+01 2.600000e+01
         vertex -1.200000e+01 1.400000e+01 2.300000e+01
      endloop
   endfacet
   facet normal 0.000000e+00 -1.000000e+00 0.000000e+00
      outer loop
         vertex 1.200000e+01 1.400000e+01 2.600000e+01
         vertex -1.200000e+01 1.400000e+01 2.300000e+01
         vertex 1.200000e+01 1.400000e+01 2.300000e+01
      endloop
   endfacet
   facet normal -1.000000e+00 -0.000000e+00 -0.000000e+00
      outer loop
         vertex 1.200000e+01 -1.400000e+01 2.600000e+01
         vertex 1.200000e+01 1.400000e+01 2.600000e+01
         vertex 1.200000e+01 1.400000e+01 2.300000e+01
      endloop
   endfacet
   facet normal -1.000000e+00 0.000000e+00 0.000000e+00
      outer loop
         vertex 1.200000e+01 -1.400000e+01 2.600000e+01
         vertex 1.200000e+01 1.400000e+01 2.300000e+01
         vertex 1.200000e+01 -1.400000e+01 2.300000e+01
      endloop
   endfacet
   facet normal 9.969173e-01 7.845901e-02 -0.000000e+00
      outer loop
         vertex 3.300000e+01 0.000000e+00 2.600000e+01
         vertex 3.300000e+01 0.000000e+00 0.000000e+00
         vertex 3.259372e+01 5.162337e+00 0.000000e+00
      endloop
   endfacet
   facet normal 9.238795e-01 3.826834e-01 0.000000e+00
      outer loop
         vertex 3.138486e+01 1.019756e+01 0.000000e+00
         vertex 2.940322e+01 1.498169e+01 0.000000e+00
         vertex 3.138486e+01 1.019756e+01 2.600000e+01
      endloop
   endfacet
   facet normal 7.604060e-01 6.494480e-01 -0.000000e+00
      outer loop
         vertex 2.669756e+01 1.939691e+01 0.000000e+00
         vertex 2.333452e+01 2.333452e+01 0.000000e+00
         vertex 2.333452e+01 2.333452e+01 2.600000e+01
      endloop
   endfacet
   facet normal 5.224985e-01 8.526402e-01 -0.000000e+00
      outer loop
         vertex 1.939691e+01 2.669756e+01 0.000000e+00
         vertex 1.498169e+01 2.940322e+01 0.000000e+00
         vertex 1.498169e+01 2.940322e+01 2.600000e+01
      endloop
   endfacet
   facet normal 2.334455e-01 9.723699e-01 -0.000000e+00
      outer loop
         vertex 1.019756e+01 3.138486e+01 0.000000e+00
         vertex 5.162337e+00 3.259372e+01 0.000000e+00
         vertex 5.162337e+00 3.259372e+01 2.600000e+01
      endloop
   endfacet
   facet normal -7.845901e-02 9.969173e-01 0.000000e+00
      outer loop
         vertex 2.020667e-15 3.300000e+01 0.000000e+00
         vertex -5.162337e+00 3.259372e+01 0.000000e+00
         vertex -5.162337e+00 3.259372e+01 2.600000e+01
      endloop
   endfacet
   facet normal -3.826834e-01 9.238795e-01 0.000000e+00
      outer loop
         vertex -1.019756e+01 3.138486e+01 0.000000e+00
         vertex -1.498169e+01 2.940322e+01 0.000000e+00
         vertex -1.498169e+01 2.940322e+01 2.600000e+01
      endloop
   endfacet
   facet normal -6.494480e-01 7.604060e-01 0.000000e+00
      outer loop
         vertex -1.939691e+01 2.669756e+01 0.000000e+00
         vertex -2.333452e+01 2.333452e+01 0.000000e+00
         vertex -2.333452e+01 2.333452e+01 2.600000e+01
      endloop
   endfacet
   facet normal -8.526402e-01 5.224985e-01 0.000000e+00
      outer loop
         vertex -2.669756e+01 1.939691e+01 0.000000e+00
         vertex -2.940322e+01 1.498169e+01 0.000000e+00
         vertex -2.940322e+01 1.498169e+01 2.600000e+01
      endloop
   endfacet
   facet normal -9.723699e-01 2.334455e-01 0.000000e+00
      outer loop
         vertex -3.138486e+01 1.019756e+01 0.000000e+00
         vertex -3.259372e+01 5.162337e+00 0.000000e+00
         vertex -3.259372e+01 5.162337e+00 2.600000e+01
      endloop
   endfacet
   facet normal -9.969173e-01 -7.845901e-02 0.000000e+00
      outer loop
         vertex -3.300000e+01 4.041334e-15 0.000000e+00
         vertex -3.259372e+01 -5.162337e+00 0.000000e+00
         vertex -3.259372e+01 -5.162337e+00 2.600000e+01
      endloop
   endfacet
   facet normal -9.238795e-01 -3.826834e-01 0.000000e+00
      outer loop
         vertex -3.138486e+01 -1.019756e+01 0.000000e+00
         vertex -2.940322e+01 -1.498169e+01 0.000000e+00
         vertex -2.940322e+01 -1.498169e+01 2.600000e+01
      endloop
   endfacet
   facet normal -7.604060e-01 -6.494480e-01 0.000000e+00
      outer loop
         vertex -2.669756e+01 -1.939691e+01 0.000000e+00
         vertex -2.333452e+01 -2.333452e+01 0.000000e+00
         vertex -2.333452e+01 -2.333452e+01 2.600000e+01
      endloop
   endfacet
   facet normal -5.224985e-01 -8.526402e-01 0.000000e+00
      outer loop
         vertex -1.939691e+01 -2.669756e+01 0.000000e+00
         vertex -1.498169e+01 -2.940322e+01 0.000000e+00
         vertex -1.498169e+01 -2.940322e+01 2.600000e+01
      endloop
   endfacet
   facet normal -2.334455e-01 -9.723699e-01 0.000000e+00
      outer loop
         vertex -1.019756e+01 -3.138486e+01 0.000000e+00
         vertex -5.162337e+00 -3.259372e+01 0.000000e+00
         vertex -5.162337e+00 -3.259372e+01 2.600000e+01
      endloop
   endfacet
   facet normal 7.845901e-02 -9.969173e-01 0.000000e+00
      outer loop
         vertex -6.062002e-15 -3.300000e+01 0.000000e+00
         vertex 5.162337e+00 -3.259372e+01 0.000000e+00
         vertex 5.162337e+00 -3.259372e+01 2.600000e+01
      endloop
   endfacet
   facet normal 3.826834e-01 -9.238795e-01 0.000000e+00
      outer loop
         vertex 1.019756e+01 -3.138486e+01 0.000000e+00
         vertex 1.498169e+01 -2.940322e+01 0.000000e+00
         vertex 1.498169e+01 -2.940322e+01 2.600000e+01
      endloop
   endfacet
   facet normal 6.494480e-01 -7.604060e-01 0.000000e+00
      outer loop
         vertex 1.939691e+01 -2.669756e+01 0.000000e+00
         vertex 2.333452e+01 -2.333452e+01 0.000000e+00
         vertex 2.333452e+01 -2.333452e+01 2.600000e+01
      endloop
   endfacet
   facet normal 8.526402e-01 -5.224985e-01 0.000000e+00
      outer loop
         vertex 2.669756e+01 -1.939691e+01 0.000000e+00
         vertex 2.940322e+01 -1.498169e+01 0.000000e+00
         vertex 2.940322e+01 -1.498169e+01 2.600000e+01
      endloop
   endfacet
   facet normal 9.723699e-01 -2.334455e-01 0.000000e+00
      outer loop
         vertex 3.138486e+01 -1.019756e+01 0.000000e+00
         vertex 3.259372e+01 -5.162337e+00 0.000000e+00
         vertex 3.259372e+01 -5.162337e+00 2.600000e+01
      endloop
   endfacet
   facet normal 9.969173e-01 -7.845901e-02 0.000000e+00
      outer loop
         vertex 3.300000e+01 0.000000e+00 0.000000e+00
         vertex 3.300000e+01 0.000000e+00 2.600000e+01
         vertex 3.259372e+01 -5.162337e+00 0.000000e+00
      endloop
   endfacet
   facet normal 9.238795e-01 -3.826834e-01 0.000000e+00
      outer loop
         vertex 3.138486e+01 -1.019756e+01 2.600000e+01
         vertex 2.940322e+01 -1.498169e+01 2.600000e+01
         vertex 2.940322e+01 -1.498169e+01 0.000000e+00
      endloop
   endfacet
   facet normal 7.604060e-01 -6.494480e-01 0.000000e+00
      outer loop
         vertex 2.669756e+01 -1.939691e+01 2.600000e+01
         vertex 2.333452e+01 -2.333452e+01 2.600000e+01
         vertex 2.333452e+01 -2.333452e+01 0.000000e+00
      endloop
   endfacet
   facet normal 5.224985e-01 -8.526402e-01 0.000000e+00
      outer loop
         vertex 1.939691e+01 -2.669756e+01 2.600000e+01
         vertex 1.498169e+01 -2.940322e+01 2.600000e+01
         vertex 1.498169e+01 -2.940322e+01 0.000000e+00
      endloop
   endfacet
   facet normal 2.334455e-01 -9.723699e-01 0.000000e+00
      outer loop
         vertex 1.019756e+01 -3.138486e+01 2.600000e+01
         vertex 5.162337e+00 -3.259372e+01 2.600000e+01
         vertex 5.162337e+00 -3.259372e+01 0.000000e+00
      endloop
   endfacet
   facet normal -7.845901e-02 -9.969173e-01 -0.000000e+00
      outer loop
         vertex -6.062002e-15 -3.300000e+01 2.600000e+01
         vertex -5.162337e+00 -3.259372e+01 2.600000e+01
         vertex -5.162337e+00 -3.259372e+01 0.000000e+00
      endloop
   endfacet
   facet normal -3.826834e-01 -9.238795e-01 -0.000000e+00
      outer loop
         vertex -1.019756e+01 -3.138486e+01 2.600000e+01
         vertex -1.498169e+01 -2.940322e+01 2.600000e+01
         vertex -1.498169e+01 -2.940322e+01 0.000000e+00
      endloop
   endfacet
   facet normal -6.494480e-01 -7.604060e-01 -0.000000e+00
      outer loop
         vertex -1.939691e+01 -2.669756e+01 2.600000e+01
         vertex -2.333452e+01 -2.333452e+01 2.600000e+01
         vertex -2.333452e+01 -2.333452e+01 0.000000e+00
      endloop
   endfacet
   facet normal -8.526402e-01 -5.224985e-01 -0.000000e+00
      outer loop
         vertex -2.669756e+01 -1.939691e+01 2.600000e+01
         vertex -2.940322e+01 -1.498169e+01 2.600000e+01
         vertex -2.940322e+01 -1.498169e+01 0.000000e+00
      endloop
   endfacet
   facet normal -9.723699e-01 -2.334455e-01 -0.000000e+00
      outer loop
         vertex -3.138486e+01 -1.019756e+01 2.600000e+01
         vertex -3.259372e+01 -5.162337e+00 2.600000e+01
         vertex -3.259372e+01 -5.162337e+00 0.000000e+00
      endloop
   endfacet
   facet normal -9.969173e-01 7.845901e-02 0.000000e+00
      outer loop
         vertex -3.300000e+01 4.041334e-15 2.600000e+01
         vertex -3.259372e+01 5.162337e+00 2.600000e+01
         vertex -3.259372e+01 5.162337e+00 0.000000e+00
      endloop
   endfacet
   facet normal -9.238795e-01 3.826834e-01 0.000000e+00
      outer loop
         vertex -3.138486e+01 1.019756e+01 2.600000e+01
         vertex -2.940322e+01 1.498169e+01 2.600000e+01
         vertex -2.940322e+01 1.498169e+01 0.000000e+00
      endloop
   endfacet
   facet normal -7.604060e-01 6.494480e-01 0.000000e+00
      outer loop
         vertex -2.669756e+01 1.939691e+01 2.600000e+01
         vertex -2.333452e+01 2.333452e+01 2.600000e+01
         vertex -2.333452e+01 2.333452e+01 0.000000e+00
      endloop
   endfacet
   facet normal -5.224985e-01 8.526402e-01 0.000000e+00
      outer loop
         vertex -1.939691e+01 2.669756e+01 2.600000e+01
         vertex -1.498169e+01 2.940322e+01 2.600000e+01
         vertex -1.498169e+01 2.940322e+01 0.000000e+00
      endloop
   endfacet
   facet normal -2.334455e-01 9.723699e-01 0.000000e+00
      outer loop
         vertex -1.019756e+01 3.138486e+01 2.600000e+01
         vertex -5.162337e+00 3.259372e+01 2.600000e+01
         vertex -5.162337e+00 3.259372e+01 0.000000e+00
      endloop
   endfacet
   facet normal 7.845901e-02 9.969173e-01 0.000000e+00
      outer loop
         vertex 2.020667e-15 3.300000e+01 2.600000e+01
         vertex 5.162337e+00 3.259372e+01 2.600000e+01
         vertex 5.162337e+00 3.259372e+01 0.000000e+00
      endloop
   endfacet
   facet normal 3.826834e-01 9.238795e-01 0.000000e+00
      outer loop
         vertex 1.019756e+01 3.138486e+01 2.600000e+01
         vertex 1.498169e+01 2.940322e+01 2.600000e+01
         vertex 1.498169e+01 2.940322e+01 0.000000e+00
      endloop
   endfacet
   facet normal 6.494480e-01 7.604060e-01 0.000000e+00
      outer loop
         vertex 1.939691e+01 2.669756e+01 2.600000e+01
         vertex 2.333452e+01 2.333452e+01 2.600000e+01
         vertex 2.333452e+01 2.333452e+01 0.000000e+00
      endloop
   endfacet
   facet normal 8.526402e-01 5.224985e-01 0.000000e+00
      outer loop
         vertex 2.669756e+01 1.939691e+01 2.600000e+01
         vertex 2.940322e+01 1.498169e+01 2.600000e+01
         vertex 2.940322e+01 1.498169e+01 0.000000e+00
      endloop
   endfacet
   facet normal 9.723699e-01 2.334455e-01 0.000000e+00
      outer loop
         vertex 3.138486e+01 1.019756e+01 2.600000e+01
         vertex 3.259372e+01 5.162337e+00 2.600000e+01
         vertex 3.259372e+01 5.162337e+00 0.000000e+00
      endloop
   endfacet
   facet normal 9.969173e-01 7.845901e-02 -0.000000e+00
      outer loop
         vertex 3.300000e+01 0.000000e+00 2.600000e+01
         vertex 3.259372e+01 5.162337e+00 0.000000e+00
         vertex 3.259372e+01 5.162337e+00 2.600000e+01
      endloop
   endfacet
   facet normal 7.604060e-01 6.494480e-01 0.000000e+00
      outer loop
         vertex 2.669756e+01 1.939691e+01 0.000000e+00
         vertex 2.333452e+01 2.333452e+01 2.600000e+01
         vertex 2.669756e+01 1.939691e+01 2.600000e+01
      endloop
   endfacet
   facet normal -7.845901e-02 9.969173e-01 0.000000e+00
      outer loop
         vertex 2.020667e-15 3.300000e+01 0.000000e+00
         vertex -5.162337e+00 3.259372e+01 2.600000e+01
         vertex 2.020667e-15 3.300000e+01 2.600000e+01
      endloop
   endfacet
   facet normal -8.526402e-01 5.224985e-01 0.000000e+00
      outer loop
         vertex -2.669756e+01 1.939691e+01 0.000000e+00
         vertex -2.940322e+01 1.498169e+01 2.600000e+01
         vertex -2.669756e+01 1.939691e+01 2.600000e+01
      endloop
   endfacet
   facet normal -9.238795e-01 -3.826834e-01 0.000000e+00
      outer loop
         vertex -3.138486e+01 -1.019756e+01 0.000000e+00
         vertex -2.940322e+01 -1.498169e+01 2.600000e+01
         vertex -3.138486e+01 -1.019756e+01 2.600000e+01
      endloop
   endfacet
   facet normal -2.334455e-01 -9.723699e-01 0.000000e+00
      outer loop
         vertex -1.019756e+01 -3.138486e+01 0.000000e+00
         vertex -5.162337e+00 -3.259372e+01 2.600000e+01
         vertex -1.019756e+01 -3.138486e+01 2.600000e+01
      endloop
   endfacet
   facet normal 6.494480e-01 -7.604060e-01 0.000000e+00
      outer loop
         vertex 1.939691e+01 -2.669756e+01 0.000000e+00
         vertex 2.333452e+01 -2.333452e+01 2.600000e+01
         vertex 1.939691e+01 -2.669756e+01 2.600000e+01
      endloop
   endfacet
   facet normal 9.969173e-01 -7.845901e-02 0.000000e+00
      outer loop
         vertex 3.259372e+01 -5.162337e+00 2.600000e+01
         vertex 3.259372e+01 -5.162337e+00 0.000000e+00
         vertex 3.300000e+01 0.000000e+00 2.600000e+01
      endloop
   endfacet
   facet normal 5.224985e-01 -8.526402e-01 0.000000e+00
      outer loop
         vertex 1.939691e+01 -2.669756e+01 2.600000e+01
         vertex 1.498169e+01 -2.940322e+01 0.000000e+00
         vertex 1.939691e+01 -2.669756e+01 0.000000e+00
      endloop
   endfacet
   facet normal -3.826834e-01 -9.238795e-01 0.000000e+00
      outer loop
         vertex -1.019756e+01 -3.138486e+01 2.600000e+01
         vertex -1.498169e+01 -2.940322e+01 0.000000e+00
         vertex -1.019756e+01 -3.138486e+01 0.000000e+00
      endloop
   endfacet
   facet normal -9.723699e-01 -2.334455e-01 0.000000e+00
      outer loop
         vertex -3.138486e+01 -1.019756e+01 2.600000e+01
         vertex -3.259372e+01 -5.162337e+00 0.000000e+00
         vertex -3.138486e+01 -1.019756e+01 0.000000e+00
      endloop
   endfacet
   facet normal -7.604060e-01 6.494480e-01 0.000000e+00
      outer loop
         vertex -2.669756e+01 1.939691e+01 2.600000e+01
         vertex -2.333452e+01 2.333452e+01 0.000000e+00
         vertex -2.669756e+01 1.939691e+01 0.000000e+00
      endloop
   endfacet
   facet normal 7.845901e-02 9.969173e-01 0.000000e+00
      outer loop
         vertex 2.020667e-15 3.300000e+01 2.600000e+01
         vertex 5.162337e+00 3.259372e+01 0.000000e+00
         vertex 2.020667e-15 3.300000e+01 0.000000e+00
      endloop
   endfacet
   facet normal 8.526402e-01 5.224985e-01 0.000000e+00
      outer loop
         vertex 2.669756e+01 1.939691e+01 2.600000e+01
         vertex 2.940322e+01 1.498169e+01 0.000000e+00
         vertex 2.669756e+01 1.939691e+01 0.000000e+00
      endloop
   endfacet
   facet normal 9.723699e-01 2.334455e-01 -0.000000e+00
      outer loop
         vertex 3.259372e+01 5.162337e+00 0.000000e+00
         vertex 3.138486e+01 1.019756e+01 0.000000e+00
         vertex 3.138486e+01 1.019756e+01 2.600000e+01
      endloop
   endfacet
   facet normal 3.826834e-01 9.238795e-01 -0.000000e+00
      outer loop
         vertex 1.498169e+01 2.940322e+01 0.000000e+00
         vertex 1.019756e+01 3.138486e+01 0.000000e+00
         vertex 1.019756e+01 3.138486e+01 2.600000e+01
      endloop
   endfacet
   facet normal -5.224985e-01 8.526402e-01 0.000000e+00
      outer loop
         vertex -1.498169e+01 2.940322e+01 0.000000e+00
         vertex -1.939691e+01 2.669756e+01 0.000000e+00
         vertex -1.939691e+01 2.669756e+01 2.600000e+01
      endloop
   endfacet
   facet normal -9.969173e-01 7.845901e-02 0.000000e+00
      outer loop
         vertex -3.259372e+01 5.162337e+00 0.000000e+00
         vertex -3.300000e+01 4.041334e-15 0.000000e+00
         vertex -3.300000e+01 4.041334e-15 2.600000e+01
      endloop
   endfacet
   facet normal -6.494480e-01 -7.604060e-01 0.000000e+00
      outer loop
         vertex -2.333452e+01 -2.333452e+01 0.000000e+00
         vertex -1.939691e+01 -2.669756e+01 0.000000e+00
         vertex -1.939691e+01 -2.669756e+01 2.600000e+01
      endloop
   endfacet
   facet normal 2.334455e-01 -9.723699e-01 0.000000e+00
      outer loop
         vertex 5.162337e+00 -3.259372e+01 0.000000e+00
         vertex 1.019756e+01 -3.138486e+01 0.000000e+00
         vertex 1.019756e+01 -3.138486e+01 2.600000e+01
      endloop
   endfacet
   facet normal 9.238795e-01 -3.826834e-01 0.000000e+00
      outer loop
         vertex 2.940322e+01 -1.498169e+01 0.000000e+00
         vertex 3.138486e+01 -1.019756e+01 0.000000e+00
         vertex 3.138486e+01 -1.019756e+01 2.600000e+01
      endloop
   endfacet
   facet normal 8.526402e-01 -5.224985e-01 0.000000e+00
      outer loop
         vertex 2.940322e+01 -1.498169e+01 2.600000e+01
         vertex 2.669756e+01 -1.939691e+01 2.600000e+01
         vertex 2.669756e+01 -1.939691e+01 0.000000e+00
      endloop
   endfacet
   facet normal 7.845901e-02 -9.969173e-01 0.000000e+00
      outer loop
         vertex 5.162337e+00 -3.259372e+01 2.600000e+01
         vertex -6.062002e-15 -3.300000e+01 2.600000e+01
         vertex -6.062002e-15 -3.300000e+01 0.000000e+00
      endloop
   endfacet
   facet normal -7.604060e-01 -6.494480e-01 -0.000000e+00
      outer loop
         vertex -2.333452e+01 -2.333452e+01 2.600000e+01
         vertex -2.669756e+01 -1.939691e+01 2.600000e+01
         vertex -2.669756e+01 -1.939691e+01 0.000000e+00
      endloop
   endfacet
   facet normal -9.723699e-01 2.334455e-01 0.000000e+00
      outer loop
         vertex -3.259372e+01 5.162337e+00 2.600000e+01
         vertex -3.138486e+01 1.019756e+01 2.600000e+01
         vertex -3.138486e+01 1.019756e+01 0.000000e+00
      endloop
   endfacet
   facet normal -3.826834e-01 9.238795e-01 0.000000e+00
      outer loop
         vertex -1.498169e+01 2.940322e+01 2.600000e+01
         vertex -1.019756e+01 3.138486e+01 2.600000e+01
         vertex -1.019756e+01 3.138486e+01 0.000000e+00
      endloop
   endfacet
   facet normal 5.224985e-01 8.526402e-01 0.000000e+00
      outer loop
         vertex 1.498169e+01 2.940322e+01 2.600000e+01
         vertex 1.939691e+01 2.669756e+01 2.600000e+01
         vertex 1.939691e+01 2.669756e+01 0.000000e+00
      endloop
   endfacet
   facet normal 9.238795e-01 3.826834e-01 -0.000000e+00
      outer loop
         vertex 3.138486e+01 1.019756e+01 2.600000e+01
         vertex 2.940322e+01 1.498169e+01 0.000000e+00
         vertex 2.940322e+01 1.498169e+01 2.600000e+01
      endloop
   endfacet
   facet normal -9.969173e-01 -7.845901e-02 0.000000e+00
      outer loop
         vertex -3.300000e+01 4.041334e-15 0.000000e+00
         vertex -3.259372e+01 -5.162337e+00 2.600000e+01
         vertex -3.300000e+01 4.041334e-15 2.600000e+01
      endloop
   endfacet
   facet normal 9.723699e-01 -2.334455e-01 0.000000e+00
      outer loop
         vertex 3.138486e+01 -1.019756e+01 0.000000e+00
         vertex 3.259372e+01 -5.162337e+00 2.600000e+01
         vertex 3.138486e+01 -1.019756e+01 2.600000e+01
      endloop
   endfacet
   facet normal -8.526402e-01 -5.224985e-01 0.000000e+00
      outer loop
         vertex -2.669756e+01 -1.939691e+01 2.600000e+01
         vertex -2.940322e+01 -1.498169e+01 0.000000e+00
         vertex -2.669756e+01 -1.939691e+01 0.000000e+00
      endloop
   endfacet
   facet normal 6.494480e-01 7.604060e-01 0.000000e+00
      outer loop
         vertex 1.939691e+01 2.669756e+01 2.600000e+01
         vertex 2.333452e+01 2.333452e+01 0.000000e+00
         vertex 1.939691e+01 2.669756e+01 0.000000e+00
      endloop
   endfacet
   facet normal -5.224985e-01 -8.526402e-01 0.000000e+00
      outer loop
         vertex -1.939691e+01 -2.669756e+01 2.600000e+01
         vertex -1.939691e+01 -2.669756e+01 0.000000e+00
         vertex -1.498169e+01 -2.940322e+01 2.600000e+01
      endloop
   endfacet
   facet normal -9.238795e-01 3.826834e-01 0.000000e+00
      outer loop
         vertex -3.138486e+01 1.019756e+01 0.000000e+00
         vertex -3.138486e+01 1.019756e+01 2.600000e+01
         vertex -2.940322e+01 1.498169e+01 0.000000e+00
      endloop
   endfacet
   facet normal -2.334455e-01 9.723699e-01 0.000000e+00
      outer loop
         vertex -5.162337e+00 3.259372e+01 0.000000e+00
         vertex -1.019756e+01 3.138486e+01 0.000000e+00
         vertex -1.019756e+01 3.138486e+01 2.600000e+01
      endloop
   endfacet
   facet normal 7.604060e-01 -6.494480e-01 0.000000e+00
      outer loop
         vertex 2.333452e+01 -2.333452e+01 0.000000e+00
         vertex 2.669756e+01 -1.939691e+01 0.000000e+00
         vertex 2.669756e+01 -1.939691e+01 2.600000e+01
      endloop
   endfacet
   facet normal -6.494480e-01 7.604060e-01 0.000000e+00
      outer loop
         vertex -2.333452e+01 2.333452e+01 2.600000e+01
         vertex -1.939691e+01 2.669756e+01 2.600000e+01
         vertex -1.939691e+01 2.669756e+01 0.000000e+00
      endloop
   endfacet
   facet normal 2.334455e-01 9.723699e-01 0.000000e+00
      outer loop
         vertex 1.019756e+01 3.138486e+01 0.000000e+00
         vertex 5.162337e+00 3.259372e+01 2.600000e+01
         vertex 1.019756e+01 3.138486e+01 2.600000e+01
      endloop
   endfacet
   facet normal 3.826834e-01 -9.238795e-01 0.000000e+00
      outer loop
         vertex 1.019756e+01 -3.138486e+01 2.600000e+01
         vertex 1.019756e+01 -3.138486e+01 0.000000e+00
         vertex 1.498169e+01 -2.940322e+01 2.600000e+01
      endloop
   endfacet
   facet normal -7.845901e-02 -9.969173e-01 0.000000e+00
      outer loop
         vertex -5.162337e+00 -3.259372e+01 0.000000e+00
         vertex -6.062002e-15 -3.300000e+01 0.000000e+00
         vertex -6.062002e-15 -3.300000e+01 2.600000e+01
      endloop
   endfacet
   facet normal -9.965845e-01 -8.257929e-02 0.000000e+00
      outer loop
         vertex 2.959084e+01 4.937838e+00 0.000000e+00
         vertex 3.000000e+01 0.000000e+00 0.000000e+00
         vertex 3.000000e+01 0.000000e+00 2.300000e+01
      endloop
   endfacet
   facet normal -9.157733e-01 -4.016955e-01 0.000000e+00
      outer loop
         vertex 2.638421e+01 1.427842e+01 2.300000e+01
         vertex 2.638421e+01 1.427842e+01 0.000000e+00
         vertex 2.837452e+01 9.740984e+00 0.000000e+00
      endloop
   endfacet
   facet normal -7.357239e-01 -6.772816e-01 0.000000e+00
      outer loop
         vertex 2.031845e+01 2.207172e+01 2.300000e+01
         vertex 2.031845e+01 2.207172e+01 0.000000e+00
         vertex 2.367422e+01 1.842638e+01 0.000000e+00
      endloop
   endfacet
   facet normal -4.759474e-01 -8.794738e-01 0.000000e+00
      outer loop
         vertex 1.205086e+01 2.747320e+01 2.300000e+01
         vertex 1.205086e+01 2.747320e+01 0.000000e+00
         vertex 1.640845e+01 2.511499e+01 0.000000e+00
      endloop
   endfacet
   facet normal -1.645946e-01 -9.863613e-01 0.000000e+00
      outer loop
         vertex 2.477380e+00 2.989754e+01 2.300000e+01
         vertex 2.477380e+00 2.989754e+01 0.000000e+00
         vertex 7.364564e+00 2.908201e+01 0.000000e+00
      endloop
   endfacet
   facet normal 1.645946e-01 -9.863613e-01 0.000000e+00
      outer loop
         vertex -7.364564e+00 2.908201e+01 2.300000e+01
         vertex -7.364564e+00 2.908201e+01 0.000000e+00
         vertex -2.477380e+00 2.989754e+01 0.000000e+00
      endloop
   endfacet
   facet normal 4.759474e-01 -8.794738e-01 0.000000e+00
      outer loop
         vertex -1.640845e+01 2.511499e+01 2.300000e+01
         vertex -1.640845e+01 2.511499e+01 0.000000e+00
         vertex -1.205086e+01 2.747320e+01 0.000000e+00
      endloop
   endfacet
   facet normal 7.357239e-01 -6.772816e-01 0.000000e+00
      outer loop
         vertex -2.367422e+01 1.842638e+01 2.300000e+01
         vertex -2.367422e+01 1.842638e+01 0.000000e+00
         vertex -2.031845e+01 2.207172e+01 0.000000e+00
      endloop
   endfacet
   facet normal 9.157733e-01 -4.016955e-01 0.000000e+00
      outer loop
         vertex -2.837452e+01 9.740984e+00 2.300000e+01
         vertex -2.837452e+01 9.740984e+00 0.000000e+00
         vertex -2.638421e+01 1.427842e+01 0.000000e+00
      endloop
   endfacet
   facet normal 9.965845e-01 -8.257929e-02 0.000000e+00
      outer loop
         vertex -3.000000e+01 3.673940e-15 2.300000e+01
         vertex -3.000000e+01 3.673940e-15 0.000000e+00
         vertex -2.959084e+01 4.937838e+00 0.000000e+00
      endloop
   endfacet
   facet normal 9.694003e-01 2.454855e-01 -0.000000e+00
      outer loop
         vertex -2.837452e+01 -9.740984e+00 2.300000e+01
         vertex -2.837452e+01 -9.740984e+00 0.000000e+00
         vertex -2.959084e+01 -4.937838e+00 0.000000e+00
      endloop
   endfacet
   facet normal 8.371666e-01 5.469480e-01 -0.000000e+00
      outer loop
         vertex -2.367422e+01 -1.842638e+01 2.300000e+01
         vertex -2.367422e+01 -1.842638e+01 0.000000e+00
         vertex -2.638421e+01 -1.427842e+01 0.000000e+00
      endloop
   endfacet
   facet normal 6.142126e-01 7.891406e-01 -0.000000e+00
      outer loop
         vertex -1.640845e+01 -2.511499e+01 2.300000e+01
         vertex -1.640845e+01 -2.511499e+01 0.000000e+00
         vertex -2.031845e+01 -2.207172e+01 0.000000e+00
      endloop
   endfacet
   facet normal 3.246995e-01 9.458172e-01 -0.000000e+00
      outer loop
         vertex -7.364564e+00 -2.908201e+01 2.300000e+01
         vertex -7.364564e+00 -2.908201e+01 0.000000e+00
         vertex -1.205086e+01 -2.747320e+01 0.000000e+00
      endloop
   endfacet
   facet normal 0.000000e+00 1.000000e+00 -0.000000e+00
      outer loop
         vertex 2.477380e+00 -2.989754e+01 2.300000e+01
         vertex 2.477380e+00 -2.989754e+01 0.000000e+00
         vertex -2.477380e+00 -2.989754e+01 0.000000e+00
      endloop
   endfacet
   facet normal -3.246995e-01 9.458172e-01 0.000000e+00
      outer loop
         vertex 1.205086e+01 -2.747320e+01 2.300000e+01
         vertex 1.205086e+01 -2.747320e+01 0.000000e+00
         vertex 7.364564e+00 -2.908201e+01 0.000000e+00
      endloop
   endfacet
   facet normal -6.142126e-01 7.891406e-01 0.000000e+00
      outer loop
         vertex 2.031845e+01 -2.207172e+01 2.300000e+01
         vertex 2.031845e+01 -2.207172e+01 0.000000e+00
         vertex 1.640845e+01 -2.511499e+01 0.000000e+00
      endloop
   endfacet
   facet normal -8.371666e-01 5.469480e-01 0.000000e+00
      outer loop
         vertex 2.638421e+01 -1.427842e+01 2.300000e+01
         vertex 2.638421e+01 -1.427842e+01 0.000000e+00
         vertex 2.367422e+01 -1.842638e+01 0.000000e+00
      endloop
   endfacet
   facet normal -9.694003e-01 2.454855e-01 0.000000e+00
      outer loop
         vertex 2.959084e+01 -4.937838e+00 2.300000e+01
         vertex 2.959084e+01 -4.937838e+00 0.000000e+00
         vertex 2.837452e+01 -9.740984e+00 0.000000e+00
      endloop
   endfacet
   facet normal -9.965845e-01 8.257929e-02 0.000000e+00
      outer loop
         vertex 2.959084e+01 -4.937838e+00 0.000000e+00
         vertex 3.000000e+01 0.000000e+00 2.300000e+01
         vertex 3.000000e+01 0.000000e+00 0.000000e+00
      endloop
   endfacet
   facet normal -9.157733e-01 4.016955e-01 0.000000e+00
      outer loop
         vertex 2.638421e+01 -1.427842e+01 0.000000e+00
         vertex 2.638421e+01 -1.427842e+01 2.300000e+01
         vertex 2.837452e+01 -9.740984e+00 2.300000e+01
      endloop
   endfacet
   facet normal -7.357239e-01 6.772816e-01 0.000000e+00
      outer loop
         vertex 2.031845e+01 -2.207172e+01 0.000000e+00
         vertex 2.031845e+01 -2.207172e+01 2.300000e+01
         vertex 2.367422e+01 -1.842638e+01 2.300000e+01
      endloop
   endfacet
   facet normal -4.759474e-01 8.794738e-01 0.000000e+00
      outer loop
         vertex 1.205086e+01 -2.747320e+01 0.000000e+00
         vertex 1.205086e+01 -2.747320e+01 2.300000e+01
         vertex 1.640845e+01 -2.511499e+01 2.300000e+01
      endloop
   endfacet
   facet normal -1.645946e-01 9.863613e-01 0.000000e+00
      outer loop
         vertex 2.477380e+00 -2.989754e+01 0.000000e+00
         vertex 2.477380e+00 -2.989754e+01 2.300000e+01
         vertex 7.364564e+00 -2.908201e+01 2.300000e+01
      endloop
   endfacet
   facet normal 1.645946e-01 9.863613e-01 0.000000e+00
      outer loop
         vertex -7.364564e+00 -2.908201e+01 0.000000e+00
         vertex -7.364564e+00 -2.908201e+01 2.300000e+01
         vertex -2.477380e+00 -2.989754e+01 2.300000e+01
      endloop
   endfacet
   facet normal 4.759474e-01 8.794738e-01 0.000000e+00
      outer loop
         vertex -1.640845e+01 -2.511499e+01 0.000000e+00
         vertex -1.640845e+01 -2.511499e+01 2.300000e+01
         vertex -1.205086e+01 -2.747320e+01 2.300000e+01
      endloop
   endfacet
   facet normal 7.357239e-01 6.772816e-01 0.000000e+00
      outer loop
         vertex -2.367422e+01 -1.842638e+01 0.000000e+00
         vertex -2.367422e+01 -1.842638e+01 2.300000e+01
         vertex -2.031845e+01 -2.207172e+01 2.300000e+01
      endloop
   endfacet
   facet normal 9.157733e-01 4.016955e-01 0.000000e+00
      outer loop
         vertex -2.837452e+01 -9.740984e+00 0.000000e+00
         vertex -2.837452e+01 -9.740984e+00 2.300000e+01
         vertex -2.638421e+01 -1.427842e+01 2.300000e+01
      endloop
   endfacet
   facet normal 9.965845e-01 8.257929e-02 0.000000e+00
      outer loop
         vertex -3.000000e+01 3.673940e-15 0.000000e+00
         vertex -3.000000e+01 3.673940e-15 2.300000e+01
         vertex -2.959084e+01 -4.937838e+00 2.300000e+01
      endloop
   endfacet
   facet normal 9.694003e-01 -2.454855e-01 0.000000e+00
      outer loop
         vertex -2.837452e+01 9.740984e+00 0.000000e+00
         vertex -2.837452e+01 9.740984e+00 2.300000e+01
         vertex -2.959084e+01 4.937838e+00 2.300000e+01
      endloop
   endfacet
   facet normal 8.371666e-01 -5.469480e-01 0.000000e+00
      outer loop
         vertex -2.367422e+01 1.842638e+01 0.000000e+00
         vertex -2.367422e+01 1.842638e+01 2.300000e+01
         vertex -2.638421e+01 1.427842e+01 2.300000e+01
      endloop
   endfacet
   facet normal 6.142126e-01 -7.891406e-01 0.000000e+00
      outer loop
         vertex -1.640845e+01 2.511499e+01 0.000000e+00
         vertex -1.640845e+01 2.511499e+01 2.300000e+01
         vertex -2.031845e+01 2.207172e+01 2.300000e+01
      endloop
   endfacet
   facet normal 3.246995e-01 -9.458172e-01 0.000000e+00
      outer loop
         vertex -7.364564e+00 2.908201e+01 0.000000e+00
         vertex -7.364564e+00 2.908201e+01 2.300000e+01
         vertex -1.205086e+01 2.747320e+01 2.300000e+01
      endloop
   endfacet
   facet normal -0.000000e+00 -1.000000e+00 -0.000000e+00
      outer loop
         vertex 2.477380e+00 2.989754e+01 0.000000e+00
         vertex 2.477380e+00 2.989754e+01 2.300000e+01
         vertex -2.477380e+00 2.989754e+01 2.300000e+01
      endloop
   endfacet
   facet normal -3.246995e-01 -9.458172e-01 -0.000000e+00
      outer loop
         vertex 1.205086e+01 2.747320e+01 0.000000e+00
         vertex 1.205086e+01 2.747320e+01 2.300000e+01
         vertex 7.364564e+00 2.908201e+01 2.300000e+01
      endloop
   endfacet
   facet normal -6.142126e-01 -7.891406e-01 -0.000000e+00
      outer loop
         vertex 2.031845e+01 2.207172e+01 0.000000e+00
         vertex 2.031845e+01 2.207172e+01 2.300000e+01
         vertex 1.640845e+01 2.511499e+01 2.300000e+01
      endloop
   endfacet
   facet normal -8.371666e-01 -5.469480e-01 -0.000000e+00
      outer loop
         vertex 2.638421e+01 1.427842e+01 0.000000e+00
         vertex 2.638421e+01 1.427842e+01 2.300000e+01
         vertex 2.367422e+01 1.842638e+01 2.300000e+01
      endloop
   endfacet
   facet normal -9.694003e-01 -2.454855e-01 -0.000000e+00
      outer loop
         vertex 2.959084e+01 4.937838e+00 0.000000e+00
         vertex 2.959084e+01 4.937838e+00 2.300000e+01
         vertex 2.837452e+01 9.740984e+00 2.300000e+01
      endloop
   endfacet
   facet normal -9.965845e-01 -8.257929e-02 0.000000e+00
      outer loop
         vertex 2.959084e+01 4.937838e+00 2.300000e+01
         vertex 2.959084e+01 4.937838e+00 0.000000e+00
         vertex 3.000000e+01 0.000000e+00 2.300000e+01
      endloop
   endfacet
   facet normal -4.759474e-01 -8.794738e-01 0.000000e+00
      outer loop
         vertex 1.640845e+01 2.511499e+01 2.300000e+01
         vertex 1.205086e+01 2.747320e+01 2.300000e+01
         vertex 1.640845e+01 2.511499e+01 0.000000e+00
      endloop
   endfacet
   facet normal 4.759474e-01 -8.794738e-01 0.000000e+00
      outer loop
         vertex -1.205086e+01 2.747320e+01 2.300000e+01
         vertex -1.640845e+01 2.511499e+01 2.300000e+01
         vertex -1.205086e+01 2.747320e+01 0.000000e+00
      endloop
   endfacet
   facet normal 9.965845e-01 -8.257929e-02 0.000000e+00
      outer loop
         vertex -2.959084e+01 4.937838e+00 2.300000e+01
         vertex -3.000000e+01 3.673940e-15 2.300000e+01
         vertex -2.959084e+01 4.937838e+00 0.000000e+00
      endloop
   endfacet
   facet normal 6.142126e-01 7.891406e-01 0.000000e+00
      outer loop
         vertex -2.031845e+01 -2.207172e+01 2.300000e+01
         vertex -1.640845e+01 -2.511499e+01 2.300000e+01
         vertex -2.031845e+01 -2.207172e+01 0.000000e+00
      endloop
   endfacet
   facet normal -3.246995e-01 9.458172e-01 0.000000e+00
      outer loop
         vertex 7.364564e+00 -2.908201e+01 2.300000e+01
         vertex 1.205086e+01 -2.747320e+01 2.300000e+01
         vertex 7.364564e+00 -2.908201e+01 0.000000e+00
      endloop
   endfacet
   facet normal -9.694003e-01 2.454855e-01 0.000000e+00
      outer loop
         vertex 2.837452e+01 -9.740984e+00 2.300000e+01
         vertex 2.959084e+01 -4.937838e+00 2.300000e+01
         vertex 2.837452e+01 -9.740984e+00 0.000000e+00
      endloop
   endfacet
   facet normal -9.157733e-01 4.016955e-01 0.000000e+00
      outer loop
         vertex 2.837452e+01 -9.740984e+00 0.000000e+00
         vertex 2.638421e+01 -1.427842e+01 0.000000e+00
         vertex 2.837452e+01 -9.740984e+00 2.300000e+01
      endloop
   endfacet
   facet normal -1.645946e-01 9.863613e-01 0.000000e+00
      outer loop
         vertex 7.364564e+00 -2.908201e+01 0.000000e+00
         vertex 2.477380e+00 -2.989754e+01 0.000000e+00
         vertex 7.364564e+00 -2.908201e+01 2.300000e+01
      endloop
   endfacet
   facet normal 7.357239e-01 6.772816e-01 0.000000e+00
      outer loop
         vertex -2.031845e+01 -2.207172e+01 0.000000e+00
         vertex -2.367422e+01 -1.842638e+01 0.000000e+00
         vertex -2.031845e+01 -2.207172e+01 2.300000e+01
      endloop
   endfacet
   facet normal 9.694003e-01 -2.454855e-01 0.000000e+00
      outer loop
         vertex -2.959084e+01 4.937838e+00 0.000000e+00
         vertex -2.837452e+01 9.740984e+00 0.000000e+00
         vertex -2.959084e+01 4.937838e+00 2.300000e+01
      endloop
   endfacet
   facet normal 3.246995e-01 -9.458172e-01 0.000000e+00
      outer loop
         vertex -1.205086e+01 2.747320e+01 0.000000e+00
         vertex -7.364564e+00 2.908201e+01 0.000000e+00
         vertex -1.205086e+01 2.747320e+01 2.300000e+01
      endloop
   endfacet
   facet normal -6.142126e-01 -7.891406e-01 0.000000e+00
      outer loop
         vertex 1.640845e+01 2.511499e+01 0.000000e+00
         vertex 2.031845e+01 2.207172e+01 0.000000e+00
         vertex 1.640845e+01 2.511499e+01 2.300000e+01
      endloop
   endfacet
   facet normal -9.694003e-01 -2.454855e-01 0.000000e+00
      outer loop
         vertex 2.837452e+01 9.740984e+00 2.300000e+01
         vertex 2.837452e+01 9.740984e+00 0.000000e+00
         vertex 2.959084e+01 4.937838e+00 0.000000e+00
      endloop
   endfacet
   facet normal -3.246995e-01 -9.458172e-01 0.000000e+00
      outer loop
         vertex 7.364564e+00 2.908201e+01 2.300000e+01
         vertex 7.364564e+00 2.908201e+01 0.000000e+00
         vertex 1.205086e+01 2.747320e+01 0.000000e+00
      endloop
   endfacet
   facet normal 6.142126e-01 -7.891406e-01 0.000000e+00
      outer loop
         vertex -2.031845e+01 2.207172e+01 2.300000e+01
         vertex -2.031845e+01 2.207172e+01 0.000000e+00
         vertex -1.640845e+01 2.511499e+01 0.000000e+00
      endloop
   endfacet
   facet normal 9.965845e-01 8.257929e-02 -0.000000e+00
      outer loop
         vertex -2.959084e+01 -4.937838e+00 2.300000e+01
         vertex -2.959084e+01 -4.937838e+00 0.000000e+00
         vertex -3.000000e+01 3.673940e-15 0.000000e+00
      endloop
   endfacet
   facet normal 4.759474e-01 8.794738e-01 -0.000000e+00
      outer loop
         vertex -1.205086e+01 -2.747320e+01 2.300000e+01
         vertex -1.205086e+01 -2.747320e+01 0.000000e+00
         vertex -1.640845e+01 -2.511499e+01 0.000000e+00
      endloop
   endfacet
   facet normal -4.759474e-01 8.794738e-01 0.000000e+00
      outer loop
         vertex 1.640845e+01 -2.511499e+01 2.300000e+01
         vertex 1.640845e+01 -2.511499e+01 0.000000e+00
         vertex 1.205086e+01 -2.747320e+01 0.000000e+00
      endloop
   endfacet
   facet normal -9.965845e-01 8.257929e-02 0.000000e+00
      outer loop
         vertex 2.959084e+01 -4.937838e+00 0.000000e+00
         vertex 2.959084e+01 -4.937838e+00 2.300000e+01
         vertex 3.000000e+01 0.000000e+00 2.300000e+01
      endloop
   endfacet
   facet normal -6.142126e-01 7.891406e-01 0.000000e+00
      outer loop
         vertex 1.640845e+01 -2.511499e+01 0.000000e+00
         vertex 1.640845e+01 -2.511499e+01 2.300000e+01
         vertex 2.031845e+01 -2.207172e+01 2.300000e+01
      endloop
   endfacet
   facet normal 3.246995e-01 9.458172e-01 0.000000e+00
      outer loop
         vertex -1.205086e+01 -2.747320e+01 0.000000e+00
         vertex -1.205086e+01 -2.747320e+01 2.300000e+01
         vertex -7.364564e+00 -2.908201e+01 2.300000e+01
      endloop
   endfacet
   facet normal 9.694003e-01 2.454855e-01 0.000000e+00
      outer loop
         vertex -2.959084e+01 -4.937838e+00 0.000000e+00
         vertex -2.959084e+01 -4.937838e+00 2.300000e+01
         vertex -2.837452e+01 -9.740984e+00 2.300000e+01
      endloop
   endfacet
   facet normal 7.357239e-01 -6.772816e-01 0.000000e+00
      outer loop
         vertex -2.031845e+01 2.207172e+01 0.000000e+00
         vertex -2.031845e+01 2.207172e+01 2.300000e+01
         vertex -2.367422e+01 1.842638e+01 2.300000e+01
      endloop
   endfacet
   facet normal -1.645946e-01 -9.863613e-01 -0.000000e+00
      outer loop
         vertex 7.364564e+00 2.908201e+01 0.000000e+00
         vertex 7.364564e+00 2.908201e+01 2.300000e+01
         vertex 2.477380e+00 2.989754e+01 2.300000e+01
      endloop
   endfacet
   facet normal -9.157733e-01 -4.016955e-01 -0.000000e+00
      outer loop
         vertex 2.837452e+01 9.740984e+00 0.000000e+00
         vertex 2.837452e+01 9.740984e+00 2.300000e+01
         vertex 2.638421e+01 1.427842e+01 2.300000e+01
      endloop
   endfacet
   facet normal 1.645946e-01 -9.863613e-01 0.000000e+00
      outer loop
         vertex -2.477380e+00 2.989754e+01 2.300000e+01
         vertex -7.364564e+00 2.908201e+01 2.300000e+01
         vertex -2.477380e+00 2.989754e+01 0.000000e+00
      endloop
   endfacet
   facet normal 0.000000e+00 1.000000e+00 0.000000e+00
      outer loop
         vertex -2.477380e+00 -2.989754e+01 2.300000e+01
         vertex 2.477380e+00 -2.989754e+01 2.300000e+01
         vertex -2.477380e+00 -2.989754e+01 0.000000e+00
      endloop
   endfacet
   facet normal 1.645946e-01 9.863613e-01 0.000000e+00
      outer loop
         vertex -2.477380e+00 -2.989754e+01 0.000000e+00
         vertex -7.364564e+00 -2.908201e+01 0.000000e+00
         vertex -2.477380e+00 -2.989754e+01 2.300000e+01
      endloop
   endfacet
   facet normal 0.000000e+00 -1.000000e+00 0.000000e+00
      outer loop
         vertex -2.477380e+00 2.989754e+01 0.000000e+00
         vertex 2.477380e+00 2.989754e+01 0.000000e+00
         vertex -2.477380e+00 2.989754e+01 2.300000e+01
      endloop
   endfacet
   facet normal -8.371666e-01 -5.469480e-01 0.000000e+00
      outer loop
         vertex 2.367422e+01 1.842638e+01 2.300000e+01
         vertex 2.367422e+01 1.842638e+01 0.000000e+00
         vertex 2.638421e+01 1.427842e+01 0.000000e+00
      endloop
   endfacet
   facet normal 9.157733e-01 4.016955e-01 -0.000000e+00
      outer loop
         vertex -2.638421e+01 -1.427842e+01 2.300000e+01
         vertex -2.638421e+01 -1.427842e+01 0.000000e+00
         vertex -2.837452e+01 -9.740984e+00 0.000000e+00
      endloop
   endfacet
   facet normal -8.371666e-01 5.469480e-01 0.000000e+00
      outer loop
         vertex 2.367422e+01 -1.842638e+01 0.000000e+00
         vertex 2.367422e+01 -1.842638e+01 2.300000e+01
         vertex 2.638421e+01 -1.427842e+01 2.300000e+01
      endloop
   endfacet
   facet normal 9.157733e-01 -4.016955e-01 0.000000e+00
      outer loop
         vertex -2.638421e+01 1.427842e+01 0.000000e+00
         vertex -2.638421e+01 1.427842e+01 2.300000e+01
         vertex -2.837452e+01 9.740984e+00 2.300000e+01
      endloop
   endfacet
   facet normal -7.357239e-01 -6.772816e-01 0.000000e+00
      outer loop
         vertex 2.367422e+01 1.842638e+01 2.300000e+01
         vertex 2.031845e+01 2.207172e+01 2.300000e+01
         vertex 2.367422e+01 1.842638e+01 0.000000e+00
      endloop
   endfacet
   facet normal 8.371666e-01 -5.469480e-01 0.000000e+00
      outer loop
         vertex -2.638421e+01 1.427842e+01 0.000000e+00
         vertex -2.367422e+01 1.842638e+01 0.000000e+00
         vertex -2.638421e+01 1.427842e+01 2.300000e+01
      endloop
   endfacet
   facet normal -7.357239e-01 6.772816e-01 0.000000e+00
      outer loop
         vertex 2.367422e+01 -1.842638e+01 2.300000e+01
         vertex 2.367422e+01 -1.842638e+01 0.000000e+00
         vertex 2.031845e+01 -2.207172e+01 0.000000e+00
      endloop
   endfacet
   facet normal 8.371666e-01 5.469480e-01 0.000000e+00
      outer loop
         vertex -2.638421e+01 -1.427842e+01 2.300000e+01
         vertex -2.367422e+01 -1.842638e+01 2.300000e+01
         vertex -2.638421e+01 -1.427842e+01 0.000000e+00
      endloop
   endfacet
   facet normal 0.000000e+00 -0.000000e+00 -1.000000e+00
      outer loop
         vertex 3.000000e+01 0.000000e+00 0.000000e+00
         vertex 3.259372e+01 5.162337e+00 0.000000e+00
         vertex 3.300000e+01 0.000000e+00 0.000000e+00
      endloop
   endfacet
   facet normal 0.000000e+00 -0.000000e+00 -1.000000e+00
      outer loop
         vertex 2.837452e+01 9.740984e+00 0.000000e+00
         vertex 2.940322e+01 1.498169e+01 0.000000e+00
         vertex 3.138486e+01 1.019756e+01 0.000000e+00
      endloop
   endfacet
   facet normal 0.000000e+00 0.000000e+00 -1.000000e+00
      outer loop
         vertex 2.367422e+01 1.842638e+01 0.000000e+00
         vertex 2.333452e+01 2.333452e+01 0.000000e+00
         vertex 2.669756e+01 1.939691e+01 0.000000e+00
      endloop
   endfacet
   facet normal 0.000000e+00 0.000000e+00 -1.000000e+00
      outer loop
         vertex 1.640845e+01 2.511499e+01 0.000000e+00
         vertex 1.498169e+01 2.940322e+01 0.000000e+00
         vertex 1.939691e+01 2.669756e+01 0.000000e+00
      endloop
   endfacet
   facet normal 0.000000e+00 0.000000e+00 -1.000000e+00
      outer loop
         vertex 7.364564e+00 2.908201e+01 0.000000e+00
         vertex 5.162337e+00 3.259372e+01 0.000000e+00
         vertex 1.019756e+01 3.138486e+01 0.000000e+00
      endloop
   endfacet
   facet normal 0.000000e+00 0.000000e+00 -1.000000e+00
      outer loop
         vertex -2.477380e+00 2.989754e+01 0.000000e+00
         vertex -5.162337e+00 3.259372e+01 0.000000e+00
         vertex 2.020667e-15 3.300000e+01 0.000000e+00
      endloop
   endfacet
   facet normal 0.000000e+00 0.000000e+00 -1.000000e+00
      outer loop
         vertex -1.205086e+01 2.747320e+01 0.000000e+00
         vertex -1.498169e+01 2.940322e+01 0.000000e+00
         vertex -1.019756e+01 3.138486e+01 0.000000e+00
      endloop
   endfacet
   facet normal 0.000000e+00 0.000000e+00 -1.000000e+00
      outer loop
         vertex -2.031845e+01 2.207172e+01 0.000000e+00
         vertex -2.333452e+01 2.333452e+01 0.000000e+00
         vertex -1.939691e+01 2.669756e+01 0.000000e+00
      endloop
   endfacet
   facet normal 0.000000e+00 0.000000e+00 -1.000000e+00
      outer loop
         vertex -2.638421e+01 1.427842e+01 0.000000e+00
         vertex -2.940322e+01 1.498169e+01 0.000000e+00
         vertex -2.669756e+01 1.939691e+01 0.000000e+00
      endloop
   endfacet
   facet normal 0.000000e+00 0.000000e+00 -1.000000e+00
      outer loop
         vertex -2.959084e+01 4.937838e+00 0.000000e+00
         vertex -3.259372e+01 5.162337e+00 0.000000e+00
         vertex -3.138486e+01 1.019756e+01 0.000000e+00
      endloop
   endfacet
   facet normal 0.000000e+00 0.000000e+00 -1.000000e+00
      outer loop
         vertex -3.000000e+01 3.673940e-15 0.000000e+00
         vertex -3.259372e+01 -5.162337e+00 0.000000e+00
         vertex -3.300000e+01 4.041334e-15 0.000000e+00
      endloop
   endfacet
   facet normal 0.000000e+00 0.000000e+00 -1.000000e+00
      outer loop
         vertex -2.837452e+01 -9.740984e+00 0.000000e+00
         vertex -2.940322e+01 -1.498169e+01 0.000000e+00
         vertex -3.138486e+01 -1.019756e+01 0.000000e+00
      endloop
   endfacet
   facet normal 0.000000e+00 0.000000e+00 -1.000000e+00
      outer loop
         vertex -2.367422e+01 -1.842638e+01 0.000000e+00
         vertex -2.333452e+01 -2.333452e+01 0.000000e+00
         vertex -2.669756e+01 -1.939691e+01 0.000000e+00
      endloop
   endfacet
   facet normal 0.000000e+00 0.000000e+00 -1.000000e+00
      outer loop
         vertex -1.640845e+01 -2.511499e+01 0.000000e+00
         vertex -1.498169e+01 -2.940322e+01 0.000000e+00
         vertex -1.939691e+01 -2.669756e+01 0.000000e+00
      endloop
   endfacet
   facet normal 0.000000e+00 0.000000e+00 -1.000000e+00
      outer loop
         vertex -7.364564e+00 -2.908201e+01 0.000000e+00
         vertex -5.162337e+00 -3.259372e+01 0.000000e+00
         vertex -1.019756e+01 -3.138486e+01 0.000000e+00
      endloop
   endfacet
   facet normal -0.000000e+00 0.000000e+00 -1.000000e+00
      outer loop
         vertex 2.477380e+00 -2.989754e+01 0.000000e+00
         vertex 5.162337e+00 -3.259372e+01 0.000000e+00
         vertex -6.062002e-15 -3.300000e+01 0.000000e+00
      endloop
   endfacet
   facet normal -0.000000e+00 0.000000e+00 -1.000000e+00
      outer loop
         vertex 1.205086e+01 -2.747320e+01 0.000000e+00
         vertex 1.498169e+01 -2.940322e+01 0.000000e+00
         vertex 1.019756e+01 -3.138486e+01 0.000000e+00
      endloop
   endfacet
   facet normal -0.000000e+00 0.000000e+00 -1.000000e+00
      outer loop
         vertex 2.031845e+01 -2.207172e+01 0.000000e+00
         vertex 2.333452e+01 -2.333452e+01 0.000000e+00
         vertex 1.939691e+01 -2.669756e+01 0.000000e+00
      endloop
   endfacet
   facet normal -0.000000e+00 0.000000e+00 -1.000000e+00
      outer loop
         vertex 2.638421e+01 -1.427842e+01 0.000000e+00
         vertex 2.940322e+01 -1.498169e+01 0.000000e+00
         vertex 2.669756e+01 -1.939691e+01 0.000000e+00
      endloop
   endfacet
   facet normal -0.000000e+00 0.000000e+00 -1.000000e+00
      outer loop
         vertex 2.959084e+01 -4.937838e+00 0.000000e+00
         vertex 3.259372e+01 -5.162337e+00 0.000000e+00
         vertex 3.138486e+01 -1.019756e+01 0.000000e+00
      endloop
   endfacet
   facet normal 0.000000e+00 0.000000e+00 -1.000000e+00
      outer loop
         vertex 3.259372e+01 -5.162337e+00 0.000000e+00
         vertex 2.959084e+01 -4.937838e+00 0.000000e+00
         vertex 3.000000e+01 0.000000e+00 0.000000e+00
      endloop
   endfacet
   facet normal 0.000000e+00 0.000000e+00 -1.000000e+00
      outer loop
         vertex 2.940322e+01 -1.498169e+01 0.000000e+00
         vertex 2.638421e+01 -1.427842e+01 0.000000e+00
         vertex 2.837452e+01 -9.740984e+00 0.000000e+00
      endloop
   endfacet
   facet normal 0.000000e+00 0.000000e+00 -1.000000e+00
      outer loop
         vertex 2.333452e+01 -2.333452e+01 0.000000e+00
         vertex 2.031845e+01 -2.207172e+01 0.000000e+00
         vertex 2.367422e+01 -1.842638e+01 0.000000e+00
      endloop
   endfacet
   facet normal 0.000000e+00 0.000000e+00 -1.000000e+00
      outer loop
         vertex 1.498169e+01 -2.940322e+01 0.000000e+00
         vertex 1.205086e+01 -2.747320e+01 0.000000e+00
         vertex 1.640845e+01 -2.511499e+01 0.000000e+00
      endloop
   endfacet
   facet normal 0.000000e+00 0.000000e+00 -1.000000e+00
      outer loop
         vertex 5.162337e+00 -3.259372e+01 0.000000e+00
         vertex 2.477380e+00 -2.989754e+01 0.000000e+00
         vertex 7.364564e+00 -2.908201e+01 0.000000e+00
      endloop
   endfacet
   facet normal 0.000000e+00 0.000000e+00 -1.000000e+00
      outer loop
         vertex -5.162337e+00 -3.259372e+01 0.000000e+00
         vertex -7.364564e+00 -2.908201e+01 0.000000e+00
         vertex -2.477380e+00 -2.989754e+01 0.000000e+00
      endloop
   endfacet
   facet normal 0.000000e+00 0.000000e+00 -1.000000e+00
      outer loop
         vertex -1.498169e+01 -2.940322e+01 0.000000e+00
         vertex -1.640845e+01 -2.511499e+01 0.000000e+00
         vertex -1.205086e+01 -2.747320e+01 0.000000e+00
      endloop
   endfacet
   facet normal 0.000000e+00 0.000000e+00 -1.000000e+00
      outer loop
         vertex -2.333452e+01 -2.333452e+01 0.000000e+00
         vertex -2.367422e+01 -1.842638e+01 0.000000e+00
         vertex -2.031845e+01 -2.207172e+01 0.000000e+00
      endloop
   endfacet
   facet normal 0.000000e+00 -0.000000e+00 -1.000000e+00
      outer loop
         vertex -2.940322e+01 -1.498169e+01 0.000000e+00
         vertex -2.837452e+01 -9.740984e+00 0.000000e+00
         vertex -2.638421e+01 -1.427842e+01 0.000000e+00
      endloop
   endfacet
   facet normal 0.000000e+00 -0.000000e+00 -1.000000e+00
      outer loop
         vertex -3.259372e+01 -5.162337e+00 0.000000e+00
         vertex -3.000000e+01 3.673940e-15 0.000000e+00
         vertex -2.959084e+01 -4.937838e+00 0.000000e+00
      endloop
   endfacet
   facet normal -0.000000e+00 0.000000e+00 -1.000000e+00
      outer loop
         vertex -3.138486e+01 1.019756e+01 0.000000e+00
         vertex -2.837452e+01 9.740984e+00 0.000000e+00
         vertex -2.959084e+01 4.937838e+00 0.000000e+00
      endloop
   endfacet
   facet normal -0.000000e+00 0.000000e+00 -1.000000e+00
      outer loop
         vertex -2.669756e+01 1.939691e+01 0.000000e+00
         vertex -2.367422e+01 1.842638e+01 0.000000e+00
         vertex -2.638421e+01 1.427842e+01 0.000000e+00
      endloop
   endfacet
   facet normal -0.000000e+00 0.000000e+00 -1.000000e+00
      outer loop
         vertex -1.939691e+01 2.669756e+01 0.000000e+00
         vertex -1.640845e+01 2.511499e+01 0.000000e+00
         vertex -2.031845e+01 2.207172e+01 0.000000e+00
      endloop
   endfacet
   facet normal -0.000000e+00 0.000000e+00 -1.000000e+00
      outer loop
         vertex -1.019756e+01 3.138486e+01 0.000000e+00
         vertex -7.364564e+00 2.908201e+01 0.000000e+00
         vertex -1.205086e+01 2.747320e+01 0.000000e+00
      endloop
   endfacet
   facet normal 0.000000e+00 0.000000e+00 -1.000000e+00
      outer loop
         vertex 2.020667e-15 3.300000e+01 0.000000e+00
         vertex 2.477380e+00 2.989754e+01 0.000000e+00
         vertex -2.477380e+00 2.989754e+01 0.000000e+00
      endloop
   endfacet
   facet normal 0.000000e+00 0.000000e+00 -1.000000e+00
      outer loop
         vertex 1.019756e+01 3.138486e+01 0.000000e+00
         vertex 1.205086e+01 2.747320e+01 0.000000e+00
         vertex 7.364564e+00 2.908201e+01 0.000000e+00
      endloop
   endfacet
   facet normal 0.000000e+00 0.000000e+00 -1.000000e+00
      outer loop
         vertex 1.939691e+01 2.669756e+01 0.000000e+00
         vertex 2.031845e+01 2.207172e+01 0.000000e+00
         vertex 1.640845e+01 2.511499e+01 0.000000e+00
      endloop
   endfacet
   facet normal 0.000000e+00 0.000000e+00 -1.000000e+00
      outer loop
         vertex 2.669756e+01 1.939691e+01 0.000000e+00
         vertex 2.638421e+01 1.427842e+01 0.000000e+00
         vertex 2.367422e+01 1.842638e+01 0.000000e+00
      endloop
   endfacet
   facet normal 0.000000e+00 0.000000e+00 -1.000000e+00
      outer loop
         vertex 3.138486e+01 1.019756e+01 0.000000e+00
         vertex 2.959084e+01 4.937838e+00 0.000000e+00
         vertex 2.837452e+01 9.740984e+00 0.000000e+00
      endloop
   endfacet
   facet normal 0.000000e+00 0.000000e+00 -1.000000e+00
      outer loop
         vertex 3.259372e+01 -5.162337e+00 0.000000e+00
         vertex 3.000000e+01 0.000000e+00 0.000000e+00
         vertex 3.300000e+01 0.000000e+00 0.000000e+00
      endloop
   endfacet
   facet normal 0.000000e+00 -0.000000e+00 -1.000000e+00
      outer loop
         vertex 2.031845e+01 2.207172e+01 0.000000e+00
         vertex 2.333452e+01 2.333452e+01 0.000000e+00
         vertex 2.367422e+01 1.842638e+01 0.000000e+00
      endloop
   endfacet
   facet normal 0.000000e+00 -0.000000e+00 -1.000000e+00
      outer loop
         vertex -7.364564e+00 2.908201e+01 0.000000e+00
         vertex -5.162337e+00 3.259372e+01 0.000000e+00
         vertex -2.477380e+00 2.989754e+01 0.000000e+00
      endloop
   endfacet
   facet normal 0.000000e+00 0.000000e+00 -1.000000e+00
      outer loop
         vertex -2.837452e+01 9.740984e+00 0.000000e+00
         vertex -2.940322e+01 1.498169e+01 0.000000e+00
         vertex -2.638421e+01 1.427842e+01 0.000000e+00
      endloop
   endfacet
   facet normal -0.000000e+00 0.000000e+00 -1.000000e+00
      outer loop
         vertex -2.959084e+01 -4.937838e+00 0.000000e+00
         vertex -2.837452e+01 -9.740984e+00 0.000000e+00
         vertex -3.138486e+01 -1.019756e+01 0.000000e+00
      endloop
   endfacet
   facet normal -0.000000e+00 0.000000e+00 -1.000000e+00
      outer loop
         vertex -1.205086e+01 -2.747320e+01 0.000000e+00
         vertex -7.364564e+00 -2.908201e+01 0.000000e+00
         vertex -1.019756e+01 -3.138486e+01 0.000000e+00
      endloop
   endfacet
   facet normal 0.000000e+00 0.000000e+00 -1.000000e+00
      outer loop
         vertex 1.640845e+01 -2.511499e+01 0.000000e+00
         vertex 2.031845e+01 -2.207172e+01 0.000000e+00
         vertex 1.939691e+01 -2.669756e+01 0.000000e+00
      endloop
   endfacet
   facet normal 0.000000e+00 0.000000e+00 -1.000000e+00
      outer loop
         vertex 3.138486e+01 -1.019756e+01 0.000000e+00
         vertex 2.940322e+01 -1.498169e+01 0.000000e+00
         vertex 2.837452e+01 -9.740984e+00 0.000000e+00
      endloop
   endfacet
   facet normal 0.000000e+00 0.000000e+00 -1.000000e+00
      outer loop
         vertex 1.019756e+01 -3.138486e+01 0.000000e+00
         vertex 5.162337e+00 -3.259372e+01 0.000000e+00
         vertex 7.364564e+00 -2.908201e+01 0.000000e+00
      endloop
   endfacet
   facet normal 0.000000e+00 0.000000e+00 -1.000000e+00
      outer loop
         vertex -1.939691e+01 -2.669756e+01 0.000000e+00
         vertex -2.333452e+01 -2.333452e+01 0.000000e+00
         vertex -2.031845e+01 -2.207172e+01 0.000000e+00
      endloop
   endfacet
   facet normal 0.000000e+00 0.000000e+00 -1.000000e+00
      outer loop
         vertex -2.940322e+01 1.498169e+01 0.000000e+00
         vertex -2.837452e+01 9.740984e+00 0.000000e+00
         vertex -3.138486e+01 1.019756e+01 0.000000e+00
      endloop
   endfacet
   facet normal 0.000000e+00 0.000000e+00 -1.000000e+00
      outer loop
         vertex -5.162337e+00 3.259372e+01 0.000000e+00
         vertex -7.364564e+00 2.908201e+01 0.000000e+00
         vertex -1.019756e+01 3.138486e+01 0.000000e+00
      endloop
   endfacet
   facet normal 0.000000e+00 0.000000e+00 -1.000000e+00
      outer loop
         vertex 2.333452e+01 2.333452e+01 0.000000e+00
         vertex 2.031845e+01 2.207172e+01 0.000000e+00
         vertex 1.939691e+01 2.669756e+01 0.000000e+00
      endloop
   endfacet
   facet normal 0.000000e+00 0.000000e+00 -1.000000e+00
      outer loop
         vertex -3.259372e+01 -5.162337e+00 0.000000e+00
         vertex -2.959084e+01 -4.937838e+00 0.000000e+00
         vertex -3.138486e+01 -1.019756e+01 0.000000e+00
      endloop
   endfacet
   facet normal 0.000000e+00 0.000000e+00 -1.000000e+00
      outer loop
         vertex 1.205086e+01 -2.747320e+01 0.000000e+00
         vertex 1.019756e+01 -3.138486e+01 0.000000e+00
         vertex 7.364564e+00 -2.908201e+01 0.000000e+00
      endloop
   endfacet
   facet normal 0.000000e+00 -0.000000e+00 -1.000000e+00
      outer loop
         vertex 2.959084e+01 4.937838e+00 0.000000e+00
         vertex 3.138486e+01 1.019756e+01 0.000000e+00
         vertex 3.259372e+01 5.162337e+00 0.000000e+00
      endloop
   endfacet
   facet normal 0.000000e+00 0.000000e+00 -1.000000e+00
      outer loop
         vertex 1.205086e+01 2.747320e+01 0.000000e+00
         vertex 1.019756e+01 3.138486e+01 0.000000e+00
         vertex 1.498169e+01 2.940322e+01 0.000000e+00
      endloop
   endfacet
   facet normal 0.000000e+00 0.000000e+00 -1.000000e+00
      outer loop
         vertex -1.640845e+01 2.511499e+01 0.000000e+00
         vertex -1.939691e+01 2.669756e+01 0.000000e+00
         vertex -1.498169e+01 2.940322e+01 0.000000e+00
      endloop
   endfacet
   facet normal 0.000000e+00 0.000000e+00 -1.000000e+00
      outer loop
         vertex -3.000000e+01 3.673940e-15 0.000000e+00
         vertex -3.300000e+01 4.041334e-15 0.000000e+00
         vertex -3.259372e+01 5.162337e+00 0.000000e+00
      endloop
   endfacet
   facet normal 0.000000e+00 0.000000e+00 -1.000000e+00
      outer loop
         vertex -1.205086e+01 -2.747320e+01 0.000000e+00
         vertex -1.019756e+01 -3.138486e+01 0.000000e+00
         vertex -1.498169e+01 -2.940322e+01 0.000000e+00
      endloop
   endfacet
   facet normal -0.000000e+00 0.000000e+00 -1.000000e+00
      outer loop
         vertex 1.640845e+01 -2.511499e+01 0.000000e+00
         vertex 1.939691e+01 -2.669756e+01 0.000000e+00
         vertex 1.498169e+01 -2.940322e+01 0.000000e+00
      endloop
   endfacet
   facet normal 0.000000e+00 0.000000e+00 -1.000000e+00
      outer loop
         vertex 3.138486e+01 -1.019756e+01 0.000000e+00
         vertex 2.837452e+01 -9.740984e+00 0.000000e+00
         vertex 2.959084e+01 -4.937838e+00 0.000000e+00
      endloop
   endfacet
   facet normal 0.000000e+00 0.000000e+00 -1.000000e+00
      outer loop
         vertex -6.062002e-15 -3.300000e+01 0.000000e+00
         vertex -2.477380e+00 -2.989754e+01 0.000000e+00
         vertex 2.477380e+00 -2.989754e+01 0.000000e+00
      endloop
   endfacet
   facet normal 0.000000e+00 -0.000000e+00 -1.000000e+00
      outer loop
         vertex -2.669756e+01 -1.939691e+01 0.000000e+00
         vertex -2.638421e+01 -1.427842e+01 0.000000e+00
         vertex -2.367422e+01 -1.842638e+01 0.000000e+00
      endloop
   endfacet
   facet normal -0.000000e+00 0.000000e+00 -1.000000e+00
      outer loop
         vertex -2.333452e+01 2.333452e+01 0.000000e+00
         vertex -2.031845e+01 2.207172e+01 0.000000e+00
         vertex -2.367422e+01 1.842638e+01 0.000000e+00
      endloop
   endfacet
   facet normal 0.000000e+00 0.000000e+00 -1.000000e+00
      outer loop
         vertex 5.162337e+00 3.259372e+01 0.000000e+00
         vertex 7.364564e+00 2.908201e+01 0.000000e+00
         vertex 2.477380e+00 2.989754e+01 0.000000e+00
      endloop
   endfacet
   facet normal 0.000000e+00 0.000000e+00 -1.000000e+00
      outer loop
         vertex 2.940322e+01 1.498169e+01 0.000000e+00
         vertex 2.837452e+01 9.740984e+00 0.000000e+00
         vertex 2.638421e+01 1.427842e+01 0.000000e+00
      endloop
   endfacet
   facet normal 0.000000e+00 0.000000e+00 -1.000000e+00
      outer loop
         vertex 2.959084e+01 4.937838e+00 0.000000e+00
         vertex 3.259372e+01 5.162337e+00 0.000000e+00
         vertex 3.000000e+01 0.000000e+00 0.000000e+00
      endloop
   endfacet
   facet normal 0.000000e+00 0.000000e+00 -1.000000e+00
      outer loop
         vertex -3.000000e+01 3.673940e-15 0.000000e+00
         vertex -3.259372e+01 5.162337e+00 0.000000e+00
         vertex -2.959084e+01 4.937838e+00 0.000000e+00
      endloop
   endfacet
   facet normal 0.000000e+00 0.000000e+00 -1.000000e+00
      outer loop
         vertex 2.669756e+01 -1.939691e+01 0.000000e+00
         vertex 2.333452e+01 -2.333452e+01 0.000000e+00
         vertex 2.367422e+01 -1.842638e+01 0.000000e+00
      endloop
   endfacet
   facet normal 0.000000e+00 0.000000e+00 -1.000000e+00
      outer loop
         vertex -2.333452e+01 2.333452e+01 0.000000e+00
         vertex -2.367422e+01 1.842638e+01 0.000000e+00
         vertex -2.669756e+01 1.939691e+01 0.000000e+00
      endloop
   endfacet
   facet normal 0.000000e+00 0.000000e+00 -1.000000e+00
      outer loop
         vertex -1.640845e+01 -2.511499e+01 0.000000e+00
         vertex -1.939691e+01 -2.669756e+01 0.000000e+00
         vertex -2.031845e+01 -2.207172e+01 0.000000e+00
      endloop
   endfacet
   facet normal 0.000000e+00 0.000000e+00 -1.000000e+00
      outer loop
         vertex -2.940322e+01 -1.498169e+01 0.000000e+00
         vertex -2.638421e+01 -1.427842e+01 0.000000e+00
         vertex -2.669756e+01 -1.939691e+01 0.000000e+00
      endloop
   endfacet
   facet normal 0.000000e+00 -0.000000e+00 -1.000000e+00
      outer loop
         vertex 2.638421e+01 1.427842e+01 0.000000e+00
         vertex 2.669756e+01 1.939691e+01 0.000000e+00
         vertex 2.940322e+01 1.498169e+01 0.000000e+00
      endloop
   endfacet
   facet normal 0.000000e+00 0.000000e+00 -1.000000e+00
      outer loop
         vertex -2.477380e+00 -2.989754e+01 0.000000e+00
         vertex -6.062002e-15 -3.300000e+01 0.000000e+00
         vertex -5.162337e+00 -3.259372e+01 0.000000e+00
      endloop
   endfacet
   facet normal -0.000000e+00 0.000000e+00 -1.000000e+00
      outer loop
         vertex -1.498169e+01 2.940322e+01 0.000000e+00
         vertex -1.205086e+01 2.747320e+01 0.000000e+00
         vertex -1.640845e+01 2.511499e+01 0.000000e+00
      endloop
   endfacet
   facet normal 0.000000e+00 -0.000000e+00 -1.000000e+00
      outer loop
         vertex 1.205086e+01 2.747320e+01 0.000000e+00
         vertex 1.498169e+01 2.940322e+01 0.000000e+00
         vertex 1.640845e+01 2.511499e+01 0.000000e+00
      endloop
   endfacet
   facet normal -0.000000e+00 0.000000e+00 -1.000000e+00
      outer loop
         vertex 2.020667e-15 3.300000e+01 0.000000e+00
         vertex 5.162337e+00 3.259372e+01 0.000000e+00
         vertex 2.477380e+00 2.989754e+01 0.000000e+00
      endloop
   endfacet
   facet normal 0.000000e+00 0.000000e+00 -1.000000e+00
      outer loop
         vertex 2.669756e+01 -1.939691e+01 0.000000e+00
         vertex 2.367422e+01 -1.842638e+01 0.000000e+00
         vertex 2.638421e+01 -1.427842e+01 0.000000e+00
      endloop
   endfacet
endsolid
